{"glyphs":{"0":{"ha":833,"x_min":53,"x_max":781,"o":"m 152 262 l 84 418 l 681 733 l 749 577 l 152 262 m 417 -24 q 149 108 246 -24 q 53 481 53 239 l 53 515 q 149 888 53 757 q 417 1018 246 1018 q 685 888 589 1018 q 781 515 781 757 l 781 481 q 685 108 781 239 q 417 -24 589 -24 m 411 167 q 538 243 497 167 q 578 472 578 319 l 578 524 q 540 754 578 680 q 422 828 501 828 q 296 752 336 828 q 256 524 256 677 l 256 472 q 294 242 256 317 q 411 167 332 167 z "},"1":{"ha":833,"x_min":70,"x_max":804,"o":"m 366 76 l 366 741 l 160 638 l 70 818 l 428 994 l 577 994 l 577 76 l 366 76 m 107 0 l 107 196 l 804 196 l 804 0 l 107 0 z "},"2":{"ha":833,"x_min":75,"x_max":751,"o":"m 79 0 l 79 168 l 416 538 q 487 632 468 596 q 506 709 506 668 l 506 714 q 481 783 506 758 q 412 808 456 808 q 278 700 321 808 l 75 776 q 211 955 118 891 q 431 1018 305 1018 q 589 984 521 1018 q 695 888 657 949 q 733 745 733 827 l 733 739 q 717 641 733 688 q 665 543 702 595 q 562 419 628 490 l 363 206 l 363 199 l 751 199 l 751 0 l 79 0 z "},"3":{"ha":833,"x_min":51,"x_max":775,"o":"m 447 -24 q 190 48 292 -24 q 51 253 88 120 l 242 318 q 310 213 263 249 q 429 177 358 177 q 525 206 489 177 q 560 286 560 234 l 560 300 q 525 379 560 351 q 416 408 489 408 l 287 408 l 287 603 l 394 603 q 494 631 458 603 q 529 708 529 658 l 529 719 q 499 791 529 764 q 413 818 469 818 q 322 791 360 818 q 269 715 283 764 l 73 780 q 202 955 107 891 q 429 1018 297 1018 q 595 985 524 1018 q 706 894 666 952 q 745 758 745 835 l 745 751 q 699 604 745 666 q 567 516 653 542 l 567 511 q 722 424 669 490 q 775 267 775 358 l 775 259 q 733 112 775 176 q 618 12 692 48 q 447 -24 544 -24 z "},"4":{"ha":833,"x_min":32,"x_max":794,"o":"m 451 0 l 451 304 l 464 338 l 464 763 l 494 723 l 458 723 l 237 394 l 237 388 l 542 388 l 591 399 l 794 399 l 794 212 l 32 212 l 32 381 l 444 994 l 660 994 l 660 0 l 451 0 z "},"5":{"ha":833,"x_min":50,"x_max":776,"o":"m 413 -24 q 250 9 324 -24 q 124 103 176 42 q 50 247 72 164 l 240 317 q 303 214 258 250 q 413 177 349 177 q 521 216 481 177 q 561 319 561 254 l 561 333 q 522 436 561 397 q 419 475 483 475 q 336 457 374 475 q 269 406 297 440 l 83 464 l 151 994 l 717 994 l 717 802 l 303 802 l 269 567 l 275 564 q 374 630 320 608 q 492 651 428 651 q 641 611 577 651 q 741 499 705 571 q 776 331 776 426 l 776 324 q 731 142 776 220 q 603 20 685 63 q 413 -24 522 -24 z "},"6":{"ha":833,"x_min":58,"x_max":776,"o":"m 415 -22 q 230 24 310 -22 q 103 149 149 69 q 58 332 58 229 l 58 339 q 75 466 58 403 q 130 597 92 528 q 230 748 167 665 l 448 1035 l 622 908 l 464 723 q 414 670 438 693 q 359 626 389 648 l 362 621 q 496 652 421 652 q 644 611 581 652 q 741 499 707 570 q 776 335 776 427 l 776 328 q 730 147 776 226 q 603 23 684 68 q 415 -22 522 -22 m 417 180 q 523 220 485 180 q 560 326 560 260 l 560 340 q 523 445 560 406 q 417 485 485 485 q 311 445 349 485 q 273 340 273 406 l 273 326 q 311 220 273 260 q 417 180 349 180 z "},"7":{"ha":833,"x_min":74,"x_max":760,"o":"m 345 -24 l 151 67 l 508 788 l 508 794 l 74 794 l 74 994 l 760 994 l 760 826 l 345 -24 z "},"8":{"ha":833,"x_min":66,"x_max":767,"o":"m 417 -24 q 365 -24 417 -24 q 235 13 314 -24 q 111 116 156 50 q 66 267 66 181 l 66 271 q 113 425 66 356 q 238 526 160 494 l 238 531 q 135 621 174 563 q 97 748 97 680 l 97 751 q 138 891 97 831 q 250 984 178 951 q 417 1018 322 1018 q 584 984 512 1018 q 696 891 656 951 q 736 751 736 831 l 736 748 q 698 622 736 679 q 595 531 660 564 l 595 526 q 720 424 674 494 q 767 271 767 355 l 767 267 q 723 116 767 181 q 599 13 678 50 q 417 -24 520 -24 m 417 165 q 518 201 481 165 q 556 297 556 238 l 556 308 q 518 405 556 369 q 417 441 481 441 q 316 405 353 441 q 278 308 278 369 l 278 297 q 316 201 278 238 q 417 165 353 165 m 417 608 q 442 608 417 608 q 499 637 468 608 q 531 715 531 667 l 531 725 q 500 804 531 774 q 417 833 469 833 q 334 804 365 833 q 303 725 303 774 l 303 715 q 334 637 303 667 q 417 608 365 608 z "},"9":{"ha":833,"x_min":58,"x_max":776,"o":"m 418 1016 q 603 970 523 1016 q 730 845 684 925 q 776 663 776 766 l 776 656 q 759 529 776 592 q 704 398 742 467 q 603 247 667 329 l 385 -40 l 211 86 l 369 272 q 420 324 395 301 q 474 368 444 347 l 472 374 q 338 342 413 342 q 189 383 252 342 q 92 496 126 424 q 58 660 58 567 l 58 667 q 103 848 58 769 q 231 971 149 926 q 418 1016 313 1016 m 417 815 q 311 775 349 815 q 273 669 273 735 l 273 655 q 310 549 273 590 q 417 509 348 509 q 523 549 485 509 q 560 655 560 590 l 560 669 q 523 775 560 735 q 417 815 485 815 z "},"\u0000":{"ha":833,"x_min":0,"x_max":0,"o":""},"\r":{"ha":833,"x_min":0,"x_max":0,"o":""}," ":{"ha":833,"x_min":0,"x_max":0,"o":""}," ":{"ha":833,"x_min":0,"x_max":0,"o":""},"◌":{"ha":833,"x_min":68,"x_max":765,"o":"m 715 304 q 705 304 715 304 q 680 319 694 304 q 665 354 665 333 q 680 390 665 375 q 715 404 694 404 q 751 390 736 404 q 765 354 765 375 q 751 319 765 333 q 715 304 736 304 m 158 155 q 123 169 138 155 q 108 205 108 184 q 123 240 108 226 q 158 255 138 255 q 193 240 178 255 q 208 205 208 226 q 193 169 208 184 q 158 155 178 155 m 267 46 q 257 46 267 46 q 232 60 247 46 q 217 96 217 75 q 232 131 217 116 q 267 145 247 145 q 303 131 288 145 q 317 96 317 116 q 303 60 317 75 q 267 46 288 46 m 118 304 q 108 304 118 304 q 83 319 97 304 q 68 354 68 333 q 83 390 68 375 q 118 404 97 404 q 153 390 139 404 q 168 354 168 375 q 153 319 168 333 q 118 304 139 304 m 417 6 q 406 6 417 6 q 381 20 396 6 q 367 56 367 35 q 381 91 367 76 q 417 106 396 106 q 452 91 438 106 q 467 56 467 76 q 452 20 467 35 q 417 6 438 6 m 158 453 q 123 468 138 453 q 108 503 108 483 q 123 539 108 524 q 158 553 138 553 q 193 539 178 553 q 208 503 208 524 q 193 468 208 483 q 158 453 178 453 m 566 46 q 556 46 566 46 q 531 60 545 46 q 516 96 516 75 q 531 131 516 116 q 566 145 545 145 q 601 131 587 145 q 616 96 616 116 q 601 60 616 75 q 566 46 587 46 m 267 563 q 257 563 267 563 q 232 578 247 563 q 217 613 217 592 q 232 648 217 633 q 267 663 247 663 q 303 648 288 663 q 317 613 317 633 q 303 578 317 592 q 267 563 288 563 m 675 155 q 640 169 655 155 q 626 205 626 184 q 640 240 626 226 q 675 255 655 255 q 710 240 696 255 q 725 205 725 226 q 710 169 725 184 q 675 155 696 155 m 417 603 q 406 603 417 603 q 381 617 396 603 q 367 653 367 632 q 381 688 367 674 q 417 703 396 703 q 452 688 438 703 q 467 653 467 674 q 452 617 467 632 q 417 603 438 603 m 675 453 q 640 468 655 453 q 626 503 626 483 q 640 539 626 524 q 675 553 655 553 q 710 539 696 553 q 725 503 725 524 q 710 468 725 483 q 675 453 696 453 m 566 563 q 556 563 566 563 q 531 578 545 563 q 516 613 516 592 q 531 648 516 633 q 566 663 545 663 q 601 648 587 663 q 616 613 616 633 q 601 578 616 592 q 566 563 587 563 z "},"!":{"ha":833,"x_min":274,"x_max":560,"o":"m 313 415 l 287 1038 l 547 1038 l 520 415 l 313 415 m 417 -24 q 386 -24 417 -24 q 315 18 356 -24 q 274 119 274 60 q 315 221 274 179 q 417 263 356 263 q 518 221 477 263 q 560 119 560 179 q 518 18 560 60 q 417 -24 477 -24 z "},"#":{"ha":833,"x_min":16,"x_max":817,"o":"m 418 -12 l 559 1007 l 719 1007 l 578 -12 l 418 -12 m 115 -12 l 256 1007 l 415 1007 l 274 -12 l 115 -12 m 16 235 l 16 396 l 767 396 l 767 235 l 16 235 m 67 599 l 67 760 l 817 760 l 817 599 l 67 599 z "},"$":{"ha":833,"x_min":53,"x_max":780,"o":"m 430 0 q 184 71 284 0 q 53 274 85 142 l 257 338 q 325 220 276 260 q 443 181 374 181 q 533 208 500 181 q 566 283 566 235 l 566 288 q 541 355 566 328 q 463 401 517 381 l 327 450 q 148 560 206 494 q 90 717 90 626 l 90 724 q 132 867 90 807 q 252 961 174 928 q 435 994 329 994 q 644 937 560 994 q 760 774 728 880 l 556 709 q 504 788 539 761 q 414 815 469 815 q 332 792 362 815 q 303 728 303 769 l 303 726 q 327 670 303 692 q 408 628 351 648 l 544 578 q 722 465 665 533 q 780 294 780 397 l 780 288 q 736 136 780 201 q 614 36 692 72 q 430 0 535 0 m 351 -164 l 351 73 l 351 93 l 351 126 l 519 126 l 519 93 l 519 73 l 519 -164 l 351 -164 m 351 864 l 351 913 l 351 941 l 351 1158 l 519 1158 l 519 941 l 519 913 l 519 864 l 351 864 z "},"%":{"ha":833,"x_min":6,"x_max":827,"o":"m 105 160 l 6 286 l 728 835 l 827 709 l 105 160 m 592 -24 q 475 6 525 -24 q 398 85 426 35 q 370 198 370 135 l 370 203 q 398 317 370 267 q 475 396 426 367 q 592 425 525 425 q 708 396 658 425 q 785 317 758 367 q 813 203 813 267 l 813 198 q 785 85 813 135 q 708 6 758 35 q 592 -24 658 -24 m 592 106 q 651 131 628 106 q 674 199 674 157 l 674 202 q 651 270 674 244 q 592 296 628 296 q 532 270 554 296 q 509 202 509 244 l 509 199 q 532 131 509 157 q 592 106 554 106 m 242 569 q 126 599 176 569 q 49 678 76 628 q 21 791 21 728 l 21 797 q 49 910 21 860 q 126 989 76 960 q 242 1018 176 1018 q 359 989 309 1018 q 436 910 408 960 q 463 797 463 860 l 463 791 q 436 678 463 728 q 359 599 408 628 q 242 569 309 569 m 242 699 q 302 724 279 699 q 324 792 324 750 l 324 795 q 302 863 324 838 q 242 889 279 889 q 182 863 205 889 q 160 795 160 838 l 160 792 q 182 724 160 750 q 242 699 205 699 z "},"&":{"ha":833,"x_min":18,"x_max":829,"o":"m 688 -40 l 232 467 q 146 574 179 526 q 98 666 113 622 q 83 756 83 710 l 83 757 q 120 893 83 835 q 224 985 158 952 q 379 1018 291 1018 q 572 958 494 1018 q 686 778 649 897 l 501 721 q 456 799 483 774 q 386 824 428 824 q 318 801 344 824 q 293 738 293 777 l 293 733 q 310 673 293 704 q 368 597 328 641 l 829 94 l 688 -40 m 335 -24 q 169 13 240 -24 q 58 115 97 50 q 18 265 18 181 l 18 273 q 81 467 18 390 q 253 589 143 544 l 336 467 q 255 406 283 446 q 226 305 226 366 l 226 292 q 264 197 226 231 q 367 163 301 163 q 473 203 431 163 q 543 339 516 244 q 585 595 570 433 l 782 568 q 689 248 753 380 q 534 46 624 115 q 335 -24 444 -24 z "},"'":{"ha":833,"x_min":302,"x_max":531,"o":"m 302 624 l 302 1014 l 531 1014 l 531 624 l 302 624 z "},"(":{"ha":833,"x_min":221,"x_max":736,"o":"m 619 1163 l 736 1010 q 506 762 581 894 q 432 461 432 629 q 506 160 432 293 q 736 -87 581 28 l 619 -241 q 394 -33 482 -140 q 263 197 306 75 q 221 461 221 318 q 263 726 221 604 q 394 955 306 847 q 619 1163 482 1063 z "},")":{"ha":833,"x_min":97,"x_max":613,"o":"m 214 -237 l 97 -84 q 327 164 253 31 q 401 465 401 297 q 327 765 401 633 q 97 1013 253 898 l 214 1167 q 440 958 351 1066 q 570 729 528 851 q 613 465 613 608 q 570 200 613 322 q 440 -29 528 78 q 214 -237 351 -137 z "},"*":{"ha":833,"x_min":41,"x_max":792,"o":"m 120 281 l 41 419 l 392 593 l 713 794 l 792 656 l 442 481 l 120 281 m 713 281 l 392 481 l 41 656 l 120 794 l 442 593 l 792 419 l 713 281 m 339 144 l 339 931 l 494 931 l 494 144 l 339 144 z "},"+":{"ha":833,"x_min":70,"x_max":763,"o":"m 310 110 l 310 788 l 523 788 l 523 110 l 310 110 m 70 349 l 70 550 l 763 550 l 763 349 l 70 349 z "},",":{"ha":833,"x_min":226,"x_max":564,"o":"m 342 -260 l 226 -177 l 419 72 l 415 7 q 353 19 384 5 q 302 61 322 33 q 281 132 281 90 q 319 229 281 190 q 420 268 357 268 q 526 225 489 268 q 564 121 564 183 q 547 36 564 76 q 493 -54 530 -4 l 342 -260 z "},"-":{"ha":833,"x_min":89,"x_max":744,"o":"m 89 342 l 89 555 l 744 555 l 744 342 l 89 342 z "},".":{"ha":833,"x_min":274,"x_max":560,"o":"m 417 -19 q 315 23 357 -19 q 274 124 274 64 q 315 225 274 184 q 417 267 357 267 q 519 225 478 267 q 560 124 560 184 q 519 23 560 64 q 417 -19 478 -19 z "},"/":{"ha":833,"x_min":72,"x_max":761,"o":"m 72 -122 l 555 1014 l 761 1014 l 278 -122 l 72 -122 z "},":":{"ha":833,"x_min":274,"x_max":560,"o":"m 417 471 q 316 512 358 471 q 274 613 274 553 q 315 713 274 672 q 417 754 357 754 q 519 713 478 754 q 560 613 560 672 q 519 512 560 553 q 417 471 478 471 m 417 -21 q 316 20 358 -21 q 274 122 274 61 q 315 222 274 181 q 417 263 357 263 q 519 222 478 263 q 560 122 560 181 q 519 20 560 61 q 417 -21 478 -21 z "},";":{"ha":833,"x_min":226,"x_max":565,"o":"m 422 469 q 320 511 362 469 q 278 613 278 552 q 320 714 278 672 q 422 755 362 755 q 524 714 483 755 q 565 613 565 672 q 524 511 565 552 q 422 469 483 469 m 342 -260 l 226 -177 l 419 72 l 415 7 q 353 19 384 5 q 302 61 322 33 q 281 132 281 90 q 319 229 281 190 q 420 268 357 268 q 526 225 489 268 q 564 121 564 183 q 547 36 564 76 q 493 -54 530 -4 l 342 -260 z "},"<":{"ha":833,"x_min":69,"x_max":736,"o":"m 736 26 l 69 368 l 69 529 l 736 872 l 736 665 l 307 453 l 307 444 l 736 233 l 736 26 z "},"=":{"ha":833,"x_min":76,"x_max":757,"o":"m 76 528 l 76 713 l 757 713 l 757 528 l 76 528 m 76 184 l 76 369 l 757 369 l 757 184 l 76 184 z "},">":{"ha":833,"x_min":97,"x_max":764,"o":"m 97 26 l 97 233 l 526 444 l 526 453 l 97 665 l 97 872 l 764 529 l 764 368 l 97 26 z "},"?":{"ha":833,"x_min":62,"x_max":762,"o":"m 294 324 l 294 510 l 430 586 q 520 652 494 622 q 547 722 547 683 l 547 730 q 517 794 547 771 q 437 818 488 818 q 330 784 376 818 q 263 690 283 751 l 62 756 q 204 949 103 879 q 440 1018 304 1018 q 609 982 536 1018 q 722 882 681 946 q 762 735 762 819 l 762 733 q 723 590 762 652 q 600 479 685 528 l 510 426 l 510 324 l 294 324 m 402 -24 q 304 18 344 -24 q 263 116 263 59 q 304 212 263 173 q 402 251 344 251 q 500 212 460 251 q 540 116 540 173 q 499 18 540 59 q 402 -24 459 -24 z "},"@":{"ha":833,"x_min":30,"x_max":784,"o":"m 490 -162 q 149 -1 268 -162 q 30 459 30 160 l 30 497 q 137 958 30 800 q 449 1117 244 1117 q 696 1019 608 1117 q 784 744 784 921 l 784 153 l 631 153 l 631 244 l 625 244 q 562 169 596 192 q 481 146 528 146 q 370 184 418 146 q 297 290 323 222 q 270 449 270 358 l 270 467 q 297 627 270 559 q 372 734 324 696 q 485 772 421 772 q 566 749 533 772 q 625 676 599 726 l 631 676 l 631 740 q 585 904 631 849 q 451 959 540 959 q 259 846 322 959 q 196 500 196 733 l 196 456 q 269 112 196 227 q 488 -3 342 -3 q 685 66 592 -3 l 768 -74 q 490 -162 651 -162 m 525 295 q 600 335 573 295 q 626 447 626 375 l 626 472 q 599 583 626 543 q 525 623 572 623 q 448 582 476 623 q 420 472 420 542 l 420 447 q 448 335 420 375 q 525 295 476 295 z "},"A":{"ha":833,"x_min":11,"x_max":822,"o":"m 11 0 l 320 994 l 516 994 l 822 0 l 603 0 l 449 615 l 417 760 l 412 760 l 382 615 l 226 0 l 11 0 m 153 192 l 206 359 l 617 359 l 674 192 l 153 192 z "},"B":{"ha":833,"x_min":90,"x_max":781,"o":"m 90 0 l 90 994 l 455 994 q 664 929 586 994 q 741 753 741 864 l 741 738 q 703 606 741 661 q 592 522 665 550 l 592 516 q 731 430 681 493 q 781 276 781 367 l 781 260 q 742 122 781 181 q 634 32 704 64 q 469 0 565 0 l 90 0 m 300 172 l 440 172 q 536 203 502 172 q 569 291 569 234 l 569 303 q 534 391 569 360 q 435 422 499 422 l 253 422 l 253 593 l 410 593 q 499 622 468 593 q 530 703 530 650 l 530 713 q 499 794 530 766 q 410 822 468 822 l 300 822 l 300 172 z "},"C":{"ha":833,"x_min":53,"x_max":795,"o":"m 456 -24 q 244 39 335 -24 q 103 216 153 102 q 53 482 53 329 l 53 513 q 102 780 53 667 q 240 956 151 894 q 449 1018 328 1018 q 664 947 578 1018 q 783 744 751 876 l 585 685 q 535 785 568 753 q 447 817 502 817 q 317 738 363 817 q 271 516 271 660 l 271 478 q 320 257 271 337 q 455 178 369 178 q 598 315 564 178 l 795 256 q 674 50 763 124 q 456 -24 585 -24 z "},"D":{"ha":833,"x_min":81,"x_max":778,"o":"m 81 0 l 81 994 l 371 994 q 587 935 496 994 q 728 768 678 876 q 778 513 778 660 l 778 482 q 728 226 778 335 q 587 59 678 118 q 371 0 496 0 l 81 0 m 293 200 l 368 200 q 512 270 464 200 q 560 478 560 340 l 560 516 q 511 725 560 655 q 368 794 463 794 l 293 794 l 293 200 z "},"E":{"ha":833,"x_min":100,"x_max":729,"o":"m 100 0 l 100 994 l 718 994 l 718 796 l 313 796 l 313 199 l 729 199 l 729 0 l 100 0 m 231 409 l 231 606 l 663 606 l 663 409 l 231 409 z "},"F":{"ha":833,"x_min":100,"x_max":729,"o":"m 100 0 l 100 994 l 729 994 l 729 794 l 314 794 l 314 0 l 100 0 m 231 374 l 231 571 l 688 571 l 688 374 l 231 374 z "},"G":{"ha":833,"x_min":43,"x_max":807,"o":"m 451 -24 q 233 38 325 -24 q 92 213 142 99 q 43 483 43 326 l 43 509 q 92 780 43 666 q 232 956 141 894 q 447 1018 322 1018 q 661 953 575 1018 q 783 764 747 888 l 590 698 q 539 789 573 760 q 448 818 504 818 q 307 740 356 818 q 258 513 258 661 l 258 479 q 308 252 258 330 q 452 174 358 174 q 568 224 527 174 q 610 365 610 274 l 610 395 l 417 395 l 417 567 l 807 567 l 807 408 q 714 89 807 201 q 451 -24 622 -24 z "},"H":{"ha":833,"x_min":83,"x_max":750,"o":"m 536 0 l 536 994 l 750 994 l 750 0 l 536 0 m 83 0 l 83 994 l 297 994 l 297 0 l 83 0 m 217 408 l 217 606 l 624 606 l 624 408 l 217 408 z "},"I":{"ha":833,"x_min":99,"x_max":735,"o":"m 309 97 l 309 898 l 524 898 l 524 97 l 309 97 m 99 0 l 99 201 l 735 201 l 735 0 l 99 0 m 99 794 l 99 994 l 735 994 l 735 794 l 99 794 z "},"J":{"ha":833,"x_min":75,"x_max":735,"o":"m 416 -24 q 197 48 288 -24 q 75 247 106 120 l 272 305 q 407 178 303 178 q 491 216 462 178 q 519 326 519 254 l 519 994 l 735 994 l 735 321 q 695 139 735 217 q 584 19 656 62 q 416 -24 513 -24 z "},"K":{"ha":833,"x_min":65,"x_max":815,"o":"m 570 0 l 273 499 l 273 505 l 558 994 l 801 994 l 480 467 l 480 549 l 815 0 l 570 0 m 65 0 l 65 994 l 279 994 l 279 0 l 65 0 z "},"L":{"ha":833,"x_min":113,"x_max":769,"o":"m 113 0 l 113 994 l 326 994 l 326 201 l 769 201 l 769 0 l 113 0 z "},"M":{"ha":833,"x_min":37,"x_max":797,"o":"m 37 0 l 37 994 l 248 994 l 353 703 l 412 505 l 422 505 l 480 703 l 585 994 l 797 994 l 797 0 l 598 0 l 598 338 l 619 656 l 610 656 l 488 299 l 345 299 l 224 656 l 214 656 l 235 338 l 235 0 l 37 0 z "},"N":{"ha":833,"x_min":49,"x_max":785,"o":"m 49 0 l 49 994 l 260 994 l 585 369 l 591 369 l 577 598 l 577 994 l 785 994 l 785 0 l 590 0 l 247 656 l 242 656 l 256 427 l 256 0 l 49 0 z "},"O":{"ha":833,"x_min":39,"x_max":794,"o":"m 417 -24 q 358 -24 417 -24 q 214 37 299 -24 q 84 211 129 97 q 39 482 39 324 l 39 513 q 84 784 39 671 q 214 958 129 897 q 417 1018 299 1018 q 619 958 535 1018 q 749 784 704 897 q 794 513 794 671 l 794 482 q 749 211 794 324 q 619 37 704 97 q 417 -24 535 -24 m 417 178 q 456 178 417 178 q 536 255 495 178 q 576 478 576 332 l 576 516 q 536 740 576 663 q 417 817 495 817 q 298 740 339 817 q 257 516 257 663 l 257 478 q 298 255 257 332 q 417 178 339 178 z "},"P":{"ha":833,"x_min":86,"x_max":764,"o":"m 86 0 l 86 994 l 408 994 q 599 955 519 994 q 721 840 678 915 q 764 663 764 766 l 764 647 q 721 470 764 544 q 599 355 678 395 q 408 315 519 315 l 209 315 l 209 508 l 404 508 q 510 544 472 508 q 549 644 549 581 l 549 666 q 510 765 549 729 q 404 801 472 801 l 299 801 l 299 0 l 86 0 z "},"Q":{"ha":833,"x_min":39,"x_max":840,"o":"m 416 11 q 218 68 303 11 q 86 230 133 124 q 39 482 39 335 l 39 513 q 84 784 39 671 q 214 958 129 897 q 417 1018 299 1018 q 619 958 535 1018 q 749 784 704 897 q 794 513 794 671 l 794 482 q 750 230 794 335 q 622 68 706 124 q 416 11 538 11 m 726 -292 q 598 -256 653 -292 q 485 -135 542 -221 q 435 -64 455 -87 q 401 -32 416 -40 q 367 -24 386 -24 q 305 -64 328 -24 q 269 -188 281 -104 l 59 -151 q 160 61 81 -12 q 358 134 238 134 q 489 103 435 134 q 594 7 543 72 q 667 -68 637 -48 q 733 -87 697 -87 q 795 -73 763 -87 l 840 -267 q 726 -292 784 -292 m 417 178 q 535 252 494 178 q 576 474 576 326 l 576 512 q 536 739 576 661 q 417 817 495 817 q 298 739 338 817 q 257 512 257 661 l 257 474 q 298 252 257 326 q 417 178 339 178 z "},"R":{"ha":833,"x_min":79,"x_max":810,"o":"m 79 0 l 79 994 l 402 994 q 590 957 511 994 q 710 848 668 919 q 753 679 753 777 l 753 669 q 710 501 753 572 q 590 392 668 430 q 402 353 511 353 l 202 353 l 202 534 l 397 534 q 500 567 463 534 q 538 659 538 600 l 538 676 q 500 768 538 735 q 397 801 463 801 l 292 801 l 292 0 l 79 0 m 569 0 l 327 433 l 561 433 l 810 0 l 569 0 z "},"S":{"ha":833,"x_min":38,"x_max":786,"o":"m 447 -24 q 259 13 343 -24 q 118 118 175 49 q 38 281 61 186 l 234 333 q 309 213 254 255 q 447 170 364 170 q 540 195 507 170 q 574 267 574 221 l 574 272 q 544 338 574 311 q 441 394 515 365 l 306 447 q 95 724 95 530 l 95 726 q 138 879 95 813 q 256 981 181 944 q 433 1018 332 1018 q 658 955 569 1018 q 783 770 747 892 l 588 715 q 433 824 556 824 q 341 800 375 824 q 308 735 308 776 l 308 731 q 332 675 308 698 q 415 628 356 652 l 550 575 q 729 453 672 526 q 786 271 786 381 l 786 265 q 744 114 786 178 q 625 13 701 49 q 447 -24 549 -24 z "},"T":{"ha":833,"x_min":54,"x_max":779,"o":"m 309 0 l 309 891 l 524 891 l 524 0 l 309 0 m 54 793 l 54 994 l 779 994 l 779 793 l 54 793 z "},"U":{"ha":833,"x_min":71,"x_max":763,"o":"m 417 -24 q 365 -24 417 -24 q 235 20 313 -24 q 114 142 157 64 q 71 324 71 220 l 71 994 l 285 994 l 285 329 q 320 219 285 260 q 417 178 355 178 q 514 219 479 178 q 549 329 549 260 l 549 994 l 763 994 l 763 324 q 719 142 763 220 q 599 20 676 64 q 417 -24 522 -24 z "},"V":{"ha":833,"x_min":11,"x_max":822,"o":"m 324 0 l 11 994 l 231 994 l 384 404 l 416 234 l 421 234 l 453 404 l 607 994 l 822 994 l 509 0 l 324 0 z "},"W":{"ha":833,"x_min":15,"x_max":818,"o":"m 142 0 l 15 994 l 212 994 l 263 316 l 267 316 l 299 510 l 357 799 l 476 799 l 535 510 l 566 316 l 570 316 l 615 994 l 818 994 l 691 0 l 519 0 l 446 361 l 419 533 l 415 533 l 388 361 l 315 0 l 142 0 z "},"X":{"ha":833,"x_min":13,"x_max":821,"o":"m 589 0 l 338 459 l 315 472 l 24 994 l 256 994 l 485 579 l 508 566 l 821 0 l 589 0 m 13 0 l 324 556 l 345 567 l 581 994 l 809 994 l 510 463 l 489 451 l 240 0 l 13 0 z "},"Y":{"ha":833,"x_min":17,"x_max":816,"o":"m 331 304 l 17 994 l 249 994 l 351 747 l 417 558 l 423 558 l 487 747 l 590 994 l 816 994 l 503 304 l 331 304 m 310 0 l 310 469 l 524 469 l 524 0 l 310 0 z "},"Z":{"ha":833,"x_min":72,"x_max":761,"o":"m 72 0 l 72 179 l 499 795 l 89 795 l 89 994 l 751 994 l 751 815 l 326 199 l 761 199 l 761 0 l 72 0 z "},"[":{"ha":833,"x_min":215,"x_max":735,"o":"m 735 1107 l 735 933 l 428 933 l 428 -3 l 735 -3 l 735 -177 l 215 -177 l 215 1107 l 735 1107 z "},"\\":{"ha":833,"x_min":72,"x_max":761,"o":"m 761 -122 l 555 -122 l 72 1014 l 278 1014 l 761 -122 z "},"]":{"ha":833,"x_min":99,"x_max":618,"o":"m 99 -183 l 99 -10 l 406 -10 l 406 927 l 99 927 l 99 1101 l 618 1101 l 618 -183 l 99 -183 z "},"^":{"ha":833,"x_min":24,"x_max":810,"o":"m 24 444 l 327 994 l 506 994 l 810 444 l 583 444 l 420 760 l 413 760 l 250 444 l 24 444 z "},"_":{"ha":833,"x_min":56,"x_max":778,"o":"m 56 -204 l 56 -24 l 778 -24 l 778 -204 l 56 -204 z "},"`":{"ha":833,"x_min":183,"x_max":599,"o":"m 408 613 l 183 1014 l 431 1014 l 599 613 l 408 613 z "},"a":{"ha":833,"x_min":80,"x_max":738,"o":"m 322 -24 q 195 6 250 -24 q 110 87 141 35 q 80 207 80 139 l 80 216 q 158 395 80 328 q 367 462 236 462 q 466 452 420 462 q 550 425 511 443 l 550 303 q 422 337 494 337 q 325 308 359 337 q 292 226 292 280 l 292 217 q 320 144 292 169 q 401 118 349 118 q 470 139 441 118 q 517 199 500 160 q 533 288 533 238 l 533 458 q 499 561 533 526 q 397 595 464 595 q 226 520 306 595 l 118 636 q 424 754 236 754 q 657 681 577 754 q 738 467 738 607 l 738 0 l 538 0 l 538 94 l 531 94 q 445 7 500 38 q 322 -24 391 -24 z "},"b":{"ha":833,"x_min":82,"x_max":769,"o":"m 501 -24 q 378 11 433 -24 q 291 108 324 46 l 285 108 l 285 0 l 82 0 l 82 1014 l 292 1014 l 292 629 l 298 629 q 386 723 335 691 q 505 754 438 754 q 644 707 585 754 q 736 573 703 659 q 769 371 769 487 l 769 360 q 736 159 769 245 q 642 24 702 72 q 501 -24 581 -24 m 426 150 q 525 204 490 150 q 560 357 560 258 l 560 374 q 525 527 560 474 q 425 581 490 581 q 324 524 362 581 q 285 370 285 467 l 285 360 q 324 207 285 264 q 426 150 362 150 z "},"c":{"ha":833,"x_min":87,"x_max":788,"o":"m 454 -24 q 260 24 343 -24 q 132 159 178 72 q 87 360 87 245 l 87 371 q 133 572 87 486 q 261 706 178 658 q 456 754 344 754 q 664 692 581 754 q 776 517 747 630 l 588 461 q 540 546 574 517 q 453 574 506 574 q 336 522 378 574 q 294 376 294 469 l 294 355 q 338 211 294 265 q 457 157 382 157 q 549 186 513 157 q 601 273 585 216 l 788 211 q 719 86 767 139 q 604 5 672 33 q 454 -24 536 -24 z "},"d":{"ha":833,"x_min":64,"x_max":751,"o":"m 347 -24 q 203 25 267 -24 q 101 159 139 73 q 64 360 64 246 l 64 371 q 100 573 64 487 q 199 707 136 659 q 342 754 262 754 q 456 723 408 754 q 535 630 503 691 l 542 630 l 542 1014 l 751 1014 l 751 0 l 549 0 l 549 108 l 542 108 q 461 11 513 47 q 347 -24 410 -24 m 412 150 q 511 206 474 150 q 548 360 548 263 l 548 370 q 511 524 548 467 q 412 581 474 581 q 310 527 347 581 q 274 374 274 473 l 274 357 q 310 204 274 258 q 412 150 347 150 z "},"e":{"ha":833,"x_min":61,"x_max":765,"o":"m 438 -24 q 239 24 324 -24 q 108 157 154 71 q 61 358 61 242 l 61 373 q 108 573 61 488 q 239 707 155 659 q 434 754 323 754 q 608 713 534 754 q 724 595 683 671 q 765 417 765 519 q 763 361 765 387 q 756 316 761 336 l 170 316 l 170 438 l 574 438 l 574 434 q 537 547 574 506 q 435 588 500 588 q 308 530 355 588 q 261 370 261 472 l 261 360 q 309 203 261 261 q 438 146 356 146 q 582 244 539 146 l 760 170 q 635 27 719 77 q 438 -24 552 -24 z "},"f":{"ha":833,"x_min":75,"x_max":794,"o":"m 249 0 l 249 769 q 326 967 249 896 q 542 1038 403 1038 q 681 1017 622 1038 q 794 955 740 997 l 690 814 q 627 852 658 840 q 558 864 597 864 q 479 838 506 864 q 451 758 451 811 l 451 663 l 460 613 l 460 0 l 249 0 m 75 542 l 75 700 l 759 700 l 759 542 l 75 542 z "},"g":{"ha":833,"x_min":28,"x_max":813,"o":"m 416 -397 q 213 -365 300 -397 q 76 -275 125 -333 q 28 -141 28 -217 q 78 -6 28 -62 q 219 70 128 50 l 251 -15 q 222 -58 231 -35 q 213 -110 213 -82 q 266 -206 213 -172 q 417 -239 319 -239 q 570 -208 514 -239 q 626 -124 626 -177 q 532 -51 626 -51 l 165 -51 l 165 17 l 313 249 l 423 235 l 379 106 l 571 106 q 749 50 685 106 q 813 -106 813 -6 q 764 -261 813 -196 q 627 -362 716 -326 q 416 -397 538 -397 m 423 190 q 255 227 330 190 q 137 327 181 264 q 94 470 94 391 l 94 474 q 134 620 94 557 q 246 719 174 683 q 411 754 317 754 q 580 717 505 754 q 698 617 654 681 q 741 474 741 554 l 741 470 q 701 324 741 388 q 589 226 660 261 q 423 190 517 190 m 417 351 q 518 383 481 351 q 554 468 554 414 l 554 474 q 518 559 554 528 q 417 590 481 590 q 317 559 353 590 q 280 474 280 528 l 280 468 q 317 383 280 414 q 417 351 353 351 m 583 647 l 515 688 q 608 842 538 790 q 792 894 678 894 l 792 720 q 583 647 649 720 z "},"h":{"ha":833,"x_min":96,"x_max":754,"o":"m 96 0 l 96 1014 l 306 1014 l 306 634 l 312 634 q 536 754 397 754 q 696 686 638 754 q 754 500 754 618 l 754 0 l 544 0 l 544 454 q 439 579 544 579 q 342 537 379 579 q 306 427 306 495 l 306 0 l 96 0 z "},"i":{"ha":833,"x_min":116,"x_max":774,"o":"m 351 56 l 351 731 l 556 731 l 556 56 l 351 56 m 116 0 l 116 156 l 774 156 l 774 0 l 116 0 m 130 574 l 130 731 l 528 731 l 528 574 l 130 574 m 432 865 q 335 905 375 865 q 294 1000 294 944 q 335 1096 294 1058 q 432 1134 375 1134 q 530 1096 491 1134 q 568 1000 568 1058 q 530 905 568 944 q 432 865 491 865 z "},"j":{"ha":833,"x_min":50,"x_max":633,"o":"m 306 -312 q 50 -228 166 -312 l 151 -72 q 224 -113 189 -99 q 296 -127 258 -127 q 381 -94 351 -127 q 411 1 411 -60 l 411 731 l 621 731 l 621 8 q 537 -226 621 -141 q 306 -312 453 -312 m 141 575 l 141 731 l 568 731 l 568 575 l 141 575 m 497 865 q 400 905 440 865 q 360 1000 360 944 q 399 1096 360 1058 q 497 1134 439 1134 q 595 1096 557 1134 q 633 1000 633 1058 q 594 904 633 943 q 497 865 556 865 z "},"k":{"ha":833,"x_min":78,"x_max":793,"o":"m 554 0 l 278 391 l 278 397 l 543 731 l 783 731 l 478 356 l 478 435 l 793 0 l 554 0 m 78 0 l 78 1014 l 288 1014 l 288 0 l 78 0 z "},"l":{"ha":833,"x_min":50,"x_max":786,"o":"m 550 -24 q 331 55 410 -24 q 252 271 252 133 l 252 1014 l 463 1014 l 463 286 q 570 164 463 164 q 624 175 599 164 q 676 212 649 186 l 786 64 q 680 -2 736 19 q 550 -24 623 -24 m 50 851 l 50 1014 l 410 1014 l 410 851 l 50 851 z "},"m":{"ha":833,"x_min":35,"x_max":800,"o":"m 35 0 l 35 731 l 211 731 l 211 632 l 217 632 q 277 723 242 692 q 366 754 313 754 q 459 711 424 754 q 499 588 494 667 l 485 588 q 550 711 508 669 q 652 754 593 754 q 800 522 800 754 l 800 0 l 613 0 l 613 498 q 603 560 613 541 q 571 578 592 578 q 527 552 543 578 q 511 476 511 526 l 511 0 l 324 0 l 324 496 q 314 559 324 540 q 282 578 303 578 q 238 552 253 578 q 222 476 222 526 l 222 0 l 35 0 z "},"n":{"ha":833,"x_min":96,"x_max":754,"o":"m 96 0 l 96 731 l 295 731 l 295 619 l 301 619 q 402 719 342 684 q 536 754 462 754 q 696 685 638 754 q 754 500 754 617 l 754 0 l 544 0 l 544 454 q 518 547 544 514 q 439 579 492 579 q 342 537 379 579 q 306 427 306 495 l 306 0 l 96 0 z "},"o":{"ha":833,"x_min":54,"x_max":779,"o":"m 417 -24 q 364 -24 417 -24 q 228 25 310 -24 q 100 160 147 74 q 54 358 54 247 l 54 373 q 100 570 54 484 q 228 705 147 656 q 417 754 310 754 q 605 705 523 754 q 733 570 686 656 q 779 373 779 484 l 779 358 q 733 160 779 247 q 605 25 686 74 q 417 -24 523 -24 m 417 161 q 452 161 417 161 q 529 215 487 161 q 571 360 571 269 l 571 370 q 529 515 571 461 q 417 569 487 569 q 305 515 347 569 q 263 370 263 461 l 263 360 q 305 215 263 269 q 417 161 347 161 z "},"p":{"ha":833,"x_min":82,"x_max":769,"o":"m 501 754 q 642 706 581 754 q 736 572 702 658 q 769 371 769 486 l 769 360 q 736 158 769 244 q 644 24 703 72 q 505 -24 585 -24 q 386 8 438 -24 q 298 101 335 40 l 292 101 l 292 -283 l 82 -283 l 82 731 l 285 731 l 285 622 l 291 622 q 378 719 324 685 q 501 754 433 754 m 426 581 q 324 524 362 581 q 285 370 285 467 l 285 360 q 324 207 285 264 q 425 150 362 150 q 525 204 490 150 q 560 356 560 258 l 560 374 q 525 527 560 473 q 426 581 490 581 z "},"q":{"ha":833,"x_min":64,"x_max":751,"o":"m 347 754 q 461 719 410 754 q 542 622 513 684 l 549 622 l 549 731 l 751 731 l 751 -283 l 542 -283 l 542 101 l 535 101 q 456 8 503 40 q 342 -24 408 -24 q 199 24 262 -24 q 100 158 136 72 q 64 360 64 244 l 64 370 q 101 572 64 485 q 203 706 139 658 q 347 754 267 754 m 412 581 q 310 527 347 581 q 274 374 274 473 l 274 357 q 310 204 274 258 q 412 150 347 150 q 511 207 474 150 q 548 360 548 263 l 548 370 q 511 524 548 468 q 412 581 474 581 z "},"r":{"ha":833,"x_min":58,"x_max":813,"o":"m 206 76 l 206 731 l 382 731 l 382 564 l 392 564 q 485 705 424 656 q 626 754 545 754 q 725 732 682 754 q 813 659 768 710 l 685 507 q 625 555 653 541 q 560 568 597 568 q 448 519 487 568 q 410 375 410 469 l 410 76 l 206 76 m 58 0 l 58 157 l 646 157 l 646 0 l 58 0 m 72 574 l 72 731 l 299 731 l 299 574 l 72 574 z "},"s":{"ha":833,"x_min":101,"x_max":731,"o":"m 448 -23 q 223 32 313 -23 q 101 192 134 88 l 277 250 q 338 172 293 199 q 445 144 382 144 q 514 159 490 144 q 539 202 539 174 l 539 205 q 518 245 539 231 q 434 277 497 260 l 329 307 q 189 387 238 333 q 140 521 140 441 l 140 522 q 219 691 140 628 q 431 754 298 754 q 624 708 549 754 q 728 573 699 662 l 552 514 q 420 590 526 590 q 355 576 378 590 q 331 535 331 562 l 331 535 q 350 498 331 512 q 417 470 368 484 l 522 441 q 681 355 631 411 q 731 207 731 298 l 731 204 q 654 39 731 101 q 448 -23 576 -23 z "},"t":{"ha":833,"x_min":67,"x_max":776,"o":"m 543 -24 q 318 57 397 -24 q 239 287 239 138 l 239 921 l 449 921 l 449 301 q 477 198 449 232 q 563 164 506 164 q 676 213 623 164 l 776 58 q 543 -24 681 -24 m 67 572 l 67 731 l 733 731 l 733 572 l 67 572 z "},"u":{"ha":833,"x_min":97,"x_max":731,"o":"m 313 -24 q 154 43 212 -24 q 97 226 97 110 l 97 731 l 306 731 l 306 274 q 333 184 306 215 q 408 152 360 152 q 491 193 460 152 q 522 304 522 234 l 522 731 l 731 731 l 731 0 l 532 0 l 532 111 l 525 111 q 439 14 492 52 q 313 -24 385 -24 z "},"v":{"ha":833,"x_min":42,"x_max":792,"o":"m 310 0 l 42 731 l 264 731 l 372 399 l 417 207 l 424 207 l 469 399 l 572 731 l 792 731 l 524 0 l 310 0 z "},"w":{"ha":833,"x_min":2,"x_max":831,"o":"m 155 0 l 2 731 l 187 731 l 251 315 l 261 234 l 266 234 l 277 316 l 337 647 l 507 647 l 567 317 l 577 234 l 582 234 l 592 317 l 658 731 l 831 731 l 678 0 l 493 0 l 429 351 l 419 432 l 414 432 l 403 351 l 340 0 l 155 0 z "},"x":{"ha":833,"x_min":47,"x_max":786,"o":"m 561 0 l 349 330 l 317 342 l 57 731 l 283 731 l 468 444 l 499 431 l 786 0 l 561 0 m 47 0 l 331 417 l 358 424 l 561 731 l 776 731 l 501 327 l 474 319 l 263 0 l 47 0 z "},"y":{"ha":833,"x_min":14,"x_max":810,"o":"m 226 -312 q 14 -238 102 -312 l 115 -83 q 220 -127 169 -127 q 281 -109 258 -127 q 319 -50 304 -92 l 387 134 l 426 134 l 490 399 l 593 731 l 810 731 l 506 -85 q 395 -259 462 -206 q 226 -312 329 -312 m 355 -60 l 60 731 l 278 731 l 386 399 l 435 207 l 497 207 l 355 -60 z "},"z":{"ha":833,"x_min":106,"x_max":727,"o":"m 106 0 l 106 165 l 481 557 l 121 557 l 121 731 l 720 731 l 720 565 l 346 174 l 727 174 l 727 0 l 106 0 z "},"{":{"ha":833,"x_min":50,"x_max":747,"o":"m 553 1154 q 651 1150 603 1154 q 747 1138 699 1146 l 747 962 q 681 972 715 969 q 611 975 647 975 q 527 959 554 975 q 499 910 499 943 q 511 871 499 891 q 553 814 522 851 l 566 799 q 618 724 603 757 q 633 655 633 691 q 588 558 633 594 q 459 515 543 522 l 224 495 l 224 429 l 459 410 q 588 366 543 403 q 633 269 633 330 q 618 200 633 233 q 566 125 603 167 l 553 110 q 511 54 522 74 q 499 14 499 33 q 527 -35 499 -19 q 611 -51 554 -51 q 681 -48 647 -51 q 747 -37 715 -44 l 747 -213 q 651 -226 699 -222 q 553 -230 603 -230 q 345 -183 417 -230 q 274 -49 274 -137 q 290 27 274 -8 q 344 105 306 63 l 360 124 q 397 173 387 153 q 408 213 408 192 q 320 278 408 268 l 50 312 l 50 613 l 320 646 q 408 712 408 656 q 397 751 408 732 q 360 801 387 771 l 344 819 q 290 897 306 862 q 274 973 274 933 q 345 1108 274 1061 q 553 1154 417 1154 z "},"|":{"ha":833,"x_min":310,"x_max":524,"o":"m 310 -240 l 310 1235 l 524 1235 l 524 -240 l 310 -240 z "},"¦":{"ha":833,"x_min":310,"x_max":524,"o":"m 310 644 l 310 1235 l 524 1235 l 524 644 l 310 644 m 310 -240 l 310 350 l 524 350 l 524 -240 l 310 -240 z "},"}":{"ha":833,"x_min":86,"x_max":783,"o":"m 280 -231 q 182 -226 230 -231 q 86 -214 135 -222 l 86 -38 q 152 -48 119 -45 q 222 -51 186 -51 q 307 -35 279 -51 q 334 13 334 -19 q 323 53 334 33 q 280 110 311 74 l 267 124 q 216 200 231 167 q 200 269 200 233 q 245 366 200 329 q 374 409 290 402 l 610 428 l 610 494 l 374 514 q 245 557 290 521 q 200 654 200 594 q 216 723 200 690 q 267 799 231 756 l 280 813 q 323 870 311 850 q 334 910 334 890 q 307 958 334 942 q 222 974 279 974 q 152 971 186 974 q 86 961 119 968 l 86 1137 q 182 1149 135 1145 q 280 1153 230 1153 q 488 1107 416 1153 q 560 972 560 1060 q 544 897 560 932 q 490 819 528 861 l 473 800 q 436 751 447 770 q 426 711 426 731 q 513 645 426 656 l 783 612 l 783 311 l 513 278 q 426 212 426 267 q 436 172 426 192 q 473 123 447 153 l 490 104 q 544 27 528 62 q 560 -49 560 -8 q 488 -184 560 -137 q 280 -231 416 -231 z "},"~":{"ha":833,"x_min":49,"x_max":785,"o":"m 586 383 q 494 402 537 383 q 396 471 451 422 q 342 511 362 501 q 301 522 322 522 q 244 449 244 522 l 244 386 l 49 386 l 49 462 q 101 651 49 586 q 253 715 153 715 q 343 695 302 715 q 438 628 385 675 q 492 587 472 598 q 533 576 513 576 q 589 650 589 576 l 589 712 l 785 712 l 785 637 q 734 448 785 513 q 586 383 683 383 z "},"\"":{"ha":833,"x_min":137,"x_max":697,"o":"m 137 624 l 137 1014 l 366 1014 l 366 624 l 137 624 m 467 624 l 467 1014 l 697 1014 l 697 624 l 467 624 z "},"©":{"ha":833,"x_min":6,"x_max":828,"o":"m 417 -24 q 354 -24 417 -24 q 199 35 292 -24 q 56 200 107 93 q 6 451 6 307 l 6 543 q 56 795 6 688 q 199 960 107 901 q 417 1018 292 1018 q 634 960 542 1018 q 777 795 726 901 q 828 543 828 688 l 828 451 q 777 200 828 307 q 634 35 726 93 q 417 -24 542 -24 m 417 39 q 497 39 417 39 q 668 148 577 39 q 758 451 758 258 l 758 544 q 668 846 758 737 q 417 956 577 956 q 166 846 256 956 q 75 544 75 737 l 75 451 q 166 148 75 258 q 417 39 256 39 m 429 202 q 257 277 320 202 q 194 481 194 352 l 194 520 q 257 723 194 649 q 429 798 320 798 q 579 742 522 798 q 646 585 636 686 l 532 576 q 427 690 522 690 q 337 647 368 690 q 306 522 306 603 l 306 478 q 337 353 306 397 q 427 310 368 310 q 532 424 522 310 l 646 415 q 579 258 636 315 q 429 202 522 202 z "},"®":{"ha":833,"x_min":6,"x_max":828,"o":"m 417 -21 q 354 -21 417 -21 q 199 38 292 -21 q 56 203 107 96 q 6 454 6 310 l 6 543 q 56 795 6 688 q 199 960 107 901 q 417 1018 292 1018 q 634 960 542 1018 q 777 795 726 901 q 828 543 828 688 l 828 454 q 777 203 828 310 q 634 38 726 96 q 417 -21 542 -21 m 519 204 l 381 463 l 506 463 l 649 210 l 649 204 l 519 204 m 417 42 q 497 42 417 42 q 668 151 577 42 q 758 453 758 260 l 758 544 q 668 846 758 737 q 417 956 577 956 q 166 846 256 956 q 75 544 75 737 l 75 453 q 166 151 75 260 q 417 42 256 42 m 226 204 l 226 796 l 421 796 q 573 747 517 796 q 628 610 628 697 l 628 604 q 572 468 628 518 q 420 417 517 417 l 296 417 l 296 517 l 418 517 q 489 539 464 517 q 514 597 514 560 l 514 609 q 489 667 514 647 q 418 688 464 688 l 340 688 l 340 204 l 226 204 z "},"™":{"ha":833,"x_min":8,"x_max":825,"o":"m 404 424 l 404 1013 l 504 1013 l 585 781 l 611 678 l 618 678 l 644 781 l 725 1013 l 825 1013 l 825 424 l 731 424 l 731 639 l 746 822 l 739 822 l 654 558 l 575 558 l 490 822 l 483 822 l 499 639 l 499 424 l 404 424 m 131 424 l 131 988 l 238 988 l 238 424 l 131 424 m 8 919 l 8 1013 l 361 1013 l 361 919 l 8 919 z "},"−":{"ha":833,"x_min":86,"x_max":747,"o":"m 86 347 l 86 544 l 747 544 l 747 347 l 86 347 z "},"±":{"ha":833,"x_min":74,"x_max":760,"o":"m 75 0 l 75 192 l 758 192 l 758 0 l 75 0 m 74 472 l 74 663 l 760 663 l 760 472 l 74 472 m 315 261 l 315 874 l 518 874 l 518 261 l 315 261 z "},"×":{"ha":833,"x_min":81,"x_max":753,"o":"m 219 108 l 81 247 l 615 781 l 753 642 l 219 108 m 615 108 l 81 642 l 219 781 l 753 247 l 615 108 z "},"÷":{"ha":833,"x_min":86,"x_max":747,"o":"m 86 347 l 86 544 l 747 544 l 747 347 l 86 347 m 417 611 q 390 611 417 611 q 328 647 364 611 q 292 736 292 683 q 328 825 292 789 q 417 861 364 861 q 506 825 470 861 q 542 736 542 790 q 506 647 542 683 q 417 611 470 611 m 417 30 q 390 30 417 30 q 328 66 364 30 q 292 155 292 102 q 328 244 292 208 q 417 280 364 280 q 506 244 470 280 q 542 155 542 208 q 506 66 542 102 q 417 30 470 30 z "},"∕":{"ha":833,"x_min":13,"x_max":821,"o":"m 13 -24 l 601 1014 l 821 1014 l 232 -24 l 13 -24 z "},"⁄":{"ha":833,"x_min":58,"x_max":776,"o":"m 58 -24 l 656 1014 l 776 1014 l 178 -24 l 58 -24 z "},"‘":{"ha":833,"x_min":269,"x_max":608,"o":"m 491 1038 l 608 954 l 415 706 l 419 770 q 480 759 449 773 q 532 716 511 744 q 552 645 552 688 q 514 549 552 588 q 413 509 476 509 q 307 552 344 509 q 269 656 269 595 q 287 741 269 701 q 340 831 304 781 l 491 1038 z "},"’":{"ha":833,"x_min":226,"x_max":564,"o":"m 342 509 l 226 592 l 419 841 l 415 776 q 353 788 384 774 q 302 831 322 802 q 281 901 281 860 q 319 998 281 959 q 420 1038 357 1038 q 526 995 489 1038 q 564 890 564 952 q 547 805 564 845 q 493 715 530 765 l 342 509 z "},"“":{"ha":833,"x_min":67,"x_max":749,"o":"m 288 1038 l 405 954 l 212 706 l 216 770 q 277 759 247 773 q 329 716 308 744 q 349 645 349 688 q 311 549 349 588 q 210 509 274 509 q 104 552 142 509 q 67 656 67 595 q 84 741 67 701 q 138 831 101 781 l 288 1038 m 632 1038 l 749 954 l 556 706 l 560 770 q 621 759 590 773 q 673 716 652 744 q 693 645 693 688 q 655 549 693 588 q 554 509 617 509 q 448 552 485 509 q 410 656 410 595 q 428 741 410 701 q 481 831 445 781 l 632 1038 z "},"”":{"ha":833,"x_min":85,"x_max":767,"o":"m 201 509 l 85 592 l 278 841 l 274 776 q 212 788 243 774 q 161 831 181 802 q 140 901 140 860 q 178 998 140 959 q 279 1038 216 1038 q 385 995 348 1038 q 423 890 423 952 q 406 805 423 845 q 352 715 389 765 l 201 509 m 545 509 l 428 592 l 622 841 l 617 776 q 556 788 587 774 q 505 831 525 802 q 484 901 484 860 q 522 998 484 959 q 623 1038 560 1038 q 729 995 692 1038 q 767 890 767 952 q 750 805 767 845 q 696 715 733 765 l 545 509 z "},"→":{"ha":833,"x_min":53,"x_max":808,"o":"m 424 26 l 298 144 l 584 431 l 584 459 l 298 747 l 424 865 l 808 445 l 424 26 m 53 350 l 53 541 l 378 541 l 675 508 l 675 382 l 378 350 l 53 350 z "},"←":{"ha":833,"x_min":53,"x_max":808,"o":"m 438 26 l 53 445 l 438 865 l 563 747 l 277 459 l 277 431 l 563 144 l 438 26 m 483 350 l 186 382 l 186 508 l 483 541 l 808 541 l 808 350 l 483 350 z "},"↑":{"ha":833,"x_min":19,"x_max":814,"o":"m 138 406 l 19 531 l 417 894 l 814 531 l 695 406 l 431 669 l 403 669 l 138 406 m 317 -24 l 317 463 l 353 760 l 480 760 l 516 463 l 516 -24 l 317 -24 z "},"↓":{"ha":833,"x_min":19,"x_max":814,"o":"m 417 -24 l 19 340 l 138 464 l 403 200 l 431 200 l 695 464 l 814 340 l 417 -24 m 353 109 l 317 406 l 317 894 l 516 894 l 516 406 l 480 109 l 353 109 z "},"⇒":{"ha":833,"x_min":17,"x_max":825,"o":"m 393 -25 l 290 76 l 599 388 l 599 503 l 290 815 l 393 915 l 825 445 l 393 -25 m 17 236 l 17 378 l 644 378 l 644 303 l 328 236 l 17 236 m 17 512 l 17 654 l 328 654 l 644 588 l 644 512 l 17 512 z "},"∷":{"ha":833,"x_min":94,"x_max":739,"o":"m 610 549 q 518 587 555 549 q 481 681 481 624 q 518 774 481 736 q 610 811 555 811 q 702 774 665 811 q 739 681 739 736 q 702 587 739 624 q 610 549 665 549 m 224 80 q 132 117 169 80 q 94 210 94 154 q 132 304 94 267 q 224 342 169 342 q 316 304 279 342 q 353 210 353 267 q 316 117 353 154 q 224 80 279 80 m 610 80 q 582 80 610 80 q 518 117 555 80 q 481 210 481 154 q 518 304 481 267 q 610 342 555 342 q 702 304 665 342 q 739 210 739 267 q 702 117 739 154 q 610 80 665 80 m 224 549 q 196 549 224 549 q 132 587 169 549 q 94 681 94 625 q 132 774 94 736 q 224 811 169 811 q 316 774 279 811 q 353 681 353 736 q 316 587 353 625 q 224 549 279 549 z "},"≤":{"ha":833,"x_min":75,"x_max":758,"o":"m 758 215 l 75 448 l 75 642 l 758 874 l 758 673 l 462 585 l 293 547 l 293 542 l 462 504 l 758 416 l 758 215 m 75 0 l 75 178 l 758 178 l 758 0 l 75 0 z "},"≥":{"ha":833,"x_min":75,"x_max":758,"o":"m 75 215 l 75 416 l 372 504 l 540 542 l 540 547 l 372 585 l 75 673 l 75 874 l 758 642 l 758 448 l 75 215 m 758 0 l 75 0 l 75 178 l 758 178 l 758 0 z "},"…":{"ha":833,"x_min":46,"x_max":788,"o":"m 139 -24 q 73 6 99 -24 q 46 79 46 35 q 72 151 46 122 q 139 180 99 180 q 206 151 179 180 q 232 79 232 122 q 205 6 232 35 q 139 -24 178 -24 m 694 -24 q 628 6 655 -24 q 601 79 601 35 q 628 151 601 122 q 694 180 654 180 q 761 151 735 180 q 788 79 788 122 q 761 6 788 35 q 694 -24 735 -24 m 417 -24 q 350 6 377 -24 q 324 79 324 35 q 350 151 324 122 q 417 180 377 180 q 483 151 457 180 q 510 79 510 122 q 483 6 510 35 q 417 -24 456 -24 z "},"■":{"ha":833,"x_min":76,"x_max":757,"o":"m 76 157 l 76 838 l 757 838 l 757 157 l 76 157 z "},"□":{"ha":833,"x_min":54,"x_max":779,"o":"m 54 135 l 54 860 l 779 860 l 779 135 l 54 135 m 178 255 l 656 255 l 656 740 l 178 740 l 178 255 z "},"▪":{"ha":833,"x_min":221,"x_max":613,"o":"m 221 210 l 221 601 l 613 601 l 613 210 l 221 210 z "},"▫":{"ha":833,"x_min":172,"x_max":662,"o":"m 172 160 l 172 651 l 662 651 l 662 160 l 172 160 m 274 262 l 558 262 l 558 549 l 274 549 l 274 262 z "},"▬":{"ha":833,"x_min":36,"x_max":797,"o":"m 36 256 l 36 478 l 797 478 l 797 256 l 36 256 z "},"▲":{"ha":833,"x_min":63,"x_max":771,"o":"m 63 132 l 417 896 l 771 132 l 63 132 z "},"►":{"ha":833,"x_min":49,"x_max":813,"o":"m 49 143 l 49 851 l 813 497 l 49 143 z "},"▼":{"ha":833,"x_min":63,"x_max":771,"o":"m 417 115 l 63 879 l 771 879 l 417 115 z "},"◄":{"ha":833,"x_min":21,"x_max":785,"o":"m 785 143 l 21 497 l 785 851 l 785 143 z "},"◆":{"ha":833,"x_min":47,"x_max":786,"o":"m 417 128 l 47 497 l 417 867 l 786 497 l 417 128 z "},"◉":{"ha":833,"x_min":18,"x_max":815,"o":"m 417 99 q 213 151 303 99 q 70 293 122 203 q 18 497 18 383 q 70 702 18 612 q 213 844 122 792 q 417 896 303 896 q 622 844 531 896 q 764 702 712 792 q 815 497 815 612 q 764 293 815 383 q 622 151 712 203 q 417 99 531 99 m 417 213 q 457 213 417 213 q 561 250 497 213 q 662 351 625 287 q 699 498 699 416 q 662 643 699 579 q 561 745 625 708 q 417 782 497 782 q 272 745 336 782 q 172 643 208 708 q 135 498 135 579 q 172 351 135 416 q 272 250 208 287 q 417 213 336 213 m 417 303 q 390 303 417 303 q 320 328 363 303 q 252 397 277 353 q 228 497 228 441 q 252 598 228 553 q 320 667 277 642 q 417 692 363 692 q 514 667 472 692 q 581 598 556 642 q 606 497 606 553 q 581 397 606 441 q 514 328 556 353 q 417 303 472 303 z "},"◊":{"ha":833,"x_min":50,"x_max":783,"o":"m 341 -24 l 50 497 l 341 1018 l 493 1018 l 783 497 l 493 -24 l 341 -24 m 417 187 l 617 557 l 617 438 l 417 808 l 217 438 l 217 557 l 417 187 z "},"○":{"ha":833,"x_min":18,"x_max":815,"o":"m 417 99 q 360 99 417 99 q 213 151 303 99 q 70 293 122 203 q 18 498 18 383 q 70 702 18 612 q 213 844 122 792 q 417 896 303 896 q 622 844 531 896 q 764 702 712 792 q 815 497 815 612 q 763 293 815 383 q 621 151 711 203 q 417 99 531 99 m 417 222 q 456 222 417 222 q 557 258 496 222 q 654 355 619 293 q 690 498 690 417 q 654 640 690 578 q 557 738 619 702 q 417 773 496 773 q 276 738 338 773 q 180 640 215 702 q 144 498 144 578 q 180 355 144 417 q 276 258 215 293 q 417 222 338 222 z "},"●":{"ha":833,"x_min":61,"x_max":772,"o":"m 417 139 q 366 139 417 139 q 235 186 316 139 q 108 315 155 233 q 61 497 61 396 q 108 680 61 599 q 235 808 155 761 q 417 856 316 856 q 598 808 517 856 q 725 680 678 761 q 772 497 772 599 q 725 315 772 396 q 598 186 678 233 q 417 139 517 139 z "},"◙":{"ha":833,"x_min":19,"x_max":815,"o":"m 19 99 l 19 895 l 815 895 l 815 99 l 19 99 m 417 115 q 611 165 525 115 q 749 303 698 216 q 799 497 799 390 q 749 692 799 606 q 611 830 698 779 q 417 880 525 880 q 222 829 309 880 q 85 692 135 778 q 34 498 34 606 q 85 303 34 390 q 222 165 135 216 q 417 115 309 115 m 417 233 q 380 233 417 233 q 283 267 342 233 q 189 362 224 302 q 155 498 155 422 q 189 633 155 573 q 283 727 224 692 q 417 762 342 762 q 550 727 491 762 q 644 633 610 692 q 678 498 678 573 q 644 362 678 422 q 550 267 610 302 q 417 233 491 233 z "},"─":{"ha":833,"x_min":-104,"x_max":938,"o":"m -104 343 l -104 551 l 938 551 l 938 343 l -104 343 z "},"━":{"ha":833,"x_min":-104,"x_max":938,"o":"m -104 260 l -104 635 l 938 635 l 938 260 l -104 260 z "},"│":{"ha":833,"x_min":313,"x_max":521,"o":"m 313 -456 l 313 1350 l 521 1350 l 521 -456 l 313 -456 z "},"┃":{"ha":833,"x_min":229,"x_max":604,"o":"m 229 -456 l 229 1350 l 604 1350 l 604 -456 l 229 -456 z "},"┄":{"ha":833,"x_min":47,"x_max":787,"o":"m 602 343 l 602 551 l 787 551 l 787 343 l 602 343 m 47 343 l 47 551 l 231 551 l 231 343 l 47 343 m 324 343 l 324 551 l 509 551 l 509 343 l 324 343 z "},"┅":{"ha":833,"x_min":47,"x_max":787,"o":"m 602 260 l 602 635 l 787 635 l 787 260 l 602 260 m 47 260 l 47 635 l 231 635 l 231 260 l 47 260 m 324 260 l 324 635 l 509 635 l 509 260 l 324 260 z "},"┆":{"ha":833,"x_min":313,"x_max":521,"o":"m 313 254 l 313 640 l 521 640 l 521 254 l 313 254 m 313 -324 l 313 61 l 521 61 l 521 -324 l 313 -324 m 313 833 l 313 1219 l 521 1219 l 521 833 l 313 833 z "},"┇":{"ha":833,"x_min":229,"x_max":604,"o":"m 229 254 l 229 640 l 604 640 l 604 254 l 229 254 m 229 -324 l 229 61 l 604 61 l 604 -324 l 229 -324 m 229 833 l 229 1219 l 604 1219 l 604 833 l 229 833 z "},"┈":{"ha":833,"x_min":26,"x_max":808,"o":"m 651 343 l 651 551 l 808 551 l 808 343 l 651 343 m 26 343 l 26 551 l 183 551 l 183 343 l 26 343 m 235 343 l 235 551 l 391 551 l 391 343 l 235 343 m 443 343 l 443 551 l 599 551 l 599 343 l 443 343 z "},"┉":{"ha":833,"x_min":26,"x_max":808,"o":"m 651 260 l 651 635 l 808 635 l 808 260 l 651 260 m 26 260 l 26 635 l 183 635 l 183 260 l 26 260 m 235 260 l 235 635 l 391 635 l 391 260 l 235 260 m 443 260 l 443 635 l 599 635 l 599 260 l 443 260 z "},"┊":{"ha":833,"x_min":313,"x_max":521,"o":"m 313 935 l 313 1261 l 521 1261 l 521 935 l 313 935 m 313 -367 l 313 -41 l 521 -41 l 521 -367 l 313 -367 m 313 67 l 313 393 l 521 393 l 521 67 l 313 67 m 313 501 l 313 827 l 521 827 l 521 501 l 313 501 z "},"┋":{"ha":833,"x_min":229,"x_max":604,"o":"m 229 935 l 229 1261 l 604 1261 l 604 935 l 229 935 m 229 -367 l 229 -41 l 604 -41 l 604 -367 l 229 -367 m 229 67 l 229 393 l 604 393 l 604 67 l 229 67 m 229 501 l 229 827 l 604 827 l 604 501 l 229 501 z "},"┌":{"ha":833,"x_min":313,"x_max":938,"o":"m 313 -456 l 313 551 l 938 551 l 938 343 l 521 343 l 521 -456 l 313 -456 z "},"┍":{"ha":833,"x_min":313,"x_max":938,"o":"m 313 -456 l 313 635 l 938 635 l 938 260 l 521 260 l 521 -456 l 313 -456 z "},"┎":{"ha":833,"x_min":229,"x_max":938,"o":"m 229 -456 l 229 551 l 938 551 l 938 343 l 604 343 l 604 -456 l 229 -456 z "},"┏":{"ha":833,"x_min":229,"x_max":938,"o":"m 229 -456 l 229 635 l 938 635 l 938 260 l 604 260 l 604 -456 l 229 -456 z "},"┐":{"ha":833,"x_min":-104,"x_max":521,"o":"m 313 -456 l 313 343 l -104 343 l -104 551 l 521 551 l 521 -456 l 313 -456 z "},"┑":{"ha":833,"x_min":-104,"x_max":521,"o":"m 313 -456 l 313 260 l -104 260 l -104 635 l 521 635 l 521 -456 l 313 -456 z "},"┒":{"ha":833,"x_min":-104,"x_max":604,"o":"m 229 -456 l 229 343 l -104 343 l -104 551 l 604 551 l 604 -456 l 229 -456 z "},"┓":{"ha":833,"x_min":-104,"x_max":604,"o":"m 229 -456 l 229 260 l -104 260 l -104 635 l 604 635 l 604 -456 l 229 -456 z "},"└":{"ha":833,"x_min":313,"x_max":938,"o":"m 313 343 l 313 1350 l 521 1350 l 521 551 l 938 551 l 938 343 l 313 343 z "},"┕":{"ha":833,"x_min":313,"x_max":938,"o":"m 313 260 l 313 1350 l 521 1350 l 521 635 l 938 635 l 938 260 l 313 260 z "},"┖":{"ha":833,"x_min":229,"x_max":938,"o":"m 229 343 l 229 1350 l 604 1350 l 604 551 l 938 551 l 938 343 l 229 343 z "},"┗":{"ha":833,"x_min":229,"x_max":938,"o":"m 229 260 l 229 1350 l 604 1350 l 604 635 l 938 635 l 938 260 l 229 260 z "},"┘":{"ha":833,"x_min":-104,"x_max":521,"o":"m -104 343 l -104 551 l 313 551 l 313 1350 l 521 1350 l 521 343 l -104 343 z "},"┙":{"ha":833,"x_min":-104,"x_max":521,"o":"m -104 260 l -104 635 l 313 635 l 313 1350 l 521 1350 l 521 260 l -104 260 z "},"┚":{"ha":833,"x_min":-104,"x_max":604,"o":"m -104 343 l -104 551 l 229 551 l 229 1350 l 604 1350 l 604 343 l -104 343 z "},"┛":{"ha":833,"x_min":-104,"x_max":604,"o":"m -104 260 l -104 635 l 229 635 l 229 1350 l 604 1350 l 604 260 l -104 260 z "},"├":{"ha":833,"x_min":313,"x_max":938,"o":"m 313 -456 l 313 1350 l 521 1350 l 521 551 l 938 551 l 938 343 l 521 343 l 521 -456 l 313 -456 z "},"┝":{"ha":833,"x_min":313,"x_max":938,"o":"m 313 -456 l 313 1350 l 521 1350 l 521 635 l 938 635 l 938 260 l 521 260 l 521 -456 l 313 -456 z "},"┞":{"ha":833,"x_min":229,"x_max":938,"o":"m 313 -456 l 313 343 l 229 343 l 229 1350 l 604 1350 l 604 551 l 938 551 l 938 343 l 521 343 l 521 -456 l 313 -456 z "},"┟":{"ha":833,"x_min":229,"x_max":938,"o":"m 229 -456 l 229 551 l 313 551 l 313 1350 l 521 1350 l 521 551 l 938 551 l 938 343 l 604 343 l 604 -456 l 229 -456 z "},"┠":{"ha":833,"x_min":229,"x_max":938,"o":"m 229 -456 l 229 1350 l 604 1350 l 604 551 l 938 551 l 938 343 l 604 343 l 604 -456 l 229 -456 z "},"┡":{"ha":833,"x_min":229,"x_max":938,"o":"m 313 -456 l 313 260 l 229 260 l 229 1350 l 604 1350 l 604 635 l 938 635 l 938 260 l 521 260 l 521 -456 l 313 -456 z "},"┢":{"ha":833,"x_min":229,"x_max":938,"o":"m 229 -456 l 229 635 l 313 635 l 313 1350 l 521 1350 l 521 635 l 938 635 l 938 260 l 604 260 l 604 -456 l 229 -456 z "},"┣":{"ha":833,"x_min":229,"x_max":938,"o":"m 229 -456 l 229 1350 l 604 1350 l 604 635 l 938 635 l 938 260 l 604 260 l 604 -456 l 229 -456 z "},"┤":{"ha":833,"x_min":-104,"x_max":521,"o":"m 313 -456 l 313 343 l -104 343 l -104 551 l 313 551 l 313 1350 l 521 1350 l 521 -456 l 313 -456 z "},"┥":{"ha":833,"x_min":-104,"x_max":521,"o":"m 313 -456 l 313 260 l -104 260 l -104 635 l 313 635 l 313 1350 l 521 1350 l 521 -456 l 313 -456 z "},"┦":{"ha":833,"x_min":-104,"x_max":604,"o":"m 313 -456 l 313 343 l -104 343 l -104 551 l 229 551 l 229 1350 l 604 1350 l 604 343 l 521 343 l 521 -456 l 313 -456 z "},"┧":{"ha":833,"x_min":-104,"x_max":604,"o":"m 229 -456 l 229 343 l -104 343 l -104 551 l 313 551 l 313 1350 l 521 1350 l 521 551 l 604 551 l 604 -456 l 229 -456 z "},"┨":{"ha":833,"x_min":-104,"x_max":604,"o":"m 229 -456 l 229 343 l -104 343 l -104 551 l 229 551 l 229 1350 l 604 1350 l 604 -456 l 229 -456 z "},"┩":{"ha":833,"x_min":-104,"x_max":604,"o":"m 313 -456 l 313 260 l -104 260 l -104 635 l 229 635 l 229 1350 l 604 1350 l 604 260 l 521 260 l 521 -456 l 313 -456 z "},"┪":{"ha":833,"x_min":-104,"x_max":604,"o":"m 229 -456 l 229 260 l -104 260 l -104 635 l 313 635 l 313 1350 l 521 1350 l 521 635 l 604 635 l 604 -456 l 229 -456 z "},"┫":{"ha":833,"x_min":-104,"x_max":604,"o":"m 229 -456 l 229 260 l -104 260 l -104 635 l 229 635 l 229 1350 l 604 1350 l 604 -456 l 229 -456 z "},"┬":{"ha":833,"x_min":-104,"x_max":938,"o":"m 313 -456 l 313 343 l -104 343 l -104 551 l 938 551 l 938 343 l 521 343 l 521 -456 l 313 -456 z "},"┭":{"ha":833,"x_min":-104,"x_max":938,"o":"m 313 -456 l 313 260 l -104 260 l -104 635 l 521 635 l 521 551 l 938 551 l 938 343 l 521 343 l 521 -456 l 313 -456 z "},"┮":{"ha":833,"x_min":-104,"x_max":938,"o":"m 313 -456 l 313 343 l -104 343 l -104 551 l 313 551 l 313 635 l 938 635 l 938 260 l 521 260 l 521 -456 l 313 -456 z "},"┯":{"ha":833,"x_min":-104,"x_max":938,"o":"m 313 -456 l 313 260 l -104 260 l -104 635 l 938 635 l 938 260 l 521 260 l 521 -456 l 313 -456 z "},"┰":{"ha":833,"x_min":-104,"x_max":938,"o":"m 229 -456 l 229 343 l -104 343 l -104 551 l 938 551 l 938 343 l 604 343 l 604 -456 l 229 -456 z "},"┱":{"ha":833,"x_min":-104,"x_max":938,"o":"m 229 -456 l 229 260 l -104 260 l -104 635 l 604 635 l 604 551 l 938 551 l 938 343 l 604 343 l 604 -456 l 229 -456 z "},"┲":{"ha":833,"x_min":-104,"x_max":938,"o":"m 229 -456 l 229 343 l -104 343 l -104 551 l 229 551 l 229 635 l 938 635 l 938 260 l 604 260 l 604 -456 l 229 -456 z "},"┳":{"ha":833,"x_min":-104,"x_max":938,"o":"m 229 -456 l 229 260 l -104 260 l -104 635 l 938 635 l 938 260 l 604 260 l 604 -456 l 229 -456 z "},"┴":{"ha":833,"x_min":-104,"x_max":938,"o":"m -104 343 l -104 551 l 313 551 l 313 1350 l 521 1350 l 521 551 l 938 551 l 938 343 l -104 343 z "},"┵":{"ha":833,"x_min":-104,"x_max":938,"o":"m -104 260 l -104 635 l 313 635 l 313 1350 l 521 1350 l 521 551 l 938 551 l 938 343 l 521 343 l 521 260 l -104 260 z "},"┶":{"ha":833,"x_min":-104,"x_max":938,"o":"m 313 260 l 313 343 l -104 343 l -104 551 l 313 551 l 313 1350 l 521 1350 l 521 635 l 938 635 l 938 260 l 313 260 z "},"┷":{"ha":833,"x_min":-104,"x_max":938,"o":"m -104 260 l -104 635 l 313 635 l 313 1350 l 521 1350 l 521 635 l 938 635 l 938 260 l -104 260 z "},"┸":{"ha":833,"x_min":-104,"x_max":938,"o":"m -104 343 l -104 551 l 229 551 l 229 1350 l 604 1350 l 604 551 l 938 551 l 938 343 l -104 343 z "},"┹":{"ha":833,"x_min":-104,"x_max":938,"o":"m -104 260 l -104 635 l 229 635 l 229 1350 l 604 1350 l 604 551 l 938 551 l 938 343 l 604 343 l 604 260 l -104 260 z "},"┺":{"ha":833,"x_min":-104,"x_max":938,"o":"m 229 260 l 229 343 l -104 343 l -104 551 l 229 551 l 229 1350 l 604 1350 l 604 635 l 938 635 l 938 260 l 229 260 z "},"┻":{"ha":833,"x_min":-104,"x_max":938,"o":"m -104 260 l -104 635 l 229 635 l 229 1350 l 604 1350 l 604 635 l 938 635 l 938 260 l -104 260 z "},"┼":{"ha":833,"x_min":-104,"x_max":938,"o":"m 313 -456 l 313 343 l -104 343 l -104 551 l 313 551 l 313 1350 l 521 1350 l 521 551 l 938 551 l 938 343 l 521 343 l 521 -456 l 313 -456 z "},"┽":{"ha":833,"x_min":-104,"x_max":938,"o":"m 313 -456 l 313 260 l -104 260 l -104 635 l 313 635 l 313 1350 l 521 1350 l 521 551 l 938 551 l 938 343 l 521 343 l 521 -456 l 313 -456 z "},"┾":{"ha":833,"x_min":-104,"x_max":938,"o":"m 313 -456 l 313 343 l -104 343 l -104 551 l 313 551 l 313 1350 l 521 1350 l 521 635 l 938 635 l 938 260 l 521 260 l 521 -456 l 313 -456 z "},"┿":{"ha":833,"x_min":-104,"x_max":938,"o":"m 313 -456 l 313 260 l -104 260 l -104 635 l 313 635 l 313 1350 l 521 1350 l 521 635 l 938 635 l 938 260 l 521 260 l 521 -456 l 313 -456 z "},"╀":{"ha":833,"x_min":-104,"x_max":938,"o":"m 313 -456 l 313 343 l -104 343 l -104 551 l 229 551 l 229 1350 l 604 1350 l 604 551 l 938 551 l 938 343 l 521 343 l 521 -456 l 313 -456 z "},"╁":{"ha":833,"x_min":-104,"x_max":938,"o":"m 229 -456 l 229 343 l -104 343 l -104 551 l 313 551 l 313 1350 l 521 1350 l 521 551 l 938 551 l 938 343 l 604 343 l 604 -456 l 229 -456 z "},"╂":{"ha":833,"x_min":-104,"x_max":938,"o":"m 229 -456 l 229 343 l -104 343 l -104 551 l 229 551 l 229 1350 l 604 1350 l 604 551 l 938 551 l 938 343 l 604 343 l 604 -456 l 229 -456 z "},"╃":{"ha":833,"x_min":-104,"x_max":938,"o":"m 313 -456 l 313 260 l -104 260 l -104 635 l 229 635 l 229 1350 l 604 1350 l 604 551 l 938 551 l 938 343 l 604 343 l 604 260 l 521 260 l 521 -456 l 313 -456 z "},"╄":{"ha":833,"x_min":-104,"x_max":938,"o":"m 313 -456 l 313 260 l 229 260 l 229 343 l -104 343 l -104 551 l 229 551 l 229 1350 l 604 1350 l 604 635 l 938 635 l 938 260 l 521 260 l 521 -456 l 313 -456 z "},"╅":{"ha":833,"x_min":-104,"x_max":938,"o":"m 229 -456 l 229 260 l -104 260 l -104 635 l 313 635 l 313 1350 l 521 1350 l 521 635 l 604 635 l 604 551 l 938 551 l 938 343 l 604 343 l 604 -456 l 229 -456 z "},"╆":{"ha":833,"x_min":-104,"x_max":938,"o":"m 229 -456 l 229 343 l -104 343 l -104 551 l 229 551 l 229 635 l 313 635 l 313 1350 l 521 1350 l 521 635 l 938 635 l 938 260 l 604 260 l 604 -456 l 229 -456 z "},"╇":{"ha":833,"x_min":-104,"x_max":938,"o":"m 313 -456 l 313 260 l -104 260 l -104 635 l 229 635 l 229 1350 l 604 1350 l 604 635 l 938 635 l 938 260 l 521 260 l 521 -456 l 313 -456 z "},"╈":{"ha":833,"x_min":-104,"x_max":938,"o":"m 229 -456 l 229 260 l -104 260 l -104 635 l 313 635 l 313 1350 l 521 1350 l 521 635 l 938 635 l 938 260 l 604 260 l 604 -456 l 229 -456 z "},"╉":{"ha":833,"x_min":-104,"x_max":938,"o":"m 229 -456 l 229 260 l -104 260 l -104 635 l 229 635 l 229 1350 l 604 1350 l 604 551 l 938 551 l 938 343 l 604 343 l 604 -456 l 229 -456 z "},"╊":{"ha":833,"x_min":-104,"x_max":938,"o":"m 229 -456 l 229 343 l -104 343 l -104 551 l 229 551 l 229 1350 l 604 1350 l 604 635 l 938 635 l 938 260 l 604 260 l 604 -456 l 229 -456 z "},"╋":{"ha":833,"x_min":-104,"x_max":938,"o":"m 229 -456 l 229 260 l -104 260 l -104 635 l 229 635 l 229 1350 l 604 1350 l 604 635 l 938 635 l 938 260 l 604 260 l 604 -456 l 229 -456 z "},"╌":{"ha":833,"x_min":104,"x_max":729,"o":"m 521 343 l 521 551 l 729 551 l 729 343 l 521 343 m 104 343 l 104 551 l 313 551 l 313 343 l 104 343 z "},"╍":{"ha":833,"x_min":104,"x_max":729,"o":"m 521 260 l 521 635 l 729 635 l 729 260 l 521 260 m 104 260 l 104 635 l 313 635 l 313 260 l 104 260 z "},"╎":{"ha":833,"x_min":313,"x_max":521,"o":"m 313 665 l 313 1099 l 521 1099 l 521 665 l 313 665 m 313 -203 l 313 231 l 521 231 l 521 -203 l 313 -203 z "},"╏":{"ha":833,"x_min":229,"x_max":604,"o":"m 229 665 l 229 1099 l 604 1099 l 604 665 l 229 665 m 229 -203 l 229 231 l 604 231 l 604 -203 l 229 -203 z "},"═":{"ha":833,"x_min":-104,"x_max":938,"o":"m -104 551 l -104 760 l 938 760 l 938 551 l -104 551 m -104 135 l -104 343 l 938 343 l 938 135 l -104 135 z "},"║":{"ha":833,"x_min":104,"x_max":729,"o":"m 521 -456 l 521 1350 l 729 1350 l 729 -456 l 521 -456 m 104 -456 l 104 1350 l 313 1350 l 313 -456 l 104 -456 z "},"╒":{"ha":833,"x_min":313,"x_max":938,"o":"m 313 -456 l 313 760 l 938 760 l 938 551 l 521 551 l 521 343 l 938 343 l 938 135 l 521 135 l 521 -456 l 313 -456 z "},"╓":{"ha":833,"x_min":104,"x_max":938,"o":"m 104 -456 l 104 551 l 938 551 l 938 343 l 729 343 l 729 -456 l 521 -456 l 521 343 l 313 343 l 313 -456 l 104 -456 z "},"╔":{"ha":833,"x_min":104,"x_max":938,"o":"m 104 -456 l 104 760 l 938 760 l 938 551 l 313 551 l 313 -456 l 104 -456 m 521 -456 l 521 343 l 938 343 l 938 135 l 729 135 l 729 -456 l 521 -456 z "},"╕":{"ha":833,"x_min":-104,"x_max":521,"o":"m 313 -456 l 313 135 l -104 135 l -104 343 l 313 343 l 313 551 l -104 551 l -104 760 l 521 760 l 521 -456 l 313 -456 z "},"╖":{"ha":833,"x_min":-104,"x_max":729,"o":"m 104 -456 l 104 343 l -104 343 l -104 551 l 729 551 l 729 -456 l 521 -456 l 521 343 l 313 343 l 313 -456 l 104 -456 z "},"╗":{"ha":833,"x_min":-104,"x_max":729,"o":"m 521 -456 l 521 551 l -104 551 l -104 760 l 729 760 l 729 -456 l 521 -456 m 104 -456 l 104 135 l -104 135 l -104 343 l 313 343 l 313 -456 l 104 -456 z "},"╘":{"ha":833,"x_min":313,"x_max":938,"o":"m 313 135 l 313 1350 l 521 1350 l 521 760 l 938 760 l 938 551 l 521 551 l 521 343 l 938 343 l 938 135 l 313 135 z "},"╙":{"ha":833,"x_min":104,"x_max":938,"o":"m 104 343 l 104 1350 l 313 1350 l 313 551 l 521 551 l 521 1350 l 729 1350 l 729 551 l 938 551 l 938 343 l 104 343 z "},"╚":{"ha":833,"x_min":104,"x_max":938,"o":"m 104 135 l 104 1350 l 313 1350 l 313 343 l 938 343 l 938 135 l 104 135 m 521 551 l 521 1350 l 729 1350 l 729 760 l 938 760 l 938 551 l 521 551 z "},"╛":{"ha":833,"x_min":-104,"x_max":521,"o":"m -104 135 l -104 343 l 313 343 l 313 551 l -104 551 l -104 760 l 313 760 l 313 1350 l 521 1350 l 521 135 l -104 135 z "},"╜":{"ha":833,"x_min":-104,"x_max":729,"o":"m -104 343 l -104 551 l 104 551 l 104 1350 l 313 1350 l 313 551 l 521 551 l 521 1350 l 729 1350 l 729 343 l -104 343 z "},"╝":{"ha":833,"x_min":-104,"x_max":729,"o":"m -104 135 l -104 343 l 521 343 l 521 1350 l 729 1350 l 729 135 l -104 135 m -104 551 l -104 760 l 104 760 l 104 1350 l 313 1350 l 313 551 l -104 551 z "},"╞":{"ha":833,"x_min":313,"x_max":938,"o":"m 313 -456 l 313 1350 l 521 1350 l 521 760 l 938 760 l 938 551 l 521 551 l 521 343 l 938 343 l 938 135 l 521 135 l 521 -456 l 313 -456 z "},"╟":{"ha":833,"x_min":104,"x_max":938,"o":"m 521 -456 l 521 1350 l 729 1350 l 729 551 l 938 551 l 938 343 l 729 343 l 729 -456 l 521 -456 m 104 -456 l 104 1350 l 313 1350 l 313 -456 l 104 -456 z "},"╠":{"ha":833,"x_min":104,"x_max":938,"o":"m 521 551 l 521 1350 l 729 1350 l 729 760 l 938 760 l 938 551 l 521 551 m 521 -456 l 521 343 l 938 343 l 938 135 l 729 135 l 729 -456 l 521 -456 m 104 -456 l 104 1350 l 313 1350 l 313 -456 l 104 -456 z "},"╡":{"ha":833,"x_min":-104,"x_max":521,"o":"m 313 -456 l 313 135 l -104 135 l -104 343 l 313 343 l 313 551 l -104 551 l -104 760 l 313 760 l 313 1350 l 521 1350 l 521 -456 l 313 -456 z "},"╢":{"ha":833,"x_min":-104,"x_max":729,"o":"m 104 -456 l 104 343 l -104 343 l -104 551 l 104 551 l 104 1350 l 313 1350 l 313 -456 l 104 -456 m 521 -456 l 521 1350 l 729 1350 l 729 -456 l 521 -456 z "},"╣":{"ha":833,"x_min":-104,"x_max":729,"o":"m -104 551 l -104 760 l 104 760 l 104 1350 l 313 1350 l 313 551 l -104 551 m 104 -456 l 104 135 l -104 135 l -104 343 l 313 343 l 313 -456 l 104 -456 m 521 -456 l 521 1350 l 729 1350 l 729 -456 l 521 -456 z "},"╤":{"ha":833,"x_min":-104,"x_max":938,"o":"m 313 -456 l 313 135 l -104 135 l -104 343 l 938 343 l 938 135 l 521 135 l 521 -456 l 313 -456 m -104 551 l -104 760 l 938 760 l 938 551 l -104 551 z "},"╥":{"ha":833,"x_min":-104,"x_max":938,"o":"m 104 -456 l 104 343 l -104 343 l -104 551 l 938 551 l 938 343 l 729 343 l 729 -456 l 521 -456 l 521 343 l 313 343 l 313 -456 l 104 -456 z "},"╦":{"ha":833,"x_min":-104,"x_max":938,"o":"m 521 -456 l 521 343 l 938 343 l 938 135 l 729 135 l 729 -456 l 521 -456 m 104 -456 l 104 135 l -104 135 l -104 343 l 313 343 l 313 -456 l 104 -456 m -104 551 l -104 760 l 938 760 l 938 551 l -104 551 z "},"╧":{"ha":833,"x_min":-104,"x_max":938,"o":"m -104 551 l -104 760 l 313 760 l 313 1350 l 521 1350 l 521 760 l 938 760 l 938 551 l -104 551 m -104 135 l -104 343 l 938 343 l 938 135 l -104 135 z "},"╨":{"ha":833,"x_min":-104,"x_max":938,"o":"m -104 343 l -104 551 l 104 551 l 104 1350 l 313 1350 l 313 551 l 521 551 l 521 1350 l 729 1350 l 729 551 l 938 551 l 938 343 l -104 343 z "},"╩":{"ha":833,"x_min":-104,"x_max":938,"o":"m 521 551 l 521 1350 l 729 1350 l 729 760 l 938 760 l 938 551 l 521 551 m -104 135 l -104 343 l 938 343 l 938 135 l -104 135 m -104 551 l -104 760 l 104 760 l 104 1350 l 313 1350 l 313 551 l -104 551 z "},"╪":{"ha":833,"x_min":-104,"x_max":938,"o":"m 313 -456 l 313 135 l -104 135 l -104 343 l 313 343 l 313 551 l -104 551 l -104 760 l 313 760 l 313 1350 l 521 1350 l 521 760 l 938 760 l 938 551 l 521 551 l 521 343 l 938 343 l 938 135 l 521 135 l 521 -456 l 313 -456 z "},"╫":{"ha":833,"x_min":-104,"x_max":938,"o":"m 104 -456 l 104 343 l -104 343 l -104 551 l 104 551 l 104 1350 l 313 1350 l 313 551 l 521 551 l 521 1350 l 729 1350 l 729 551 l 938 551 l 938 343 l 729 343 l 729 -456 l 521 -456 l 521 343 l 313 343 l 313 -456 l 104 -456 z "},"╬":{"ha":833,"x_min":-104,"x_max":938,"o":"m 521 551 l 521 1350 l 729 1350 l 729 760 l 938 760 l 938 551 l 521 551 m 104 -456 l 104 135 l -104 135 l -104 343 l 313 343 l 313 -456 l 104 -456 m 521 -456 l 521 343 l 938 343 l 938 135 l 729 135 l 729 -456 l 521 -456 m -104 551 l -104 760 l 104 760 l 104 1350 l 313 1350 l 313 551 l -104 551 z "},"╭":{"ha":833,"x_min":313,"x_max":938,"o":"m 313 -456 l 313 135 q 363 358 313 265 q 506 501 413 451 q 729 551 599 551 l 938 551 l 938 343 l 729 343 q 575 289 630 343 q 521 135 521 234 l 521 -456 l 313 -456 z "},"╮":{"ha":833,"x_min":-104,"x_max":521,"o":"m 313 -456 l 313 135 q 258 289 313 234 q 104 343 203 343 l -104 343 l -104 551 l 104 551 q 327 501 234 551 q 471 358 421 451 q 521 135 521 265 l 521 -456 l 313 -456 z "},"╯":{"ha":833,"x_min":-104,"x_max":521,"o":"m -104 343 l -104 551 l 104 551 q 258 606 203 551 q 313 760 313 660 l 313 1350 l 521 1350 l 521 760 q 471 536 521 630 q 327 393 421 443 q 104 343 234 343 l -104 343 z "},"╰":{"ha":833,"x_min":313,"x_max":938,"o":"m 729 343 q 506 393 599 343 q 363 536 413 443 q 313 760 313 630 l 313 1350 l 521 1350 l 521 760 q 575 606 521 660 q 729 551 630 551 l 938 551 l 938 343 l 729 343 z "},"╱":{"ha":833,"x_min":0,"x_max":833,"o":"m 0 -421 l 0 -180 l 718 1315 l 833 1315 l 833 1074 l 115 -421 l 0 -421 z "},"╲":{"ha":833,"x_min":0,"x_max":833,"o":"m 718 -421 l 0 1074 l 0 1315 l 115 1315 l 833 -180 l 833 -421 l 718 -421 z "},"╳":{"ha":833,"x_min":0,"x_max":833,"o":"m 0 -421 l 0 -180 l 301 447 l 0 1074 l 0 1315 l 115 1315 l 417 688 l 718 1315 l 833 1315 l 833 1074 l 532 447 l 833 -180 l 833 -421 l 718 -421 l 417 206 l 115 -421 l 0 -421 z "},"╴":{"ha":833,"x_min":-104,"x_max":521,"o":"m -104 343 l -104 551 l 521 551 l 521 343 l -104 343 z "},"╵":{"ha":833,"x_min":313,"x_max":521,"o":"m 313 343 l 313 1350 l 521 1350 l 521 343 l 313 343 z "},"╶":{"ha":833,"x_min":313,"x_max":938,"o":"m 313 343 l 313 551 l 938 551 l 938 343 l 313 343 z "},"╷":{"ha":833,"x_min":313,"x_max":521,"o":"m 313 -456 l 313 551 l 521 551 l 521 -456 l 313 -456 z "},"╸":{"ha":833,"x_min":-104,"x_max":521,"o":"m -104 260 l -104 635 l 521 635 l 521 260 l -104 260 z "},"╹":{"ha":833,"x_min":229,"x_max":604,"o":"m 229 343 l 229 1350 l 604 1350 l 604 343 l 229 343 z "},"╺":{"ha":833,"x_min":313,"x_max":938,"o":"m 313 260 l 313 635 l 938 635 l 938 260 l 313 260 z "},"╻":{"ha":833,"x_min":229,"x_max":604,"o":"m 229 -456 l 229 551 l 604 551 l 604 -456 l 229 -456 z "},"╼":{"ha":833,"x_min":-104,"x_max":938,"o":"m 313 260 l 313 343 l -104 343 l -104 551 l 313 551 l 313 635 l 938 635 l 938 260 l 313 260 z "},"╽":{"ha":833,"x_min":229,"x_max":604,"o":"m 229 -456 l 229 551 l 313 551 l 313 1350 l 521 1350 l 521 551 l 604 551 l 604 -456 l 229 -456 z "},"╾":{"ha":833,"x_min":-104,"x_max":938,"o":"m -104 260 l -104 635 l 521 635 l 521 551 l 938 551 l 938 343 l 521 343 l 521 260 l -104 260 z "},"╿":{"ha":833,"x_min":229,"x_max":604,"o":"m 313 -456 l 313 343 l 229 343 l 229 1350 l 604 1350 l 604 343 l 521 343 l 521 -456 l 313 -456 z "},"▀":{"ha":833,"x_min":0,"x_max":833,"o":"m 0 447 l 0 1350 l 833 1350 l 833 447 l 0 447 z "},"▁":{"ha":833,"x_min":0,"x_max":833,"o":"m 0 -456 l 0 -230 l 833 -230 l 833 -456 l 0 -456 z "},"▂":{"ha":833,"x_min":0,"x_max":833,"o":"m 0 -456 l 0 -4 l 833 -4 l 833 -456 l 0 -456 z "},"▃":{"ha":833,"x_min":0,"x_max":833,"o":"m 0 -456 l 0 222 l 833 222 l 833 -456 l 0 -456 z "},"▄":{"ha":833,"x_min":0,"x_max":833,"o":"m 0 -456 l 0 447 l 833 447 l 833 -456 l 0 -456 z "},"▅":{"ha":833,"x_min":0,"x_max":833,"o":"m 0 -456 l 0 673 l 833 673 l 833 -456 l 0 -456 z "},"▆":{"ha":833,"x_min":0,"x_max":833,"o":"m 0 -456 l 0 899 l 833 899 l 833 -456 l 0 -456 z "},"▇":{"ha":833,"x_min":0,"x_max":833,"o":"m 0 -456 l 0 1124 l 833 1124 l 833 -456 l 0 -456 z "},"█":{"ha":833,"x_min":0,"x_max":833,"o":"m 0 -456 l 0 1350 l 833 1350 l 833 -456 l 0 -456 z "},"▉":{"ha":833,"x_min":0,"x_max":729,"o":"m 0 -456 l 0 1350 l 729 1350 l 729 -456 l 0 -456 z "},"▊":{"ha":833,"x_min":0,"x_max":625,"o":"m 0 -456 l 0 1350 l 625 1350 l 625 -456 l 0 -456 z "},"▋":{"ha":833,"x_min":0,"x_max":521,"o":"m 0 -456 l 0 1350 l 521 1350 l 521 -456 l 0 -456 z "},"▌":{"ha":833,"x_min":0,"x_max":417,"o":"m 0 -456 l 0 1350 l 417 1350 l 417 -456 l 0 -456 z "},"▍":{"ha":833,"x_min":0,"x_max":313,"o":"m 0 -456 l 0 1350 l 313 1350 l 313 -456 l 0 -456 z "},"▎":{"ha":833,"x_min":0,"x_max":208,"o":"m 0 -456 l 0 1350 l 208 1350 l 208 -456 l 0 -456 z "},"▏":{"ha":833,"x_min":0,"x_max":104,"o":"m 0 -456 l 0 1350 l 104 1350 l 104 -456 l 0 -456 z "},"▐":{"ha":833,"x_min":417,"x_max":833,"o":"m 417 -456 l 417 1350 l 833 1350 l 833 -456 l 417 -456 z "},"░":{"ha":833,"x_min":29,"x_max":804,"o":"m 725 1192 l 725 1272 l 804 1272 l 804 1192 l 725 1192 m 29 -422 l 29 -343 l 108 -343 l 108 -422 l 29 -422 m 29 -174 l 29 -95 l 108 -95 l 108 -174 l 29 -174 m 169 -298 l 169 -219 l 249 -219 l 249 -298 l 169 -298 m 308 -422 l 308 -343 l 387 -343 l 387 -422 l 308 -422 m 29 75 l 29 154 l 108 154 l 108 75 l 29 75 m 169 -49 l 169 30 l 249 30 l 249 -49 l 169 -49 m 308 -174 l 308 -95 l 387 -95 l 387 -174 l 308 -174 m 447 -298 l 447 -219 l 526 -219 l 526 -298 l 447 -298 m 585 -422 l 585 -343 l 665 -343 l 665 -422 l 585 -422 m 29 323 l 29 402 l 108 402 l 108 323 l 29 323 m 169 199 l 169 278 l 249 278 l 249 199 l 169 199 m 308 75 l 308 154 l 387 154 l 387 75 l 308 75 m 447 -49 l 447 30 l 526 30 l 526 -49 l 447 -49 m 585 -174 l 585 -94 l 665 -94 l 665 -174 l 585 -174 m 725 -298 l 725 -219 l 804 -219 l 804 -298 l 725 -298 m 29 572 l 29 651 l 108 651 l 108 572 l 29 572 m 169 447 l 169 526 l 249 526 l 249 447 l 169 447 m 308 323 l 308 402 l 387 402 l 387 323 l 308 323 m 447 199 l 447 278 l 526 278 l 526 199 l 447 199 m 585 75 l 585 154 l 665 154 l 665 75 l 585 75 m 725 -50 l 725 29 l 804 29 l 804 -50 l 725 -50 m 29 820 l 29 899 l 108 899 l 108 820 l 29 820 m 169 696 l 169 775 l 249 775 l 249 696 l 169 696 m 308 572 l 308 651 l 387 651 l 387 572 l 308 572 m 447 447 l 447 526 l 526 526 l 526 447 l 447 447 m 585 323 l 585 402 l 665 402 l 665 323 l 585 323 m 725 199 l 725 278 l 804 278 l 804 199 l 725 199 m 29 1068 l 29 1147 l 108 1147 l 108 1068 l 29 1068 m 169 944 l 169 1023 l 249 1023 l 249 944 l 169 944 m 308 820 l 308 899 l 387 899 l 387 820 l 308 820 m 447 696 l 447 775 l 526 775 l 526 696 l 447 696 m 585 572 l 585 651 l 665 651 l 665 572 l 585 572 m 725 447 l 725 526 l 804 526 l 804 447 l 725 447 m 169 1192 l 169 1272 l 249 1272 l 249 1192 l 169 1192 m 308 1068 l 308 1147 l 387 1147 l 387 1068 l 308 1068 m 447 944 l 447 1023 l 526 1023 l 526 944 l 447 944 m 585 819 l 585 899 l 665 899 l 665 819 l 585 819 m 725 696 l 725 775 l 804 775 l 804 696 l 725 696 m 447 1192 l 447 1272 l 526 1272 l 526 1192 l 447 1192 m 585 1068 l 585 1147 l 665 1147 l 665 1068 l 585 1068 m 725 944 l 725 1023 l 804 1023 l 804 944 l 725 944 z "},"▒":{"ha":833,"x_min":6,"x_max":828,"o":"m 6 819 l 6 950 l 137 950 l 137 819 l 6 819 m 6 572 l 6 702 l 137 702 l 137 572 l 6 572 m 6 323 l 6 453 l 137 453 l 137 323 l 6 323 m 6 75 l 6 206 l 137 206 l 137 75 l 6 75 m 6 -174 l 6 -43 l 137 -43 l 137 -174 l 6 -174 m 144 1186 l 144 1317 l 276 1317 l 276 1186 l 144 1186 m 144 944 l 144 1075 l 276 1075 l 276 944 l 144 944 m 144 696 l 144 826 l 276 826 l 276 696 l 144 696 m 144 447 l 144 578 l 276 578 l 276 447 l 144 447 m 144 199 l 144 330 l 276 330 l 276 199 l 144 199 m 144 -49 l 144 81 l 276 81 l 276 -49 l 144 -49 m 144 -298 l 144 -167 l 276 -167 l 276 -298 l 144 -298 m 282 1068 l 282 1199 l 413 1199 l 413 1068 l 282 1068 m 282 820 l 282 951 l 413 951 l 413 820 l 282 820 m 282 572 l 282 702 l 413 702 l 413 572 l 282 572 m 282 323 l 282 453 l 413 453 l 413 323 l 282 323 m 282 74 l 282 206 l 413 206 l 413 74 l 282 74 m 282 -174 l 282 -43 l 413 -43 l 413 -174 l 282 -174 m 421 1186 l 421 1317 l 551 1317 l 551 1186 l 421 1186 m 421 939 l 421 1069 l 552 1069 l 552 939 l 421 939 m 421 692 l 421 822 l 552 822 l 552 692 l 421 692 m 421 444 l 421 575 l 552 575 l 552 444 l 421 444 m 421 197 l 421 328 l 552 328 l 552 197 l 421 197 m 421 -51 l 421 81 l 552 81 l 552 -51 l 421 -51 m 421 -298 l 421 -167 l 552 -167 l 552 -298 l 421 -298 m 558 1068 l 558 1199 l 689 1199 l 689 1068 l 558 1068 m 558 820 l 558 951 l 689 951 l 689 820 l 558 820 m 558 572 l 558 702 l 689 702 l 689 572 l 558 572 m 558 323 l 558 453 l 689 453 l 689 323 l 558 323 m 558 74 l 558 206 l 689 206 l 689 74 l 558 74 m 558 -174 l 558 -43 l 689 -43 l 689 -174 l 558 -174 m 697 1186 l 697 1317 l 828 1317 l 828 1186 l 697 1186 m 697 939 l 697 1069 l 828 1069 l 828 939 l 697 939 m 697 692 l 697 822 l 828 822 l 828 692 l 697 692 m 697 444 l 697 575 l 828 575 l 828 444 l 697 444 m 697 197 l 697 328 l 828 328 l 828 197 l 697 197 m 697 -51 l 697 81 l 828 81 l 828 -51 l 697 -51 m 697 -298 l 697 -167 l 828 -167 l 828 -298 l 697 -298 m 6 -422 l 6 -291 l 137 -291 l 137 -422 l 6 -422 m 282 -422 l 282 -291 l 413 -291 l 413 -422 l 282 -422 m 558 -422 l 558 -291 l 689 -291 l 689 -422 l 558 -422 m 6 1068 l 6 1199 l 137 1199 l 137 1068 l 6 1068 z "},"▓":{"ha":833,"x_min":-4,"x_max":838,"o":"m -4 -422 l -4 1317 l 838 1317 l 838 -422 l -4 -422 m 33 -422 l 104 -422 l 104 -351 l 33 -351 l 33 -422 m 33 -174 l 104 -174 l 104 -103 l 33 -103 l 33 -174 m 174 -298 l 244 -298 l 244 -227 l 174 -227 l 174 -298 m 312 -422 l 383 -422 l 383 -351 l 312 -351 l 312 -422 m 33 74 l 104 74 l 104 145 l 33 145 l 33 74 m 174 -49 l 244 -49 l 244 22 l 174 22 l 174 -49 m 312 -174 l 383 -174 l 383 -103 l 312 -103 l 312 -174 m 452 -298 l 523 -298 l 523 -227 l 452 -227 l 452 -298 m 589 -422 l 660 -422 l 660 -351 l 589 -351 l 589 -422 m 33 323 l 104 323 l 104 394 l 33 394 l 33 323 m 174 199 l 244 199 l 244 269 l 174 269 l 174 199 m 312 74 l 383 74 l 383 145 l 312 145 l 312 74 m 452 -49 l 523 -49 l 523 22 l 452 22 l 452 -49 m 589 -174 l 660 -174 l 660 -103 l 589 -103 l 589 -174 m 729 -298 l 800 -298 l 800 -227 l 729 -227 l 729 -298 m 33 572 l 104 572 l 104 642 l 33 642 l 33 572 m 174 447 l 244 447 l 244 518 l 174 518 l 174 447 m 312 323 l 383 323 l 383 394 l 312 394 l 312 323 m 452 199 l 523 199 l 523 269 l 452 269 l 452 199 m 589 74 l 660 74 l 660 145 l 589 145 l 589 74 m 729 -49 l 800 -49 l 800 22 l 729 22 l 729 -49 m 33 820 l 104 820 l 104 891 l 33 891 l 33 820 m 174 696 l 244 696 l 244 767 l 174 767 l 174 696 m 312 572 l 383 572 l 383 642 l 312 642 l 312 572 m 452 447 l 523 447 l 523 518 l 452 518 l 452 447 m 589 323 l 660 323 l 660 394 l 589 394 l 589 323 m 729 199 l 800 199 l 800 269 l 729 269 l 729 199 m 33 1068 l 104 1068 l 104 1139 l 33 1139 l 33 1068 m 174 944 l 244 944 l 244 1015 l 174 1015 l 174 944 m 311 820 l 382 820 l 382 891 l 311 891 l 311 820 m 451 696 l 522 696 l 522 767 l 451 767 l 451 696 m 589 572 l 660 572 l 660 642 l 589 642 l 589 572 m 729 447 l 800 447 l 800 518 l 729 518 l 729 447 m 174 1192 l 244 1192 l 244 1263 l 174 1263 l 174 1192 m 311 1068 l 382 1068 l 382 1139 l 311 1139 l 311 1068 m 451 944 l 522 944 l 522 1015 l 451 1015 l 451 944 m 589 820 l 660 820 l 660 891 l 589 891 l 589 820 m 729 696 l 800 696 l 800 767 l 729 767 l 729 696 m 451 1192 l 522 1192 l 522 1263 l 451 1263 l 451 1192 m 589 1068 l 660 1068 l 660 1139 l 589 1139 l 589 1068 m 729 944 l 800 944 l 800 1015 l 729 1015 l 729 944 m 729 1192 l 800 1192 l 800 1263 l 729 1263 l 729 1192 z "},"▔":{"ha":833,"x_min":0,"x_max":833,"o":"m 0 1124 l 0 1350 l 833 1350 l 833 1124 l 0 1124 z "},"▕":{"ha":833,"x_min":729,"x_max":833,"o":"m 729 -456 l 729 1350 l 833 1350 l 833 -456 l 729 -456 z "},"▖":{"ha":833,"x_min":0,"x_max":417,"o":"m 0 -456 l 0 447 l 417 447 l 417 -456 l 0 -456 z "},"▗":{"ha":833,"x_min":417,"x_max":833,"o":"m 417 -456 l 417 447 l 833 447 l 833 -456 l 417 -456 z "},"▘":{"ha":833,"x_min":0,"x_max":417,"o":"m 0 447 l 0 1350 l 417 1350 l 417 447 l 0 447 z "},"▙":{"ha":833,"x_min":0,"x_max":833,"o":"m 0 -456 l 0 1350 l 417 1350 l 417 447 l 833 447 l 833 -456 l 0 -456 z "},"▚":{"ha":833,"x_min":0,"x_max":833,"o":"m 0 447 l 0 1350 l 417 1350 l 417 447 l 0 447 m 417 -456 l 417 447 l 833 447 l 833 -456 l 417 -456 z "},"▛":{"ha":833,"x_min":0,"x_max":833,"o":"m 0 -456 l 0 1350 l 833 1350 l 833 447 l 417 447 l 417 -456 l 0 -456 z "},"▜":{"ha":833,"x_min":0,"x_max":833,"o":"m 417 -456 l 417 447 l 0 447 l 0 1350 l 833 1350 l 833 -456 l 417 -456 z "},"▝":{"ha":833,"x_min":417,"x_max":833,"o":"m 417 447 l 417 1350 l 833 1350 l 833 447 l 417 447 z "},"▞":{"ha":833,"x_min":0,"x_max":833,"o":"m 417 447 l 417 1350 l 833 1350 l 833 447 l 417 447 m 0 -456 l 0 447 l 417 447 l 417 -456 l 0 -456 z "},"▟":{"ha":833,"x_min":0,"x_max":833,"o":"m 0 -456 l 0 447 l 417 447 l 417 1350 l 833 1350 l 833 -456 l 0 -456 z "},"À":{"ha":833,"x_min":11,"x_max":822,"o":"m 11 0 l 320 994 l 516 994 l 822 0 l 603 0 l 449 615 l 417 760 l 412 760 l 382 615 l 226 0 l 11 0 m 153 192 l 206 359 l 617 359 l 674 192 l 153 192 m 326 1138 l 125 1391 l 125 1400 l 367 1400 l 510 1147 l 510 1138 l 326 1138 z "},"Á":{"ha":833,"x_min":11,"x_max":822,"o":"m 11 0 l 320 994 l 516 994 l 822 0 l 603 0 l 449 615 l 417 760 l 412 760 l 382 615 l 226 0 l 11 0 m 153 192 l 206 359 l 617 359 l 674 192 l 153 192 m 326 1138 l 326 1147 l 470 1400 l 712 1400 l 712 1391 l 510 1138 l 326 1138 z "},"Â":{"ha":833,"x_min":11,"x_max":822,"o":"m 11 0 l 320 994 l 516 994 l 822 0 l 603 0 l 449 615 l 417 760 l 412 760 l 382 615 l 226 0 l 11 0 m 153 192 l 206 359 l 617 359 l 674 192 l 153 192 m 115 1138 l 115 1147 l 316 1400 l 520 1400 l 722 1147 l 722 1138 l 516 1138 l 396 1342 l 441 1342 l 320 1138 l 115 1138 z "},"Ã":{"ha":833,"x_min":11,"x_max":822,"o":"m 11 0 l 320 994 l 516 994 l 822 0 l 603 0 l 449 615 l 417 760 l 412 760 l 382 615 l 226 0 l 11 0 m 153 192 l 206 359 l 617 359 l 674 192 l 153 192 m 542 1138 q 475 1153 508 1138 q 406 1202 442 1168 q 364 1238 380 1227 q 333 1249 348 1249 q 294 1198 294 1249 l 294 1140 l 144 1140 l 144 1203 q 185 1351 144 1299 q 303 1402 226 1402 q 366 1388 336 1402 q 431 1339 396 1374 q 473 1302 457 1313 q 506 1291 490 1291 q 542 1342 542 1291 l 542 1400 l 693 1400 l 693 1338 q 656 1190 693 1241 q 542 1138 619 1138 z "},"Ā":{"ha":833,"x_min":11,"x_max":822,"o":"m 11 0 l 320 994 l 516 994 l 822 0 l 603 0 l 449 615 l 417 760 l 412 760 l 382 615 l 226 0 l 11 0 m 153 192 l 206 359 l 617 359 l 674 192 l 153 192 m 194 1177 l 194 1348 l 642 1348 l 642 1177 l 194 1177 z "},"Ä":{"ha":833,"x_min":11,"x_max":822,"o":"m 11 0 l 320 994 l 516 994 l 822 0 l 603 0 l 449 615 l 417 760 l 412 760 l 382 615 l 226 0 l 11 0 m 153 192 l 206 359 l 617 359 l 674 192 l 153 192 m 229 1129 q 135 1167 174 1129 q 96 1260 96 1206 q 135 1353 96 1315 q 229 1392 174 1392 q 324 1354 285 1392 q 363 1260 363 1316 q 324 1167 363 1205 q 229 1129 286 1129 m 607 1129 q 513 1167 551 1129 q 474 1260 474 1206 q 513 1353 474 1315 q 607 1392 551 1392 q 702 1354 663 1392 q 740 1260 740 1316 q 702 1167 740 1205 q 607 1129 664 1129 z "},"Å":{"ha":833,"x_min":11,"x_max":822,"o":"m 11 0 l 320 994 l 516 994 l 822 0 l 603 0 l 449 615 l 417 760 l 412 760 l 382 615 l 226 0 l 11 0 m 153 192 l 206 359 l 617 359 l 674 192 l 153 192 m 418 1063 q 388 1063 418 1063 q 309 1091 358 1063 q 231 1167 260 1119 q 201 1272 201 1214 q 231 1378 201 1331 q 309 1454 260 1426 q 418 1482 358 1482 q 527 1454 478 1482 q 606 1378 576 1426 q 635 1272 635 1331 q 606 1167 635 1214 q 527 1091 576 1119 q 418 1063 478 1063 m 418 1188 q 437 1188 418 1188 q 479 1212 455 1188 q 503 1273 503 1236 q 479 1333 503 1309 q 418 1357 455 1357 q 358 1333 382 1357 q 333 1273 333 1309 q 358 1212 333 1236 q 418 1188 382 1188 z "},"Æ":{"ha":833,"x_min":3,"x_max":830,"o":"m 3 0 l 247 994 l 498 994 l 488 811 l 377 811 l 344 608 l 210 0 l 3 0 m 135 197 l 185 361 l 484 361 l 484 197 l 135 197 m 425 0 l 425 994 l 819 994 l 819 802 l 592 802 l 592 192 l 830 192 l 830 0 l 425 0 m 522 413 l 522 602 l 787 602 l 787 413 l 522 413 z "},"Ǽ":{"ha":833,"x_min":3,"x_max":830,"o":"m 3 0 l 247 994 l 498 994 l 488 811 l 377 811 l 344 608 l 210 0 l 3 0 m 135 197 l 185 361 l 484 361 l 484 197 l 135 197 m 425 0 l 425 994 l 819 994 l 819 802 l 592 802 l 592 192 l 830 192 l 830 0 l 425 0 m 522 413 l 522 602 l 787 602 l 787 413 l 522 413 m 419 1138 l 419 1147 l 564 1400 l 806 1400 l 806 1391 l 604 1138 l 419 1138 z "},"Ă":{"ha":833,"x_min":11,"x_max":822,"o":"m 11 0 l 320 994 l 516 994 l 822 0 l 603 0 l 449 615 l 417 760 l 412 760 l 382 615 l 226 0 l 11 0 m 153 192 l 206 359 l 617 359 l 674 192 l 153 192 m 418 1130 q 378 1130 418 1130 q 278 1163 338 1130 q 184 1255 218 1196 q 151 1392 151 1314 l 151 1400 l 306 1400 l 306 1388 q 336 1302 306 1333 q 418 1272 366 1272 q 500 1302 470 1272 q 530 1388 530 1333 l 530 1400 l 685 1400 l 685 1392 q 652 1255 685 1314 q 558 1163 618 1196 q 418 1130 498 1130 z "},"Ą":{"ha":833,"x_min":11,"x_max":858,"o":"m 11 0 l 320 994 l 516 994 l 822 0 l 603 0 l 449 615 l 417 760 l 412 760 l 382 615 l 226 0 l 11 0 m 153 192 l 206 359 l 617 359 l 674 192 l 153 192 m 719 -381 q 616 -355 661 -381 q 544 -286 570 -330 q 517 -188 517 -243 q 581 -37 517 -103 q 778 78 644 28 l 822 0 q 713 -75 747 -39 q 679 -156 679 -111 q 701 -208 679 -187 q 758 -228 724 -228 q 817 -214 789 -228 l 858 -344 q 719 -381 794 -381 z "},"Ạ":{"ha":833,"x_min":11,"x_max":822,"o":"m 11 0 l 320 994 l 516 994 l 822 0 l 603 0 l 449 615 l 417 760 l 412 760 l 382 615 l 226 0 l 11 0 m 153 192 l 206 359 l 617 359 l 674 192 l 153 192 m 415 -367 q 316 -327 356 -367 q 276 -228 276 -287 q 316 -131 276 -171 q 415 -90 356 -90 q 514 -131 474 -90 q 553 -228 553 -171 q 514 -327 553 -287 q 415 -367 474 -367 z "},"Ả":{"ha":833,"x_min":11,"x_max":822,"o":"m 11 0 l 320 994 l 516 994 l 822 0 l 603 0 l 449 615 l 417 760 l 412 760 l 382 615 l 226 0 l 11 0 m 153 192 l 206 359 l 617 359 l 674 192 l 153 192 m 397 1073 l 376 1210 q 465 1231 436 1215 q 494 1279 494 1247 q 412 1338 494 1338 q 283 1315 349 1338 l 243 1450 q 328 1478 283 1468 q 415 1488 372 1488 q 578 1434 517 1488 q 640 1292 640 1381 q 577 1141 640 1197 q 397 1073 514 1084 z "},"Ấ":{"ha":833,"x_min":11,"x_max":862,"o":"m 11 0 l 320 994 l 516 994 l 822 0 l 603 0 l 449 615 l 417 760 l 412 760 l 382 615 l 226 0 l 11 0 m 153 192 l 206 359 l 617 359 l 674 192 l 153 192 m 98 1072 l 98 1081 l 335 1327 l 501 1327 l 739 1081 l 739 1072 l 529 1072 l 405 1228 l 432 1228 l 308 1072 l 98 1072 m 578 1285 l 578 1294 l 684 1576 l 862 1576 l 862 1567 l 707 1285 l 578 1285 z "},"Ầ":{"ha":833,"x_min":11,"x_max":822,"o":"m 11 0 l 320 994 l 516 994 l 822 0 l 603 0 l 449 615 l 417 760 l 412 760 l 382 615 l 226 0 l 11 0 m 153 192 l 206 359 l 617 359 l 674 192 l 153 192 m 98 1072 l 98 1081 l 335 1327 l 501 1327 l 739 1081 l 739 1072 l 529 1072 l 405 1228 l 432 1228 l 308 1072 l 98 1072 m 669 1284 l 483 1565 l 483 1574 l 665 1574 l 812 1293 l 812 1284 l 669 1284 z "},"Ẩ":{"ha":833,"x_min":11,"x_max":828,"o":"m 11 0 l 320 994 l 516 994 l 822 0 l 603 0 l 449 615 l 417 760 l 412 760 l 382 615 l 226 0 l 11 0 m 153 192 l 206 359 l 617 359 l 674 192 l 153 192 m 98 1072 l 98 1081 l 335 1327 l 501 1327 l 739 1081 l 739 1072 l 529 1072 l 405 1228 l 432 1228 l 308 1072 l 98 1072 m 638 1247 l 622 1366 q 706 1422 706 1372 q 628 1474 706 1474 q 525 1459 576 1474 l 495 1580 q 632 1603 558 1603 q 775 1556 722 1603 q 828 1433 828 1510 q 778 1306 828 1354 q 638 1247 728 1257 z "},"Ẫ":{"ha":833,"x_min":11,"x_max":822,"o":"m 11 0 l 320 994 l 516 994 l 822 0 l 603 0 l 449 615 l 417 760 l 412 760 l 382 615 l 226 0 l 11 0 m 153 192 l 206 359 l 617 359 l 674 192 l 153 192 m 98 1072 l 98 1081 l 335 1327 l 501 1327 l 739 1081 l 739 1072 l 529 1072 l 405 1228 l 432 1228 l 308 1072 l 98 1072 m 562 1389 q 494 1401 526 1389 q 428 1437 463 1413 q 369 1474 390 1463 q 326 1484 347 1484 q 281 1430 281 1484 l 281 1391 l 135 1391 l 135 1447 q 174 1577 135 1531 q 283 1623 214 1623 q 350 1611 319 1623 q 415 1574 381 1599 q 474 1538 453 1548 q 514 1528 495 1528 q 556 1581 556 1528 l 556 1621 l 702 1621 l 702 1565 q 666 1434 702 1478 q 562 1389 630 1389 z "},"Ậ":{"ha":833,"x_min":11,"x_max":822,"o":"m 11 0 l 320 994 l 516 994 l 822 0 l 603 0 l 449 615 l 417 760 l 412 760 l 382 615 l 226 0 l 11 0 m 153 192 l 206 359 l 617 359 l 674 192 l 153 192 m 415 -367 q 316 -327 356 -367 q 276 -228 276 -287 q 316 -131 276 -171 q 415 -90 356 -90 q 514 -131 474 -90 q 553 -228 553 -171 q 514 -327 553 -287 q 415 -367 474 -367 m 115 1138 l 115 1147 l 316 1400 l 520 1400 l 722 1147 l 722 1138 l 516 1138 l 396 1342 l 441 1342 l 320 1138 l 115 1138 z "},"Ắ":{"ha":833,"x_min":11,"x_max":822,"o":"m 11 0 l 320 994 l 516 994 l 822 0 l 603 0 l 449 615 l 417 760 l 412 760 l 382 615 l 226 0 l 11 0 m 153 192 l 206 359 l 617 359 l 674 192 l 153 192 m 418 1070 q 377 1070 418 1070 q 273 1103 335 1070 q 175 1196 210 1137 q 140 1332 140 1255 l 140 1338 l 283 1338 l 283 1330 q 319 1234 283 1270 q 418 1199 355 1199 q 518 1234 482 1199 q 553 1330 553 1270 l 553 1338 l 697 1338 l 697 1332 q 661 1196 697 1255 q 564 1103 626 1137 q 418 1070 501 1070 m 338 1322 l 338 1331 l 417 1598 l 617 1598 l 617 1588 l 449 1322 l 338 1322 z "},"Ằ":{"ha":833,"x_min":11,"x_max":822,"o":"m 11 0 l 320 994 l 516 994 l 822 0 l 603 0 l 449 615 l 417 760 l 412 760 l 382 615 l 226 0 l 11 0 m 153 192 l 206 359 l 617 359 l 674 192 l 153 192 m 418 1070 q 377 1070 418 1070 q 273 1103 335 1070 q 175 1196 210 1137 q 140 1332 140 1255 l 140 1338 l 283 1338 l 283 1330 q 319 1234 283 1270 q 418 1199 355 1199 q 518 1234 482 1199 q 553 1330 553 1270 l 553 1338 l 697 1338 l 697 1332 q 661 1196 697 1255 q 564 1103 626 1137 q 418 1070 501 1070 m 389 1322 l 208 1588 l 208 1598 l 403 1598 l 506 1331 l 506 1322 l 389 1322 z "},"Ẳ":{"ha":833,"x_min":11,"x_max":822,"o":"m 11 0 l 320 994 l 516 994 l 822 0 l 603 0 l 449 615 l 417 760 l 412 760 l 382 615 l 226 0 l 11 0 m 153 192 l 206 359 l 617 359 l 674 192 l 153 192 m 418 1070 q 271 1104 335 1070 q 169 1197 206 1138 q 133 1334 133 1257 l 133 1340 l 273 1340 l 273 1332 q 310 1233 273 1269 q 418 1196 347 1196 q 527 1233 490 1196 q 564 1332 564 1269 l 564 1340 l 703 1340 l 703 1334 q 667 1197 703 1257 q 566 1104 631 1138 q 418 1070 501 1070 m 369 1288 l 357 1399 q 446 1455 446 1406 q 364 1505 446 1505 q 258 1490 311 1505 l 226 1610 q 368 1633 295 1633 q 514 1588 460 1633 q 567 1467 567 1543 q 515 1345 567 1393 q 369 1288 463 1298 z "},"Ẵ":{"ha":833,"x_min":11,"x_max":822,"o":"m 11 0 l 320 994 l 516 994 l 822 0 l 603 0 l 449 615 l 417 760 l 412 760 l 382 615 l 226 0 l 11 0 m 153 192 l 206 359 l 617 359 l 674 192 l 153 192 m 418 1070 q 279 1102 339 1070 q 186 1192 219 1135 q 153 1324 153 1249 l 153 1330 l 299 1330 l 299 1322 q 331 1231 299 1265 q 418 1197 363 1197 q 506 1231 474 1197 q 538 1322 538 1265 l 538 1330 l 684 1330 l 684 1324 q 651 1192 684 1249 q 558 1102 617 1135 q 418 1070 498 1070 m 565 1401 q 496 1413 528 1401 q 428 1450 464 1426 q 367 1488 389 1478 q 324 1499 346 1499 q 290 1486 302 1499 q 278 1449 278 1473 l 278 1403 l 132 1403 l 132 1467 q 172 1594 132 1549 q 281 1638 211 1638 q 349 1625 317 1638 q 415 1588 381 1612 q 476 1550 454 1560 q 517 1540 497 1540 q 559 1589 559 1540 l 559 1635 l 705 1635 l 705 1572 q 669 1444 705 1488 q 565 1401 633 1401 z "},"Ặ":{"ha":833,"x_min":11,"x_max":822,"o":"m 11 0 l 320 994 l 516 994 l 822 0 l 603 0 l 449 615 l 417 760 l 412 760 l 382 615 l 226 0 l 11 0 m 153 192 l 206 359 l 617 359 l 674 192 l 153 192 m 415 -367 q 316 -327 356 -367 q 276 -228 276 -287 q 316 -131 276 -171 q 415 -90 356 -90 q 514 -131 474 -90 q 553 -228 553 -171 q 514 -327 553 -287 q 415 -367 474 -367 m 418 1130 q 378 1130 418 1130 q 278 1163 338 1130 q 184 1255 218 1196 q 151 1392 151 1314 l 151 1400 l 306 1400 l 306 1388 q 336 1302 306 1333 q 418 1272 366 1272 q 500 1302 470 1272 q 530 1388 530 1333 l 530 1400 l 685 1400 l 685 1392 q 652 1255 685 1314 q 558 1163 618 1196 q 418 1130 498 1130 z "},"Ɓ":{"ha":833,"x_min":-25,"x_max":826,"o":"m 284 0 l 284 994 l 519 994 q 724 927 648 994 q 800 744 800 860 l 800 729 q 761 600 800 656 q 650 514 722 544 l 650 508 q 781 424 736 484 q 826 274 826 365 l 826 258 q 790 123 826 181 q 689 33 754 65 q 538 0 624 0 l 284 0 m 12 563 q -15 651 -6 608 q -25 726 -25 693 q 11 866 -25 806 q 112 960 47 926 q 263 994 177 994 l 399 994 l 399 841 l 266 841 q 186 810 213 841 q 158 720 158 779 q 163 668 158 694 q 178 615 168 642 l 12 563 m 460 157 l 515 157 q 604 189 575 157 q 633 285 633 220 l 633 299 q 603 396 633 365 q 509 428 572 428 l 399 428 l 399 582 l 509 582 q 588 613 562 582 q 614 705 614 643 l 614 715 q 589 808 614 778 q 509 838 563 838 l 460 838 l 460 157 z "},"Ç":{"ha":833,"x_min":53,"x_max":795,"o":"m 456 -24 q 244 39 335 -24 q 103 216 153 102 q 53 482 53 329 l 53 513 q 102 780 53 667 q 240 956 151 894 q 449 1018 328 1018 q 664 947 578 1018 q 783 744 751 876 l 585 685 q 535 785 568 753 q 447 817 502 817 q 317 738 363 817 q 271 516 271 660 l 271 478 q 320 257 271 337 q 455 178 369 178 q 598 315 564 178 l 795 256 q 674 50 763 124 q 456 -24 585 -24 m 458 -457 q 329 -421 390 -457 q 234 -324 269 -385 l 351 -253 q 458 -326 393 -326 q 515 -308 493 -326 q 536 -258 536 -289 q 517 -207 536 -226 q 465 -189 497 -189 q 398 -210 427 -189 l 317 -140 l 413 13 l 521 13 l 406 -167 l 351 -137 q 415 -93 378 -109 q 490 -78 451 -78 q 623 -128 573 -78 q 674 -263 674 -179 q 614 -403 674 -349 q 458 -457 554 -457 z "},"Ć":{"ha":833,"x_min":53,"x_max":795,"o":"m 456 -24 q 244 39 335 -24 q 103 216 153 102 q 53 482 53 329 l 53 513 q 102 780 53 667 q 240 956 151 894 q 449 1018 328 1018 q 664 947 578 1018 q 783 744 751 876 l 585 685 q 535 785 568 753 q 447 817 502 817 q 317 738 363 817 q 271 516 271 660 l 271 478 q 320 257 271 337 q 455 178 369 178 q 598 315 564 178 l 795 256 q 674 50 763 124 q 456 -24 585 -24 m 356 1138 l 356 1147 l 500 1400 l 742 1400 l 742 1391 l 540 1138 l 356 1138 z "},"Ċ":{"ha":833,"x_min":53,"x_max":795,"o":"m 456 -24 q 244 39 335 -24 q 103 216 153 102 q 53 482 53 329 l 53 513 q 102 780 53 667 q 240 956 151 894 q 449 1018 328 1018 q 664 947 578 1018 q 783 744 751 876 l 585 685 q 535 785 568 753 q 447 817 502 817 q 317 738 363 817 q 271 516 271 660 l 271 478 q 320 257 271 337 q 455 178 369 178 q 598 315 564 178 l 795 256 q 674 50 763 124 q 456 -24 585 -24 m 448 1129 q 349 1169 390 1129 q 309 1267 309 1209 q 349 1365 309 1325 q 448 1406 389 1406 q 547 1365 508 1406 q 587 1267 587 1325 q 547 1169 587 1209 q 448 1129 508 1129 z "},"Č":{"ha":833,"x_min":53,"x_max":795,"o":"m 456 -24 q 244 39 335 -24 q 103 216 153 102 q 53 482 53 329 l 53 513 q 102 780 53 667 q 240 956 151 894 q 449 1018 328 1018 q 664 947 578 1018 q 783 744 751 876 l 585 685 q 535 785 568 753 q 447 817 502 817 q 317 738 363 817 q 271 516 271 660 l 271 478 q 320 257 271 337 q 455 178 369 178 q 598 315 564 178 l 795 256 q 674 50 763 124 q 456 -24 585 -24 m 346 1138 l 144 1390 l 144 1400 l 350 1400 l 468 1195 l 428 1195 l 546 1400 l 751 1400 l 751 1390 l 550 1138 l 346 1138 z "},"Ď":{"ha":833,"x_min":81,"x_max":778,"o":"m 81 0 l 81 994 l 371 994 q 587 935 496 994 q 728 768 678 876 q 778 513 778 660 l 778 482 q 728 226 778 335 q 587 59 678 118 q 371 0 496 0 l 81 0 m 293 200 l 368 200 q 512 270 464 200 q 560 478 560 340 l 560 516 q 511 725 560 655 q 368 794 463 794 l 293 794 l 293 200 m 295 1138 l 94 1390 l 94 1400 l 299 1400 l 417 1195 l 378 1195 l 495 1400 l 701 1400 l 701 1390 l 499 1138 l 295 1138 z "},"Đ":{"ha":833,"x_min":22,"x_max":806,"o":"m 122 0 l 122 994 l 400 994 q 618 937 527 994 q 758 771 709 879 q 806 513 806 663 l 806 482 q 758 223 806 331 q 618 58 709 115 q 400 0 527 0 l 122 0 m 22 416 l 22 605 l 501 605 l 501 416 l 22 416 m 308 193 l 399 193 q 560 264 510 193 q 609 478 609 335 l 609 516 q 560 731 609 660 q 399 801 510 801 l 308 801 l 308 193 z "},"Ɗ":{"ha":833,"x_min":5,"x_max":821,"o":"m 299 0 l 299 994 l 467 994 q 658 938 579 994 q 779 780 738 882 q 821 538 821 677 l 821 457 q 779 215 821 318 q 658 56 738 113 q 467 0 579 0 l 299 0 m 40 572 q 14 652 22 612 q 5 729 5 693 q 41 868 5 809 q 143 961 78 928 q 292 994 208 994 l 388 994 l 388 842 l 295 842 q 217 810 244 842 q 189 719 189 778 q 193 671 189 694 q 206 625 198 648 l 40 572 m 470 179 l 499 179 q 606 245 569 179 q 642 453 642 311 l 642 541 q 605 750 642 684 q 499 815 569 815 l 470 815 l 470 179 z "},"Ǆ":{"ha":833,"x_min":10,"x_max":895,"o":"m 10 0 l 10 994 l 194 994 q 380 886 319 994 q 440 551 440 778 l 440 443 q 380 109 440 217 q 194 0 319 0 l 10 0 m 167 168 l 193 168 q 259 228 240 168 q 278 440 278 289 l 278 555 q 259 766 278 706 q 193 826 240 826 l 167 826 l 167 168 m 437 0 l 437 133 l 646 825 l 451 825 l 451 994 l 824 994 l 824 862 l 615 169 l 830 169 l 830 0 l 437 0 m 547 1138 l 379 1391 l 379 1400 l 543 1400 l 656 1196 l 619 1196 l 731 1400 l 895 1400 l 895 1391 l 726 1138 l 547 1138 z "},"ǅ":{"ha":833,"x_min":15,"x_max":892,"o":"m 15 0 l 15 994 l 193 994 q 390 886 326 994 q 455 551 455 778 l 455 443 q 390 109 455 217 q 193 0 326 0 l 15 0 m 172 168 l 203 168 q 275 228 254 168 q 295 440 295 289 l 295 555 q 275 766 295 706 q 203 826 254 826 l 172 826 l 172 168 m 476 0 l 476 132 l 658 574 l 490 574 l 490 731 l 827 731 l 827 599 l 645 157 l 832 157 l 832 0 l 476 0 m 570 874 l 424 1127 l 424 1136 l 584 1136 l 674 942 l 642 942 l 732 1136 l 892 1136 l 892 1127 l 745 874 l 570 874 z "},"È":{"ha":833,"x_min":100,"x_max":729,"o":"m 100 0 l 100 994 l 718 994 l 718 796 l 313 796 l 313 199 l 729 199 l 729 0 l 100 0 m 231 409 l 231 606 l 663 606 l 663 409 l 231 409 m 317 1138 l 116 1391 l 116 1400 l 358 1400 l 501 1147 l 501 1138 l 317 1138 z "},"É":{"ha":833,"x_min":100,"x_max":729,"o":"m 100 0 l 100 994 l 718 994 l 718 796 l 313 796 l 313 199 l 729 199 l 729 0 l 100 0 m 231 409 l 231 606 l 663 606 l 663 409 l 231 409 m 317 1138 l 317 1147 l 461 1400 l 703 1400 l 703 1391 l 501 1138 l 317 1138 z "},"Ê":{"ha":833,"x_min":100,"x_max":729,"o":"m 100 0 l 100 994 l 718 994 l 718 796 l 313 796 l 313 199 l 729 199 l 729 0 l 100 0 m 231 409 l 231 606 l 663 606 l 663 409 l 231 409 m 106 1138 l 106 1147 l 307 1400 l 511 1400 l 713 1147 l 713 1138 l 507 1138 l 387 1342 l 432 1342 l 311 1138 l 106 1138 z "},"Ë":{"ha":833,"x_min":87,"x_max":731,"o":"m 100 0 l 100 994 l 718 994 l 718 796 l 313 796 l 313 199 l 729 199 l 729 0 l 100 0 m 231 409 l 231 606 l 663 606 l 663 409 l 231 409 m 220 1129 q 126 1167 165 1129 q 87 1260 87 1206 q 126 1353 87 1315 q 220 1392 165 1392 q 315 1354 276 1392 q 353 1260 353 1316 q 315 1167 353 1205 q 220 1129 277 1129 m 598 1129 q 503 1167 542 1129 q 465 1260 465 1206 q 503 1353 465 1315 q 598 1392 542 1392 q 693 1354 654 1392 q 731 1260 731 1316 q 693 1167 731 1205 q 598 1129 655 1129 z "},"Ē":{"ha":833,"x_min":100,"x_max":729,"o":"m 100 0 l 100 994 l 718 994 l 718 796 l 313 796 l 313 199 l 729 199 l 729 0 l 100 0 m 231 409 l 231 606 l 663 606 l 663 409 l 231 409 m 185 1177 l 185 1348 l 633 1348 l 633 1177 l 185 1177 z "},"Ė":{"ha":833,"x_min":100,"x_max":729,"o":"m 100 0 l 100 994 l 718 994 l 718 796 l 313 796 l 313 199 l 729 199 l 729 0 l 100 0 m 231 409 l 231 606 l 663 606 l 663 409 l 231 409 m 409 1129 q 310 1169 351 1129 q 270 1267 270 1209 q 310 1365 270 1325 q 409 1406 350 1406 q 508 1365 469 1406 q 548 1267 548 1325 q 508 1169 548 1209 q 409 1129 469 1129 z "},"Ę":{"ha":833,"x_min":100,"x_max":765,"o":"m 100 0 l 100 994 l 718 994 l 718 796 l 313 796 l 313 199 l 729 199 l 729 0 l 100 0 m 231 409 l 231 606 l 663 606 l 663 409 l 231 409 m 626 -381 q 523 -355 568 -381 q 451 -286 477 -330 q 424 -188 424 -243 q 488 -37 424 -103 q 685 78 551 28 l 729 0 q 620 -75 653 -39 q 586 -156 586 -111 q 608 -208 586 -187 q 665 -228 631 -228 q 724 -214 696 -228 l 765 -344 q 626 -381 701 -381 z "},"Ě":{"ha":833,"x_min":100,"x_max":729,"o":"m 100 0 l 100 994 l 718 994 l 718 796 l 313 796 l 313 199 l 729 199 l 729 0 l 100 0 m 231 409 l 231 606 l 663 606 l 663 409 l 231 409 m 307 1138 l 106 1390 l 106 1400 l 311 1400 l 429 1195 l 390 1195 l 507 1400 l 713 1400 l 713 1390 l 511 1138 l 307 1138 z "},"Ẹ":{"ha":833,"x_min":100,"x_max":729,"o":"m 100 0 l 100 994 l 718 994 l 718 796 l 313 796 l 313 199 l 729 199 l 729 0 l 100 0 m 231 409 l 231 606 l 663 606 l 663 409 l 231 409 m 415 -383 q 316 -343 356 -383 q 276 -245 276 -303 q 316 -147 276 -187 q 415 -107 356 -107 q 514 -147 474 -107 q 553 -245 553 -187 q 514 -343 553 -303 q 415 -383 474 -383 z "},"Ẻ":{"ha":833,"x_min":100,"x_max":729,"o":"m 100 0 l 100 994 l 718 994 l 718 796 l 313 796 l 313 199 l 729 199 l 729 0 l 100 0 m 231 409 l 231 606 l 663 606 l 663 409 l 231 409 m 388 1073 l 367 1210 q 456 1231 427 1215 q 485 1279 485 1247 q 403 1338 485 1338 q 274 1315 340 1338 l 234 1450 q 319 1478 274 1468 q 406 1488 363 1488 q 569 1434 508 1488 q 631 1292 631 1381 q 568 1141 631 1197 q 388 1073 505 1084 z "},"Ẽ":{"ha":833,"x_min":100,"x_max":729,"o":"m 100 0 l 100 994 l 718 994 l 718 796 l 313 796 l 313 199 l 729 199 l 729 0 l 100 0 m 231 409 l 231 606 l 663 606 l 663 409 l 231 409 m 533 1138 q 466 1153 499 1138 q 397 1202 433 1168 q 355 1238 371 1227 q 324 1249 339 1249 q 285 1198 285 1249 l 285 1140 l 135 1140 l 135 1203 q 176 1351 135 1299 q 294 1402 217 1402 q 357 1388 327 1402 q 422 1339 387 1374 q 464 1302 448 1313 q 497 1291 481 1291 q 533 1342 533 1291 l 533 1400 l 684 1400 l 684 1338 q 647 1190 684 1241 q 533 1138 610 1138 z "},"Ế":{"ha":833,"x_min":89,"x_max":853,"o":"m 100 0 l 100 994 l 718 994 l 718 796 l 313 796 l 313 199 l 729 199 l 729 0 l 100 0 m 231 409 l 231 606 l 663 606 l 663 409 l 231 409 m 89 1072 l 89 1081 l 326 1327 l 492 1327 l 730 1081 l 730 1072 l 520 1072 l 396 1228 l 423 1228 l 299 1072 l 89 1072 m 569 1285 l 569 1294 l 675 1576 l 853 1576 l 853 1567 l 698 1285 l 569 1285 z "},"Ề":{"ha":833,"x_min":89,"x_max":803,"o":"m 100 0 l 100 994 l 718 994 l 718 796 l 313 796 l 313 199 l 729 199 l 729 0 l 100 0 m 231 409 l 231 606 l 663 606 l 663 409 l 231 409 m 89 1072 l 89 1081 l 326 1327 l 492 1327 l 730 1081 l 730 1072 l 520 1072 l 396 1228 l 423 1228 l 299 1072 l 89 1072 m 660 1284 l 474 1565 l 474 1574 l 656 1574 l 803 1293 l 803 1284 l 660 1284 z "},"Ể":{"ha":833,"x_min":89,"x_max":819,"o":"m 100 0 l 100 994 l 718 994 l 718 796 l 313 796 l 313 199 l 729 199 l 729 0 l 100 0 m 231 409 l 231 606 l 663 606 l 663 409 l 231 409 m 89 1072 l 89 1081 l 326 1327 l 492 1327 l 730 1081 l 730 1072 l 520 1072 l 396 1228 l 423 1228 l 299 1072 l 89 1072 m 629 1247 l 613 1366 q 697 1422 697 1372 q 619 1474 697 1474 q 516 1459 567 1474 l 486 1580 q 623 1603 549 1603 q 766 1556 713 1603 q 819 1433 819 1510 q 769 1306 819 1354 q 629 1247 719 1257 z "},"Ễ":{"ha":833,"x_min":89,"x_max":730,"o":"m 100 0 l 100 994 l 718 994 l 718 796 l 313 796 l 313 199 l 729 199 l 729 0 l 100 0 m 231 409 l 231 606 l 663 606 l 663 409 l 231 409 m 89 1072 l 89 1081 l 326 1327 l 492 1327 l 730 1081 l 730 1072 l 520 1072 l 396 1228 l 423 1228 l 299 1072 l 89 1072 m 553 1389 q 485 1401 517 1389 q 419 1437 454 1413 q 360 1474 381 1463 q 317 1484 338 1484 q 272 1430 272 1484 l 272 1391 l 126 1391 l 126 1447 q 165 1577 126 1531 q 274 1623 205 1623 q 341 1611 310 1623 q 406 1574 372 1599 q 465 1538 444 1548 q 505 1528 486 1528 q 547 1581 547 1528 l 547 1621 l 693 1621 l 693 1565 q 657 1434 693 1478 q 553 1389 621 1389 z "},"Ệ":{"ha":833,"x_min":100,"x_max":729,"o":"m 100 0 l 100 994 l 718 994 l 718 796 l 313 796 l 313 199 l 729 199 l 729 0 l 100 0 m 231 409 l 231 606 l 663 606 l 663 409 l 231 409 m 415 -383 q 316 -343 356 -383 q 276 -245 276 -303 q 316 -147 276 -187 q 415 -107 356 -107 q 514 -147 474 -107 q 553 -245 553 -187 q 514 -343 553 -303 q 415 -383 474 -383 m 106 1138 l 106 1147 l 307 1400 l 511 1400 l 713 1147 l 713 1138 l 507 1138 l 387 1342 l 432 1342 l 311 1138 l 106 1138 z "},"Ð":{"ha":833,"x_min":22,"x_max":806,"o":"m 122 0 l 122 994 l 400 994 q 618 937 527 994 q 758 771 709 879 q 806 513 806 663 l 806 482 q 758 223 806 331 q 618 58 709 115 q 400 0 527 0 l 122 0 m 22 416 l 22 605 l 501 605 l 501 416 l 22 416 m 308 193 l 399 193 q 560 264 510 193 q 609 478 609 335 l 609 516 q 560 731 609 660 q 399 801 510 801 l 308 801 l 308 193 z "},"Ŋ":{"ha":833,"x_min":67,"x_max":787,"o":"m 485 -323 q 232 -237 340 -323 l 346 -72 q 472 -122 405 -122 q 547 -92 521 -122 q 573 -10 573 -63 l 573 660 q 541 777 573 737 q 444 817 508 817 q 360 793 397 817 q 302 727 323 769 q 281 627 281 685 l 281 0 l 67 0 l 67 994 l 271 994 l 271 858 l 277 858 q 388 976 322 935 q 540 1018 453 1018 q 721 939 656 1018 q 787 726 787 860 l 787 -3 q 749 -170 787 -99 q 643 -283 711 -242 q 485 -323 576 -323 z "},"Ğ":{"ha":833,"x_min":43,"x_max":807,"o":"m 451 -24 q 233 38 325 -24 q 92 213 142 99 q 43 483 43 326 l 43 509 q 92 780 43 666 q 232 956 141 894 q 447 1018 322 1018 q 661 953 575 1018 q 783 764 747 888 l 590 698 q 539 789 573 760 q 448 818 504 818 q 307 740 356 818 q 258 513 258 661 l 258 479 q 308 252 258 330 q 452 174 358 174 q 568 224 527 174 q 610 365 610 274 l 610 395 l 417 395 l 417 567 l 807 567 l 807 408 q 714 89 807 201 q 451 -24 622 -24 m 447 1130 q 407 1130 447 1130 q 307 1163 367 1130 q 214 1255 247 1196 q 180 1392 180 1314 l 180 1400 l 335 1400 l 335 1388 q 365 1302 335 1333 q 447 1272 395 1272 q 529 1302 499 1272 q 559 1388 559 1333 l 559 1400 l 715 1400 l 715 1392 q 681 1255 715 1314 q 587 1163 647 1196 q 447 1130 527 1130 z "},"Ġ":{"ha":833,"x_min":43,"x_max":807,"o":"m 451 -24 q 233 38 325 -24 q 92 213 142 99 q 43 483 43 326 l 43 509 q 92 780 43 666 q 232 956 141 894 q 447 1018 322 1018 q 661 953 575 1018 q 783 764 747 888 l 590 698 q 539 789 573 760 q 448 818 504 818 q 307 740 356 818 q 258 513 258 661 l 258 479 q 308 252 258 330 q 452 174 358 174 q 568 224 527 174 q 610 365 610 274 l 610 395 l 417 395 l 417 567 l 807 567 l 807 408 q 714 89 807 201 q 451 -24 622 -24 m 447 1129 q 349 1169 389 1129 q 308 1267 308 1209 q 348 1365 308 1325 q 447 1406 388 1406 q 547 1365 507 1406 q 586 1267 586 1325 q 547 1169 586 1209 q 447 1129 507 1129 z "},"Ģ":{"ha":833,"x_min":43,"x_max":807,"o":"m 451 -24 q 233 38 325 -24 q 92 213 142 99 q 43 483 43 326 l 43 509 q 92 780 43 666 q 232 956 141 894 q 447 1018 322 1018 q 661 953 575 1018 q 783 764 747 888 l 590 698 q 539 789 573 760 q 448 818 504 818 q 307 740 356 818 q 258 513 258 661 l 258 479 q 308 252 258 330 q 452 174 358 174 q 568 224 527 174 q 610 365 610 274 l 610 395 l 417 395 l 417 567 l 807 567 l 807 408 q 714 89 807 201 q 451 -24 622 -24 m 416 -599 l 300 -518 l 459 -303 l 455 -362 q 362 -323 398 -358 q 326 -234 326 -287 q 364 -143 326 -178 q 460 -107 402 -107 q 562 -147 523 -107 q 601 -250 601 -186 q 584 -333 601 -290 q 529 -432 568 -375 l 416 -599 z "},"Ħ":{"ha":833,"x_min":8,"x_max":825,"o":"m 523 0 l 523 994 l 724 994 l 724 0 l 523 0 m 110 0 l 110 994 l 311 994 l 311 0 l 110 0 m 220 371 l 220 558 l 622 558 l 622 371 l 220 371 m 8 699 l 8 866 l 825 866 l 825 699 l 8 699 z "},"Ì":{"ha":833,"x_min":99,"x_max":735,"o":"m 309 97 l 309 898 l 524 898 l 524 97 l 309 97 m 99 0 l 99 201 l 735 201 l 735 0 l 99 0 m 99 794 l 99 994 l 735 994 l 735 794 l 99 794 m 324 1138 l 124 1391 l 124 1400 l 365 1400 l 509 1147 l 509 1138 l 324 1138 z "},"Í":{"ha":833,"x_min":99,"x_max":735,"o":"m 309 97 l 309 898 l 524 898 l 524 97 l 309 97 m 99 0 l 99 201 l 735 201 l 735 0 l 99 0 m 99 794 l 99 994 l 735 994 l 735 794 l 99 794 m 324 1138 l 324 1147 l 469 1400 l 710 1400 l 710 1391 l 509 1138 l 324 1138 z "},"Î":{"ha":833,"x_min":99,"x_max":735,"o":"m 309 97 l 309 898 l 524 898 l 524 97 l 309 97 m 99 0 l 99 201 l 735 201 l 735 0 l 99 0 m 99 794 l 99 994 l 735 994 l 735 794 l 99 794 m 113 1138 l 113 1147 l 315 1400 l 519 1400 l 720 1147 l 720 1138 l 515 1138 l 394 1342 l 440 1342 l 319 1138 l 113 1138 z "},"Ī":{"ha":833,"x_min":99,"x_max":735,"o":"m 309 97 l 309 898 l 524 898 l 524 97 l 309 97 m 99 0 l 99 201 l 735 201 l 735 0 l 99 0 m 99 794 l 99 994 l 735 994 l 735 794 l 99 794 m 192 1177 l 192 1348 l 641 1348 l 641 1177 l 192 1177 z "},"Ï":{"ha":833,"x_min":94,"x_max":739,"o":"m 309 97 l 309 898 l 524 898 l 524 97 l 309 97 m 99 0 l 99 201 l 735 201 l 735 0 l 99 0 m 99 794 l 99 994 l 735 994 l 735 794 l 99 794 m 228 1129 q 133 1167 172 1129 q 94 1260 94 1206 q 133 1353 94 1315 q 228 1392 172 1392 q 323 1354 284 1392 q 361 1260 361 1316 q 323 1167 361 1205 q 228 1129 285 1129 m 606 1129 q 511 1167 550 1129 q 472 1260 472 1206 q 511 1353 472 1315 q 606 1392 550 1392 q 700 1354 662 1392 q 739 1260 739 1316 q 701 1167 739 1205 q 606 1129 663 1129 z "},"Į":{"ha":833,"x_min":99,"x_max":735,"o":"m 309 97 l 309 898 l 524 898 l 524 97 l 309 97 m 99 0 l 99 201 l 735 201 l 735 0 l 99 0 m 99 794 l 99 994 l 735 994 l 735 794 l 99 794 m 434 -381 q 331 -355 376 -381 q 259 -286 285 -330 q 233 -188 233 -243 q 296 -37 233 -103 q 494 78 359 28 l 538 0 q 428 -75 462 -39 q 394 -156 394 -111 q 417 -208 394 -187 q 474 -228 439 -228 q 533 -214 504 -228 l 573 -344 q 434 -381 510 -381 z "},"İ":{"ha":833,"x_min":99,"x_max":735,"o":"m 309 97 l 309 898 l 524 898 l 524 97 l 309 97 m 99 0 l 99 201 l 735 201 l 735 0 l 99 0 m 99 794 l 99 994 l 735 994 l 735 794 l 99 794 m 417 1129 q 318 1169 358 1129 q 278 1267 278 1209 q 318 1365 278 1325 q 417 1406 358 1406 q 516 1365 476 1406 q 556 1267 556 1325 q 516 1169 556 1209 q 417 1129 476 1129 z "},"Ĳ":{"ha":833,"x_min":75,"x_max":758,"o":"m 426 -24 q 202 44 292 -24 q 75 238 112 112 l 283 301 q 421 183 317 183 q 511 222 479 183 q 543 331 543 261 l 543 994 l 758 994 l 758 326 q 717 143 758 222 q 601 20 676 64 q 426 -24 526 -24 m 75 427 l 75 994 l 290 994 l 290 427 l 75 427 z "},"Ĩ":{"ha":833,"x_min":99,"x_max":735,"o":"m 309 97 l 309 898 l 524 898 l 524 97 l 309 97 m 99 0 l 99 201 l 735 201 l 735 0 l 99 0 m 99 794 l 99 994 l 735 994 l 735 794 l 99 794 m 541 1138 q 474 1153 507 1138 q 405 1202 441 1168 q 363 1238 378 1227 q 331 1249 347 1249 q 292 1198 292 1249 l 292 1140 l 142 1140 l 142 1203 q 183 1351 142 1299 q 301 1402 224 1402 q 365 1388 335 1402 q 429 1339 394 1374 q 472 1302 456 1313 q 504 1291 488 1291 q 541 1342 541 1291 l 541 1400 l 692 1400 l 692 1338 q 655 1190 692 1241 q 541 1138 617 1138 z "},"Ỉ":{"ha":833,"x_min":99,"x_max":735,"o":"m 309 97 l 309 898 l 524 898 l 524 97 l 309 97 m 99 0 l 99 201 l 735 201 l 735 0 l 99 0 m 99 794 l 99 994 l 735 994 l 735 794 l 99 794 m 395 1073 l 375 1210 q 464 1231 435 1215 q 492 1279 492 1247 q 410 1338 492 1338 q 281 1315 348 1338 l 242 1450 q 326 1478 282 1468 q 414 1488 371 1488 q 577 1434 516 1488 q 638 1292 638 1381 q 575 1141 638 1197 q 395 1073 513 1084 z "},"Ị":{"ha":833,"x_min":99,"x_max":735,"o":"m 309 97 l 309 898 l 524 898 l 524 97 l 309 97 m 99 0 l 99 201 l 735 201 l 735 0 l 99 0 m 99 794 l 99 994 l 735 994 l 735 794 l 99 794 m 417 -383 q 318 -343 358 -383 q 278 -245 278 -303 q 318 -147 278 -187 q 417 -107 358 -107 q 516 -147 476 -107 q 556 -245 556 -187 q 516 -343 556 -303 q 417 -383 476 -383 z "},"Ķ":{"ha":833,"x_min":65,"x_max":815,"o":"m 570 0 l 273 499 l 273 505 l 558 994 l 801 994 l 480 467 l 480 549 l 815 0 l 570 0 m 65 0 l 65 994 l 279 994 l 279 0 l 65 0 m 365 -599 l 249 -518 l 408 -303 l 403 -362 q 310 -323 347 -358 q 274 -234 274 -287 q 313 -143 274 -178 q 409 -107 351 -107 q 510 -147 472 -107 q 549 -250 549 -186 q 533 -333 549 -290 q 478 -432 517 -375 l 365 -599 z "},"Ƙ":{"ha":833,"x_min":51,"x_max":844,"o":"m 556 0 l 259 513 l 259 519 l 407 801 q 530 966 465 913 q 694 1018 595 1018 q 775 1008 741 1018 q 844 976 810 997 l 761 797 q 735 811 748 806 q 705 815 723 815 q 643 791 671 815 q 580 710 615 767 l 466 524 l 466 563 l 801 0 l 556 0 m 51 0 l 51 994 l 265 994 l 265 0 l 51 0 z "},"Ĺ":{"ha":833,"x_min":113,"x_max":769,"o":"m 113 0 l 113 994 l 326 994 l 326 201 l 769 201 l 769 0 l 113 0 m 127 1138 l 127 1147 l 272 1400 l 513 1400 l 513 1391 l 312 1138 l 127 1138 z "},"Ľ":{"ha":833,"x_min":113,"x_max":769,"o":"m 461 617 l 491 994 l 708 994 l 636 617 l 461 617 m 113 0 l 113 994 l 326 994 l 326 201 l 769 201 l 769 0 l 113 0 z "},"Ļ":{"ha":833,"x_min":113,"x_max":769,"o":"m 113 0 l 113 994 l 326 994 l 326 201 l 769 201 l 769 0 l 113 0 m 381 -599 l 265 -518 l 424 -303 l 419 -362 q 326 -323 363 -358 q 290 -234 290 -287 q 328 -143 290 -178 q 425 -107 367 -107 q 526 -147 488 -107 q 565 -250 565 -186 q 549 -333 565 -290 q 494 -432 533 -375 l 381 -599 z "},"Ł":{"ha":833,"x_min":2,"x_max":781,"o":"m 184 0 l 184 994 l 381 994 l 381 201 l 781 201 l 781 0 l 184 0 m 2 238 l 2 447 l 201 566 l 242 579 l 665 834 l 665 626 l 235 370 l 201 360 l 2 238 z "},"Ŀ":{"ha":833,"x_min":113,"x_max":774,"o":"m 113 0 l 113 994 l 326 994 l 326 201 l 769 201 l 769 0 l 113 0 m 631 436 q 529 477 571 436 q 488 579 488 519 q 529 680 488 639 q 631 722 571 722 q 733 680 692 722 q 774 579 774 639 q 733 477 774 519 q 631 436 692 436 z "},"Ǉ":{"ha":833,"x_min":7,"x_max":827,"o":"m 576 -24 q 481 -12 526 -24 q 396 21 437 -1 l 474 194 q 550 169 508 169 q 605 192 585 169 q 624 257 624 215 l 624 994 l 827 994 l 827 241 q 760 50 827 124 q 576 -24 692 -24 m 7 0 l 7 994 l 210 994 l 210 190 l 374 190 l 374 0 l 7 0 z "},"ǈ":{"ha":833,"x_min":38,"x_max":817,"o":"m 522 -312 q 283 -231 385 -312 l 378 -85 q 505 -133 442 -133 q 611 -8 611 -133 l 611 731 l 806 731 l 806 -12 q 728 -231 806 -150 q 522 -312 651 -312 m 38 0 l 38 994 l 235 994 l 235 192 l 484 192 l 484 0 l 38 0 m 391 575 l 391 731 l 747 731 l 747 575 l 391 575 m 681 865 q 584 905 624 865 q 544 1000 544 944 q 583 1096 544 1058 q 681 1134 622 1134 q 779 1096 741 1134 q 817 1000 817 1058 q 778 904 817 943 q 681 865 739 865 z "},"Ǹ":{"ha":833,"x_min":49,"x_max":785,"o":"m 49 0 l 49 994 l 260 994 l 585 369 l 591 369 l 577 598 l 577 994 l 785 994 l 785 0 l 590 0 l 247 656 l 242 656 l 256 427 l 256 0 l 49 0 m 326 1138 l 126 1391 l 126 1400 l 367 1400 l 511 1147 l 511 1138 l 326 1138 z "},"Ñ":{"ha":833,"x_min":49,"x_max":785,"o":"m 49 0 l 49 994 l 260 994 l 585 369 l 591 369 l 577 598 l 577 994 l 785 994 l 785 0 l 590 0 l 247 656 l 242 656 l 256 427 l 256 0 l 49 0 m 543 1138 q 476 1153 509 1138 q 407 1202 443 1168 q 365 1238 381 1227 q 333 1249 349 1249 q 294 1198 294 1249 l 294 1140 l 144 1140 l 144 1203 q 185 1351 144 1299 q 303 1402 226 1402 q 367 1388 337 1402 q 431 1339 397 1374 q 474 1302 458 1313 q 506 1291 490 1291 q 543 1342 543 1291 l 543 1400 l 694 1400 l 694 1338 q 657 1190 694 1241 q 543 1138 619 1138 z "},"Ń":{"ha":833,"x_min":49,"x_max":785,"o":"m 49 0 l 49 994 l 260 994 l 585 369 l 591 369 l 577 598 l 577 994 l 785 994 l 785 0 l 590 0 l 247 656 l 242 656 l 256 427 l 256 0 l 49 0 m 326 1138 l 326 1147 l 471 1400 l 713 1400 l 713 1391 l 511 1138 l 326 1138 z "},"Ṅ":{"ha":833,"x_min":49,"x_max":785,"o":"m 49 0 l 49 994 l 260 994 l 585 369 l 591 369 l 577 598 l 577 994 l 785 994 l 785 0 l 590 0 l 247 656 l 242 656 l 256 427 l 256 0 l 49 0 m 419 1129 q 320 1169 360 1129 q 280 1267 280 1209 q 320 1365 280 1325 q 419 1406 360 1406 q 518 1365 478 1406 q 558 1267 558 1325 q 518 1169 558 1209 q 419 1129 478 1129 z "},"Ň":{"ha":833,"x_min":49,"x_max":785,"o":"m 49 0 l 49 994 l 260 994 l 585 369 l 591 369 l 577 598 l 577 994 l 785 994 l 785 0 l 590 0 l 247 656 l 242 656 l 256 427 l 256 0 l 49 0 m 317 1138 l 115 1390 l 115 1400 l 321 1400 l 439 1195 l 399 1195 l 517 1400 l 722 1400 l 722 1390 l 521 1138 l 317 1138 z "},"Ņ":{"ha":833,"x_min":49,"x_max":785,"o":"m 49 0 l 49 994 l 260 994 l 585 369 l 591 369 l 577 598 l 577 994 l 785 994 l 785 0 l 590 0 l 247 656 l 242 656 l 256 427 l 256 0 l 49 0 m 380 -599 l 264 -518 l 423 -303 l 419 -362 q 326 -323 362 -358 q 290 -234 290 -287 q 328 -143 290 -178 q 424 -107 366 -107 q 526 -147 487 -107 q 565 -250 565 -186 q 548 -333 565 -290 q 493 -432 532 -375 l 380 -599 z "},"Ǌ":{"ha":833,"x_min":7,"x_max":827,"o":"m 7 0 l 7 994 l 219 994 l 362 258 l 375 258 l 342 738 l 342 994 l 488 994 l 488 0 l 292 0 l 139 790 l 126 790 l 153 321 l 153 0 l 7 0 m 624 -24 q 510 2 560 -24 l 548 149 q 598 135 572 135 q 662 217 662 135 l 662 994 l 827 994 l 827 210 q 773 39 827 101 q 624 -24 719 -24 z "},"ǋ":{"ha":833,"x_min":7,"x_max":849,"o":"m 7 0 l 7 994 l 216 994 l 377 292 l 389 292 l 358 731 l 358 994 l 508 994 l 508 0 l 318 0 l 139 790 l 128 790 l 157 334 l 157 0 l 7 0 m 566 -312 q 345 -228 445 -312 l 438 -103 q 493 -138 468 -128 q 547 -149 518 -149 q 633 -42 633 -149 l 633 731 l 814 731 l 814 -43 q 747 -239 814 -167 q 566 -312 680 -312 m 724 866 q 633 903 669 866 q 598 1000 598 941 q 633 1097 598 1060 q 724 1134 668 1134 q 814 1097 779 1134 q 849 1000 849 1060 q 814 903 849 941 q 724 866 778 866 z "},"Ò":{"ha":833,"x_min":39,"x_max":794,"o":"m 417 -24 q 358 -24 417 -24 q 214 37 299 -24 q 84 211 129 97 q 39 482 39 324 l 39 513 q 84 784 39 671 q 214 958 129 897 q 417 1018 299 1018 q 619 958 535 1018 q 749 784 704 897 q 794 513 794 671 l 794 482 q 749 211 794 324 q 619 37 704 97 q 417 -24 535 -24 m 417 178 q 456 178 417 178 q 536 255 495 178 q 576 478 576 332 l 576 516 q 536 740 576 663 q 417 817 495 817 q 298 740 339 817 q 257 516 257 663 l 257 478 q 298 255 257 332 q 417 178 339 178 m 324 1138 l 124 1391 l 124 1400 l 365 1400 l 509 1147 l 509 1138 l 324 1138 z "},"Ó":{"ha":833,"x_min":39,"x_max":794,"o":"m 417 -24 q 358 -24 417 -24 q 214 37 299 -24 q 84 211 129 97 q 39 482 39 324 l 39 513 q 84 784 39 671 q 214 958 129 897 q 417 1018 299 1018 q 619 958 535 1018 q 749 784 704 897 q 794 513 794 671 l 794 482 q 749 211 794 324 q 619 37 704 97 q 417 -24 535 -24 m 417 178 q 456 178 417 178 q 536 255 495 178 q 576 478 576 332 l 576 516 q 536 740 576 663 q 417 817 495 817 q 298 740 339 817 q 257 516 257 663 l 257 478 q 298 255 257 332 q 417 178 339 178 m 324 1138 l 324 1147 l 469 1400 l 710 1400 l 710 1391 l 509 1138 l 324 1138 z "},"Ô":{"ha":833,"x_min":39,"x_max":794,"o":"m 417 -24 q 358 -24 417 -24 q 214 37 299 -24 q 84 211 129 97 q 39 482 39 324 l 39 513 q 84 784 39 671 q 214 958 129 897 q 417 1018 299 1018 q 619 958 535 1018 q 749 784 704 897 q 794 513 794 671 l 794 482 q 749 211 794 324 q 619 37 704 97 q 417 -24 535 -24 m 417 178 q 456 178 417 178 q 536 255 495 178 q 576 478 576 332 l 576 516 q 536 740 576 663 q 417 817 495 817 q 298 740 339 817 q 257 516 257 663 l 257 478 q 298 255 257 332 q 417 178 339 178 m 113 1138 l 113 1147 l 315 1400 l 519 1400 l 720 1147 l 720 1138 l 515 1138 l 394 1342 l 440 1342 l 319 1138 l 113 1138 z "},"Õ":{"ha":833,"x_min":39,"x_max":794,"o":"m 417 -24 q 358 -24 417 -24 q 214 37 299 -24 q 84 211 129 97 q 39 482 39 324 l 39 513 q 84 784 39 671 q 214 958 129 897 q 417 1018 299 1018 q 619 958 535 1018 q 749 784 704 897 q 794 513 794 671 l 794 482 q 749 211 794 324 q 619 37 704 97 q 417 -24 535 -24 m 417 178 q 456 178 417 178 q 536 255 495 178 q 576 478 576 332 l 576 516 q 536 740 576 663 q 417 817 495 817 q 298 740 339 817 q 257 516 257 663 l 257 478 q 298 255 257 332 q 417 178 339 178 m 541 1138 q 474 1153 507 1138 q 405 1202 441 1168 q 363 1238 378 1227 q 331 1249 347 1249 q 292 1198 292 1249 l 292 1140 l 142 1140 l 142 1203 q 183 1351 142 1299 q 301 1402 224 1402 q 365 1388 335 1402 q 429 1339 394 1374 q 472 1302 456 1313 q 504 1291 488 1291 q 541 1342 541 1291 l 541 1400 l 692 1400 l 692 1338 q 655 1190 692 1241 q 541 1138 617 1138 z "},"Ō":{"ha":833,"x_min":39,"x_max":794,"o":"m 417 -24 q 358 -24 417 -24 q 214 37 299 -24 q 84 211 129 97 q 39 482 39 324 l 39 513 q 84 784 39 671 q 214 958 129 897 q 417 1018 299 1018 q 619 958 535 1018 q 749 784 704 897 q 794 513 794 671 l 794 482 q 749 211 794 324 q 619 37 704 97 q 417 -24 535 -24 m 417 178 q 456 178 417 178 q 536 255 495 178 q 576 478 576 332 l 576 516 q 536 740 576 663 q 417 817 495 817 q 298 740 339 817 q 257 516 257 663 l 257 478 q 298 255 257 332 q 417 178 339 178 m 192 1177 l 192 1348 l 641 1348 l 641 1177 l 192 1177 z "},"Ö":{"ha":833,"x_min":39,"x_max":794,"o":"m 417 -24 q 358 -24 417 -24 q 214 37 299 -24 q 84 211 129 97 q 39 482 39 324 l 39 513 q 84 784 39 671 q 214 958 129 897 q 417 1018 299 1018 q 619 958 535 1018 q 749 784 704 897 q 794 513 794 671 l 794 482 q 749 211 794 324 q 619 37 704 97 q 417 -24 535 -24 m 417 178 q 456 178 417 178 q 536 255 495 178 q 576 478 576 332 l 576 516 q 536 740 576 663 q 417 817 495 817 q 298 740 339 817 q 257 516 257 663 l 257 478 q 298 255 257 332 q 417 178 339 178 m 228 1129 q 133 1167 172 1129 q 94 1260 94 1206 q 133 1353 94 1315 q 228 1392 172 1392 q 323 1354 284 1392 q 361 1260 361 1316 q 323 1167 361 1205 q 228 1129 285 1129 m 606 1129 q 511 1167 550 1129 q 472 1260 472 1206 q 511 1353 472 1315 q 606 1392 550 1392 q 700 1354 662 1392 q 739 1260 739 1316 q 701 1167 739 1205 q 606 1129 663 1129 z "},"Ø":{"ha":833,"x_min":19,"x_max":814,"o":"m 142 -151 l 19 -85 l 691 1145 l 814 1079 l 142 -151 m 422 -24 q 221 40 308 -24 q 85 217 134 103 q 36 482 36 331 l 36 513 q 81 784 36 671 q 210 958 126 897 q 411 1018 294 1018 q 613 955 526 1018 q 748 778 699 892 q 797 513 797 665 l 797 482 q 752 211 797 324 q 624 37 708 98 q 422 -24 540 -24 m 406 161 q 551 240 501 161 q 600 473 600 318 l 600 533 q 562 763 600 692 q 428 833 524 833 q 283 755 333 833 q 233 522 233 677 l 233 462 q 272 232 233 303 q 406 161 310 161 z "},"Ő":{"ha":833,"x_min":39,"x_max":813,"o":"m 417 -24 q 358 -24 417 -24 q 214 37 299 -24 q 84 211 129 97 q 39 482 39 324 l 39 513 q 84 784 39 671 q 214 958 129 897 q 417 1018 299 1018 q 619 958 535 1018 q 749 784 704 897 q 794 513 794 671 l 794 482 q 749 211 794 324 q 619 37 704 97 q 417 -24 535 -24 m 417 178 q 456 178 417 178 q 536 255 495 178 q 576 478 576 332 l 576 516 q 536 740 576 663 q 417 817 495 817 q 298 740 339 817 q 257 516 257 663 l 257 478 q 298 255 257 332 q 417 178 339 178 m 477 1138 l 477 1147 l 588 1400 l 813 1400 l 813 1391 l 645 1138 l 477 1138 m 166 1138 l 166 1147 l 277 1400 l 502 1400 l 502 1391 l 334 1138 l 166 1138 z "},"Ǫ":{"ha":833,"x_min":39,"x_max":794,"o":"m 417 -24 q 358 -24 417 -24 q 214 37 299 -24 q 84 211 129 97 q 39 482 39 324 l 39 513 q 84 784 39 671 q 214 958 129 897 q 417 1018 299 1018 q 619 958 535 1018 q 749 784 704 897 q 794 513 794 671 l 794 482 q 749 211 794 324 q 619 37 704 97 q 417 -24 535 -24 m 417 178 q 456 178 417 178 q 536 255 495 178 q 576 478 576 332 l 576 516 q 536 740 576 663 q 417 817 495 817 q 298 740 339 817 q 257 516 257 663 l 257 478 q 298 255 257 332 q 417 178 339 178 m 492 -359 q 389 -334 434 -359 q 317 -265 343 -308 q 290 -167 290 -222 q 353 -16 290 -81 q 551 99 417 50 l 595 22 q 486 -53 519 -17 q 452 -134 452 -90 q 474 -186 452 -166 q 531 -206 497 -206 q 590 -192 562 -206 l 631 -322 q 492 -359 567 -359 z "},"Œ":{"ha":833,"x_min":21,"x_max":822,"o":"m 274 -24 q 88 102 154 -24 q 21 465 21 228 l 21 529 q 88 892 21 767 q 274 1018 154 1018 q 389 967 344 1018 q 456 820 435 915 l 466 820 l 472 994 l 810 994 l 810 802 l 591 802 l 591 192 l 822 192 l 822 0 l 472 0 l 466 174 l 456 174 q 389 28 435 80 q 274 -24 344 -24 m 315 176 q 389 247 367 176 q 411 460 411 319 l 411 534 q 389 748 411 676 q 315 819 367 819 q 241 748 264 819 q 219 533 219 676 l 219 462 q 241 248 219 319 q 315 176 264 176 m 518 413 l 518 602 l 778 602 l 778 413 l 518 413 z "},"Ọ":{"ha":833,"x_min":39,"x_max":794,"o":"m 417 -24 q 358 -24 417 -24 q 214 37 299 -24 q 84 211 129 97 q 39 482 39 324 l 39 513 q 84 784 39 671 q 214 958 129 897 q 417 1018 299 1018 q 619 958 535 1018 q 749 784 704 897 q 794 513 794 671 l 794 482 q 749 211 794 324 q 619 37 704 97 q 417 -24 535 -24 m 417 178 q 456 178 417 178 q 536 255 495 178 q 576 478 576 332 l 576 516 q 536 740 576 663 q 417 817 495 817 q 298 740 339 817 q 257 516 257 663 l 257 478 q 298 255 257 332 q 417 178 339 178 m 417 -407 q 318 -367 358 -407 q 278 -269 278 -327 q 318 -171 278 -211 q 417 -131 358 -131 q 516 -171 476 -131 q 556 -269 556 -211 q 516 -367 556 -327 q 417 -407 476 -407 z "},"Ỏ":{"ha":833,"x_min":39,"x_max":794,"o":"m 417 -24 q 358 -24 417 -24 q 214 37 299 -24 q 84 211 129 97 q 39 482 39 324 l 39 513 q 84 784 39 671 q 214 958 129 897 q 417 1018 299 1018 q 619 958 535 1018 q 749 784 704 897 q 794 513 794 671 l 794 482 q 749 211 794 324 q 619 37 704 97 q 417 -24 535 -24 m 417 178 q 456 178 417 178 q 536 255 495 178 q 576 478 576 332 l 576 516 q 536 740 576 663 q 417 817 495 817 q 298 740 339 817 q 257 516 257 663 l 257 478 q 298 255 257 332 q 417 178 339 178 m 395 1073 l 375 1210 q 464 1231 435 1215 q 492 1279 492 1247 q 410 1338 492 1338 q 281 1315 348 1338 l 242 1450 q 326 1478 282 1468 q 414 1488 371 1488 q 577 1434 516 1488 q 638 1292 638 1381 q 575 1141 638 1197 q 395 1073 513 1084 z "},"Ố":{"ha":833,"x_min":39,"x_max":860,"o":"m 417 -24 q 358 -24 417 -24 q 214 37 299 -24 q 84 211 129 97 q 39 482 39 324 l 39 513 q 84 784 39 671 q 214 958 129 897 q 417 1018 299 1018 q 619 958 535 1018 q 749 784 704 897 q 794 513 794 671 l 794 482 q 749 211 794 324 q 619 37 704 97 q 417 -24 535 -24 m 417 178 q 456 178 417 178 q 536 255 495 178 q 576 478 576 332 l 576 516 q 536 740 576 663 q 417 817 495 817 q 298 740 339 817 q 257 516 257 663 l 257 478 q 298 255 257 332 q 417 178 339 178 m 97 1072 l 97 1081 l 333 1327 l 500 1327 l 738 1081 l 738 1072 l 528 1072 l 403 1228 l 431 1228 l 306 1072 l 97 1072 m 577 1285 l 577 1294 l 683 1576 l 860 1576 l 860 1567 l 706 1285 l 577 1285 z "},"Ồ":{"ha":833,"x_min":39,"x_max":810,"o":"m 417 -24 q 358 -24 417 -24 q 214 37 299 -24 q 84 211 129 97 q 39 482 39 324 l 39 513 q 84 784 39 671 q 214 958 129 897 q 417 1018 299 1018 q 619 958 535 1018 q 749 784 704 897 q 794 513 794 671 l 794 482 q 749 211 794 324 q 619 37 704 97 q 417 -24 535 -24 m 417 178 q 456 178 417 178 q 536 255 495 178 q 576 478 576 332 l 576 516 q 536 740 576 663 q 417 817 495 817 q 298 740 339 817 q 257 516 257 663 l 257 478 q 298 255 257 332 q 417 178 339 178 m 97 1072 l 97 1081 l 333 1327 l 500 1327 l 738 1081 l 738 1072 l 528 1072 l 403 1228 l 431 1228 l 306 1072 l 97 1072 m 667 1284 l 481 1565 l 481 1574 l 664 1574 l 810 1293 l 810 1284 l 667 1284 z "},"Ổ":{"ha":833,"x_min":39,"x_max":827,"o":"m 417 -24 q 358 -24 417 -24 q 214 37 299 -24 q 84 211 129 97 q 39 482 39 324 l 39 513 q 84 784 39 671 q 214 958 129 897 q 417 1018 299 1018 q 619 958 535 1018 q 749 784 704 897 q 794 513 794 671 l 794 482 q 749 211 794 324 q 619 37 704 97 q 417 -24 535 -24 m 417 178 q 456 178 417 178 q 536 255 495 178 q 576 478 576 332 l 576 516 q 536 740 576 663 q 417 817 495 817 q 298 740 339 817 q 257 516 257 663 l 257 478 q 298 255 257 332 q 417 178 339 178 m 97 1072 l 97 1081 l 333 1327 l 500 1327 l 738 1081 l 738 1072 l 528 1072 l 403 1228 l 431 1228 l 306 1072 l 97 1072 m 637 1247 l 621 1366 q 705 1422 705 1372 q 626 1474 705 1474 q 524 1459 574 1474 l 494 1580 q 631 1603 556 1603 q 774 1556 720 1603 q 827 1433 827 1510 q 777 1306 827 1354 q 637 1247 727 1257 z "},"Ỗ":{"ha":833,"x_min":39,"x_max":794,"o":"m 417 -24 q 358 -24 417 -24 q 214 37 299 -24 q 84 211 129 97 q 39 482 39 324 l 39 513 q 84 784 39 671 q 214 958 129 897 q 417 1018 299 1018 q 619 958 535 1018 q 749 784 704 897 q 794 513 794 671 l 794 482 q 749 211 794 324 q 619 37 704 97 q 417 -24 535 -24 m 417 178 q 456 178 417 178 q 536 255 495 178 q 576 478 576 332 l 576 516 q 536 740 576 663 q 417 817 495 817 q 298 740 339 817 q 257 516 257 663 l 257 478 q 298 255 257 332 q 417 178 339 178 m 97 1072 l 97 1081 l 333 1327 l 500 1327 l 738 1081 l 738 1072 l 528 1072 l 403 1228 l 431 1228 l 306 1072 l 97 1072 m 560 1389 q 493 1401 524 1389 q 427 1437 462 1413 q 367 1474 389 1463 q 324 1484 346 1484 q 279 1430 279 1484 l 279 1391 l 133 1391 l 133 1447 q 173 1577 133 1531 q 282 1623 213 1623 q 349 1611 318 1623 q 413 1574 379 1599 q 473 1538 451 1548 q 513 1528 494 1528 q 555 1581 555 1528 l 555 1621 l 701 1621 l 701 1565 q 665 1434 701 1478 q 560 1389 628 1389 z "},"Ộ":{"ha":833,"x_min":39,"x_max":794,"o":"m 417 -24 q 358 -24 417 -24 q 214 37 299 -24 q 84 211 129 97 q 39 482 39 324 l 39 513 q 84 784 39 671 q 214 958 129 897 q 417 1018 299 1018 q 619 958 535 1018 q 749 784 704 897 q 794 513 794 671 l 794 482 q 749 211 794 324 q 619 37 704 97 q 417 -24 535 -24 m 417 178 q 456 178 417 178 q 536 255 495 178 q 576 478 576 332 l 576 516 q 536 740 576 663 q 417 817 495 817 q 298 740 339 817 q 257 516 257 663 l 257 478 q 298 255 257 332 q 417 178 339 178 m 417 -407 q 318 -367 358 -407 q 278 -269 278 -327 q 318 -171 278 -211 q 417 -131 358 -131 q 516 -171 476 -131 q 556 -269 556 -211 q 516 -367 556 -327 q 417 -407 476 -407 m 113 1138 l 113 1147 l 315 1400 l 519 1400 l 720 1147 l 720 1138 l 515 1138 l 394 1342 l 440 1342 l 319 1138 l 113 1138 z "},"Ơ":{"ha":833,"x_min":40,"x_max":833,"o":"m 414 -24 q 214 37 297 -24 q 85 211 130 98 q 40 482 40 324 l 40 513 q 85 784 40 672 q 216 958 131 897 q 422 1018 302 1018 q 490 1013 461 1018 q 551 1008 519 1008 q 620 1028 596 1008 q 644 1086 644 1049 q 634 1134 644 1111 q 602 1186 625 1157 l 765 1290 q 833 1108 833 1203 q 765 966 833 1018 q 581 914 697 914 l 521 914 l 539 978 q 727 810 665 923 q 789 513 789 697 l 789 482 q 744 211 789 324 q 615 37 699 98 q 414 -24 531 -24 m 414 178 q 533 255 492 178 q 574 478 574 331 l 574 527 q 537 747 574 672 q 422 821 500 821 q 297 743 340 821 q 254 516 254 665 l 254 478 q 295 255 254 331 q 414 178 336 178 z "},"Ớ":{"ha":833,"x_min":40,"x_max":838,"o":"m 414 -24 q 214 37 297 -24 q 85 211 130 98 q 40 482 40 324 l 40 513 q 85 784 40 671 q 216 958 130 897 q 422 1018 301 1018 q 501 1011 467 1018 q 562 1004 535 1004 q 628 1072 628 1004 q 624 1119 628 1096 q 612 1169 619 1143 l 819 1217 q 838 1104 838 1159 q 770 966 838 1018 q 582 914 703 914 l 520 914 l 535 972 q 725 813 661 928 q 789 513 789 698 l 789 482 q 744 211 789 324 q 615 37 699 98 q 414 -24 531 -24 m 414 181 q 533 257 492 181 q 574 478 574 333 l 574 527 q 537 747 574 672 q 422 821 500 821 q 297 743 340 821 q 254 516 254 665 l 254 478 q 295 257 254 333 q 414 181 336 181 m 308 1151 l 308 1160 l 452 1413 l 694 1413 l 694 1404 l 492 1151 l 308 1151 z "},"Ờ":{"ha":833,"x_min":40,"x_max":838,"o":"m 414 -24 q 214 37 297 -24 q 85 211 130 98 q 40 482 40 324 l 40 513 q 85 784 40 671 q 216 958 130 897 q 422 1018 301 1018 q 501 1011 467 1018 q 562 1004 535 1004 q 628 1072 628 1004 q 624 1119 628 1096 q 612 1169 619 1143 l 819 1217 q 838 1104 838 1159 q 770 966 838 1018 q 582 914 703 914 l 520 914 l 535 972 q 725 813 661 928 q 789 513 789 698 l 789 482 q 744 211 789 324 q 615 37 699 98 q 414 -24 531 -24 m 414 181 q 533 257 492 181 q 574 478 574 333 l 574 527 q 537 747 574 672 q 422 821 500 821 q 297 743 340 821 q 254 516 254 665 l 254 478 q 295 257 254 333 q 414 181 336 181 m 319 1151 l 118 1404 l 118 1413 l 360 1413 l 503 1160 l 503 1151 l 319 1151 z "},"Ở":{"ha":833,"x_min":40,"x_max":838,"o":"m 414 -24 q 214 37 297 -24 q 85 211 130 98 q 40 482 40 324 l 40 513 q 85 784 40 671 q 216 958 130 897 q 422 1018 301 1018 q 501 1011 467 1018 q 562 1004 535 1004 q 628 1072 628 1004 q 624 1119 628 1096 q 612 1169 619 1143 l 819 1217 q 838 1104 838 1159 q 770 966 838 1018 q 582 914 703 914 l 520 914 l 535 972 q 725 813 661 928 q 789 513 789 698 l 789 482 q 744 211 789 324 q 615 37 699 98 q 414 -24 531 -24 m 414 181 q 533 257 492 181 q 574 478 574 333 l 574 527 q 537 747 574 672 q 422 821 500 821 q 297 743 340 821 q 254 516 254 665 l 254 478 q 295 257 254 333 q 414 181 336 181 m 351 1097 l 331 1235 q 420 1255 391 1239 q 449 1303 449 1272 q 367 1362 449 1362 q 238 1339 304 1362 l 198 1474 q 283 1502 238 1492 q 370 1512 327 1512 q 533 1458 472 1512 q 594 1316 594 1405 q 532 1165 594 1222 q 351 1097 469 1108 z "},"Ỡ":{"ha":833,"x_min":40,"x_max":838,"o":"m 414 -24 q 214 37 297 -24 q 85 211 130 98 q 40 482 40 324 l 40 513 q 85 784 40 671 q 216 958 130 897 q 422 1018 301 1018 q 501 1011 467 1018 q 562 1004 535 1004 q 628 1072 628 1004 q 624 1119 628 1096 q 612 1169 619 1143 l 819 1217 q 838 1104 838 1159 q 770 966 838 1018 q 582 914 703 914 l 520 914 l 535 972 q 725 813 661 928 q 789 513 789 698 l 789 482 q 744 211 789 324 q 615 37 699 98 q 414 -24 531 -24 m 414 181 q 533 257 492 181 q 574 478 574 333 l 574 527 q 537 747 574 672 q 422 821 500 821 q 297 743 340 821 q 254 516 254 665 l 254 478 q 295 257 254 333 q 414 181 336 181 m 534 1183 q 467 1198 500 1183 q 398 1247 434 1213 q 356 1283 372 1272 q 324 1294 340 1294 q 285 1243 285 1294 l 285 1185 l 135 1185 l 135 1249 q 176 1396 135 1344 q 294 1447 217 1447 q 358 1433 328 1447 q 422 1384 388 1419 q 465 1347 449 1358 q 497 1336 481 1336 q 534 1387 534 1336 l 534 1445 l 685 1445 l 685 1383 q 648 1235 685 1286 q 534 1183 610 1183 z "},"Ợ":{"ha":833,"x_min":40,"x_max":833,"o":"m 414 -24 q 214 37 297 -24 q 85 211 130 98 q 40 482 40 324 l 40 513 q 85 784 40 672 q 216 958 131 897 q 422 1018 302 1018 q 490 1013 461 1018 q 551 1008 519 1008 q 620 1028 596 1008 q 644 1086 644 1049 q 634 1134 644 1111 q 602 1186 625 1157 l 765 1290 q 833 1108 833 1203 q 765 966 833 1018 q 581 914 697 914 l 521 914 l 539 978 q 727 810 665 923 q 789 513 789 697 l 789 482 q 744 211 789 324 q 615 37 699 98 q 414 -24 531 -24 m 414 178 q 533 255 492 178 q 574 478 574 331 l 574 527 q 537 747 574 672 q 422 821 500 821 q 297 743 340 821 q 254 516 254 665 l 254 478 q 295 255 254 331 q 414 178 336 178 m 414 -407 q 315 -367 356 -407 q 275 -269 275 -327 q 315 -171 275 -211 q 414 -131 355 -131 q 513 -171 474 -131 q 553 -269 553 -211 q 513 -367 553 -327 q 414 -407 474 -407 z "},"Ŕ":{"ha":833,"x_min":79,"x_max":810,"o":"m 79 0 l 79 994 l 402 994 q 590 957 511 994 q 710 848 668 919 q 753 679 753 777 l 753 669 q 710 501 753 572 q 590 392 668 430 q 402 353 511 353 l 202 353 l 202 534 l 397 534 q 500 567 463 534 q 538 659 538 600 l 538 676 q 500 768 538 735 q 397 801 463 801 l 292 801 l 292 0 l 79 0 m 569 0 l 327 433 l 561 433 l 810 0 l 569 0 m 266 1138 l 266 1147 l 410 1400 l 652 1400 l 652 1391 l 451 1138 l 266 1138 z "},"Ř":{"ha":833,"x_min":55,"x_max":810,"o":"m 79 0 l 79 994 l 402 994 q 590 957 511 994 q 710 848 668 919 q 753 679 753 777 l 753 669 q 710 501 753 572 q 590 392 668 430 q 402 353 511 353 l 202 353 l 202 534 l 397 534 q 500 567 463 534 q 538 659 538 600 l 538 676 q 500 768 538 735 q 397 801 463 801 l 292 801 l 292 0 l 79 0 m 569 0 l 327 433 l 561 433 l 810 0 l 569 0 m 256 1138 l 55 1390 l 55 1400 l 260 1400 l 378 1195 l 339 1195 l 456 1400 l 662 1400 l 662 1390 l 460 1138 l 256 1138 z "},"Ś":{"ha":833,"x_min":38,"x_max":786,"o":"m 447 -24 q 259 13 343 -24 q 118 118 175 49 q 38 281 61 186 l 234 333 q 309 213 254 255 q 447 170 364 170 q 540 195 507 170 q 574 267 574 221 l 574 272 q 544 338 574 311 q 441 394 515 365 l 306 447 q 95 724 95 530 l 95 726 q 138 879 95 813 q 256 981 181 944 q 433 1018 332 1018 q 658 955 569 1018 q 783 770 747 892 l 588 715 q 433 824 556 824 q 341 800 375 824 q 308 735 308 776 l 308 731 q 332 675 308 698 q 415 628 356 652 l 550 575 q 729 453 672 526 q 786 271 786 381 l 786 265 q 744 114 786 178 q 625 13 701 49 q 447 -24 549 -24 m 340 1138 l 340 1147 l 485 1400 l 726 1400 l 726 1391 l 525 1138 l 340 1138 z "},"Ş":{"ha":833,"x_min":38,"x_max":786,"o":"m 447 -24 q 259 13 343 -24 q 118 118 175 49 q 38 281 61 186 l 234 333 q 309 213 254 255 q 447 170 364 170 q 540 195 507 170 q 574 267 574 221 l 574 272 q 544 338 574 311 q 441 394 515 365 l 306 447 q 95 724 95 530 l 95 726 q 138 879 95 813 q 256 981 181 944 q 433 1018 332 1018 q 658 955 569 1018 q 783 770 747 892 l 588 715 q 433 824 556 824 q 341 800 375 824 q 308 735 308 776 l 308 731 q 332 675 308 698 q 415 628 356 652 l 550 575 q 729 453 672 526 q 786 271 786 381 l 786 265 q 744 114 786 178 q 625 13 701 49 q 447 -24 549 -24 m 449 -457 q 319 -421 380 -457 q 224 -324 259 -385 l 341 -253 q 448 -326 383 -326 q 505 -308 483 -326 q 526 -258 526 -289 q 507 -207 526 -226 q 455 -189 488 -189 q 388 -210 417 -189 l 308 -140 l 403 13 l 511 13 l 397 -167 l 341 -137 q 405 -93 369 -109 q 480 -78 441 -78 q 614 -128 563 -78 q 664 -263 664 -179 q 604 -403 664 -349 q 449 -457 544 -457 z "},"Š":{"ha":833,"x_min":38,"x_max":786,"o":"m 447 -24 q 259 13 343 -24 q 118 118 175 49 q 38 281 61 186 l 234 333 q 309 213 254 255 q 447 170 364 170 q 540 195 507 170 q 574 267 574 221 l 574 272 q 544 338 574 311 q 441 394 515 365 l 306 447 q 95 724 95 530 l 95 726 q 138 879 95 813 q 256 981 181 944 q 433 1018 332 1018 q 658 955 569 1018 q 783 770 747 892 l 588 715 q 433 824 556 824 q 341 800 375 824 q 308 735 308 776 l 308 731 q 332 675 308 698 q 415 628 356 652 l 550 575 q 729 453 672 526 q 786 271 786 381 l 786 265 q 744 114 786 178 q 625 13 701 49 q 447 -24 549 -24 m 331 1138 l 129 1390 l 129 1400 l 335 1400 l 453 1195 l 413 1195 l 531 1400 l 736 1400 l 736 1390 l 535 1138 l 331 1138 z "},"Ș":{"ha":833,"x_min":38,"x_max":786,"o":"m 447 -24 q 259 13 343 -24 q 118 118 175 49 q 38 281 61 186 l 234 333 q 309 213 254 255 q 447 170 364 170 q 540 195 507 170 q 574 267 574 221 l 574 272 q 544 338 574 311 q 441 394 515 365 l 306 447 q 95 724 95 530 l 95 726 q 138 879 95 813 q 256 981 181 944 q 433 1018 332 1018 q 658 955 569 1018 q 783 770 747 892 l 588 715 q 433 824 556 824 q 341 800 375 824 q 308 735 308 776 l 308 731 q 332 675 308 698 q 415 628 356 652 l 550 575 q 729 453 672 526 q 786 271 786 381 l 786 265 q 744 114 786 178 q 625 13 701 49 q 447 -24 549 -24 m 385 -599 l 269 -518 l 428 -303 l 424 -362 q 331 -323 367 -358 q 295 -234 295 -287 q 333 -143 295 -178 q 430 -107 372 -107 q 531 -147 492 -107 q 570 -250 570 -186 q 554 -333 570 -290 q 499 -432 538 -375 l 385 -599 z "},"Ṣ":{"ha":833,"x_min":38,"x_max":786,"o":"m 447 -24 q 259 13 343 -24 q 118 118 175 49 q 38 281 61 186 l 234 333 q 309 213 254 255 q 447 170 364 170 q 540 195 507 170 q 574 267 574 221 l 574 272 q 544 338 574 311 q 441 394 515 365 l 306 447 q 95 724 95 530 l 95 726 q 138 879 95 813 q 256 981 181 944 q 433 1018 332 1018 q 658 955 569 1018 q 783 770 747 892 l 588 715 q 433 824 556 824 q 341 800 375 824 q 308 735 308 776 l 308 731 q 332 675 308 698 q 415 628 356 652 l 550 575 q 729 453 672 526 q 786 271 786 381 l 786 265 q 744 114 786 178 q 625 13 701 49 q 447 -24 549 -24 m 446 -383 q 347 -343 388 -383 q 307 -245 307 -303 q 347 -147 307 -187 q 446 -107 387 -107 q 545 -147 506 -107 q 585 -245 585 -187 q 545 -343 585 -303 q 446 -383 506 -383 z "},"ẞ":{"ha":833,"x_min":57,"x_max":826,"o":"m 525 -24 q 417 -10 470 -24 q 323 28 364 4 l 412 201 q 507 170 457 170 q 586 205 558 170 q 614 301 614 239 l 614 313 q 575 419 614 385 q 456 453 536 453 l 383 453 l 383 558 l 490 796 l 490 801 l 415 801 q 304 762 341 801 q 267 642 267 722 l 267 0 l 57 0 l 57 649 q 147 908 57 821 q 414 994 237 994 l 742 994 l 742 890 l 609 593 l 609 557 l 545 591 q 752 514 678 591 q 826 297 826 437 l 826 281 q 789 120 826 189 q 684 14 752 51 q 525 -24 617 -24 z "},"Ə":{"ha":833,"x_min":48,"x_max":806,"o":"m 428 -24 q 149 100 249 -24 q 48 442 48 224 q 50 502 48 474 q 56 555 51 529 l 686 555 l 686 384 l 243 384 l 245 415 q 291 235 245 297 q 425 174 337 174 q 559 248 516 174 q 603 478 603 323 l 603 532 q 561 750 603 682 q 428 818 519 818 q 215 706 308 818 l 65 835 q 232 972 137 926 q 438 1018 326 1018 q 714 892 622 1018 q 806 516 806 766 l 806 485 q 761 212 806 326 q 631 38 715 99 q 428 -24 546 -24 z "},"Ţ":{"ha":833,"x_min":54,"x_max":779,"o":"m 309 0 l 309 891 l 524 891 l 524 0 l 309 0 m 54 793 l 54 994 l 779 994 l 779 793 l 54 793 m 419 -457 q 290 -421 351 -457 q 195 -324 230 -385 l 312 -253 q 419 -326 354 -326 q 476 -308 454 -326 q 497 -258 497 -289 q 478 -207 497 -226 q 426 -189 458 -189 q 359 -210 388 -189 l 278 -140 l 374 13 l 482 13 l 367 -167 l 312 -137 q 376 -93 340 -109 q 451 -78 412 -78 q 584 -128 534 -78 q 635 -263 635 -179 q 575 -403 635 -349 q 419 -457 515 -457 z "},"Ť":{"ha":833,"x_min":54,"x_max":779,"o":"m 309 0 l 309 891 l 524 891 l 524 0 l 309 0 m 54 793 l 54 994 l 779 994 l 779 793 l 54 793 m 315 1138 l 113 1390 l 113 1400 l 319 1400 l 437 1195 l 397 1195 l 515 1400 l 720 1400 l 720 1390 l 519 1138 l 315 1138 z "},"Ț":{"ha":833,"x_min":54,"x_max":779,"o":"m 309 0 l 309 891 l 524 891 l 524 0 l 309 0 m 54 793 l 54 994 l 779 994 l 779 793 l 54 793 m 356 -599 l 240 -518 l 399 -303 l 395 -362 q 302 -323 338 -358 q 266 -234 266 -287 q 304 -143 266 -178 q 401 -107 342 -107 q 502 -147 463 -107 q 541 -250 541 -186 q 525 -333 541 -290 q 469 -432 508 -375 l 356 -599 z "},"Þ":{"ha":833,"x_min":85,"x_max":771,"o":"m 214 195 l 214 384 l 413 384 q 523 419 483 384 q 563 515 563 453 l 563 531 q 523 627 563 593 q 413 662 483 662 l 214 662 l 214 851 l 414 851 q 604 811 524 851 q 727 699 684 772 q 771 526 771 626 l 771 520 q 727 347 771 420 q 604 235 684 274 q 414 195 524 195 l 214 195 m 85 0 l 85 994 l 297 994 l 297 0 l 85 0 z "},"Ù":{"ha":833,"x_min":71,"x_max":763,"o":"m 417 -24 q 365 -24 417 -24 q 235 20 313 -24 q 114 142 157 64 q 71 324 71 220 l 71 994 l 285 994 l 285 329 q 320 219 285 260 q 417 178 355 178 q 514 219 479 178 q 549 329 549 260 l 549 994 l 763 994 l 763 324 q 719 142 763 220 q 599 20 676 64 q 417 -24 522 -24 m 324 1138 l 124 1391 l 124 1400 l 365 1400 l 509 1147 l 509 1138 l 324 1138 z "},"Ú":{"ha":833,"x_min":71,"x_max":763,"o":"m 417 -24 q 365 -24 417 -24 q 235 20 313 -24 q 114 142 157 64 q 71 324 71 220 l 71 994 l 285 994 l 285 329 q 320 219 285 260 q 417 178 355 178 q 514 219 479 178 q 549 329 549 260 l 549 994 l 763 994 l 763 324 q 719 142 763 220 q 599 20 676 64 q 417 -24 522 -24 m 324 1138 l 324 1147 l 469 1400 l 710 1400 l 710 1391 l 509 1138 l 324 1138 z "},"Û":{"ha":833,"x_min":71,"x_max":763,"o":"m 417 -24 q 365 -24 417 -24 q 235 20 313 -24 q 114 142 157 64 q 71 324 71 220 l 71 994 l 285 994 l 285 329 q 320 219 285 260 q 417 178 355 178 q 514 219 479 178 q 549 329 549 260 l 549 994 l 763 994 l 763 324 q 719 142 763 220 q 599 20 676 64 q 417 -24 522 -24 m 113 1138 l 113 1147 l 315 1400 l 519 1400 l 720 1147 l 720 1138 l 515 1138 l 394 1342 l 440 1342 l 319 1138 l 113 1138 z "},"Ü":{"ha":833,"x_min":71,"x_max":763,"o":"m 417 -24 q 365 -24 417 -24 q 235 20 313 -24 q 114 142 157 64 q 71 324 71 220 l 71 994 l 285 994 l 285 329 q 320 219 285 260 q 417 178 355 178 q 514 219 479 178 q 549 329 549 260 l 549 994 l 763 994 l 763 324 q 719 142 763 220 q 599 20 676 64 q 417 -24 522 -24 m 228 1129 q 133 1167 172 1129 q 94 1260 94 1206 q 133 1353 94 1315 q 228 1392 172 1392 q 323 1354 284 1392 q 361 1260 361 1316 q 323 1167 361 1205 q 228 1129 285 1129 m 606 1129 q 511 1167 550 1129 q 472 1260 472 1206 q 511 1353 472 1315 q 606 1392 550 1392 q 700 1354 662 1392 q 739 1260 739 1316 q 701 1167 739 1205 q 606 1129 663 1129 z "},"Ū":{"ha":833,"x_min":71,"x_max":763,"o":"m 417 -24 q 365 -24 417 -24 q 235 20 313 -24 q 114 142 157 64 q 71 324 71 220 l 71 994 l 285 994 l 285 329 q 320 219 285 260 q 417 178 355 178 q 514 219 479 178 q 549 329 549 260 l 549 994 l 763 994 l 763 324 q 719 142 763 220 q 599 20 676 64 q 417 -24 522 -24 m 192 1177 l 192 1348 l 641 1348 l 641 1177 l 192 1177 z "},"Ů":{"ha":833,"x_min":71,"x_max":763,"o":"m 417 -24 q 365 -24 417 -24 q 235 20 313 -24 q 114 142 157 64 q 71 324 71 220 l 71 994 l 285 994 l 285 329 q 320 219 285 260 q 417 178 355 178 q 514 219 479 178 q 549 329 549 260 l 549 994 l 763 994 l 763 324 q 719 142 763 220 q 599 20 676 64 q 417 -24 522 -24 m 417 1063 q 386 1063 417 1063 q 307 1091 356 1063 q 229 1167 258 1119 q 200 1272 200 1214 q 229 1378 200 1331 q 307 1454 258 1426 q 417 1482 356 1482 q 526 1454 477 1482 q 604 1378 575 1426 q 633 1272 633 1331 q 604 1167 633 1214 q 526 1091 575 1119 q 417 1063 477 1063 m 417 1188 q 435 1188 417 1188 q 477 1212 453 1188 q 501 1273 501 1236 q 477 1333 501 1309 q 417 1357 453 1357 q 356 1333 381 1357 q 332 1273 332 1309 q 356 1212 332 1236 q 417 1188 381 1188 z "},"Ű":{"ha":833,"x_min":71,"x_max":813,"o":"m 417 -24 q 365 -24 417 -24 q 235 20 313 -24 q 114 142 157 64 q 71 324 71 220 l 71 994 l 285 994 l 285 329 q 320 219 285 260 q 417 178 355 178 q 514 219 479 178 q 549 329 549 260 l 549 994 l 763 994 l 763 324 q 719 142 763 220 q 599 20 676 64 q 417 -24 522 -24 m 477 1138 l 477 1147 l 588 1400 l 813 1400 l 813 1391 l 645 1138 l 477 1138 m 166 1138 l 166 1147 l 277 1400 l 502 1400 l 502 1391 l 334 1138 l 166 1138 z "},"Ų":{"ha":833,"x_min":71,"x_max":763,"o":"m 488 -380 q 384 -355 430 -380 q 313 -286 339 -330 q 286 -188 286 -243 q 547 78 286 -17 l 532 -4 q 476 -16 506 -12 q 417 -20 447 -20 q 235 23 313 -20 q 114 143 157 66 q 71 324 71 221 l 71 994 l 285 994 l 285 329 q 320 219 285 260 q 417 178 355 178 q 514 219 478 178 q 549 329 549 260 l 549 994 l 763 994 l 763 324 q 717 138 763 217 q 572 -4 671 60 q 475 -81 503 -48 q 448 -154 448 -115 q 470 -207 448 -187 q 527 -227 492 -227 q 586 -214 559 -227 l 626 -344 q 488 -380 563 -380 z "},"Ũ":{"ha":833,"x_min":71,"x_max":763,"o":"m 417 -24 q 365 -24 417 -24 q 235 20 313 -24 q 114 142 157 64 q 71 324 71 220 l 71 994 l 285 994 l 285 329 q 320 219 285 260 q 417 178 355 178 q 514 219 479 178 q 549 329 549 260 l 549 994 l 763 994 l 763 324 q 719 142 763 220 q 599 20 676 64 q 417 -24 522 -24 m 541 1138 q 474 1153 507 1138 q 405 1202 441 1168 q 363 1238 378 1227 q 331 1249 347 1249 q 292 1198 292 1249 l 292 1140 l 142 1140 l 142 1203 q 183 1351 142 1299 q 301 1402 224 1402 q 365 1388 335 1402 q 429 1339 394 1374 q 472 1302 456 1313 q 504 1291 488 1291 q 541 1342 541 1291 l 541 1400 l 692 1400 l 692 1338 q 655 1190 692 1241 q 541 1138 617 1138 z "},"Ụ":{"ha":833,"x_min":71,"x_max":763,"o":"m 417 -24 q 365 -24 417 -24 q 235 20 313 -24 q 114 142 157 64 q 71 324 71 220 l 71 994 l 285 994 l 285 329 q 320 219 285 260 q 417 178 355 178 q 514 219 479 178 q 549 329 549 260 l 549 994 l 763 994 l 763 324 q 719 142 763 220 q 599 20 676 64 q 417 -24 522 -24 m 417 -407 q 318 -367 358 -407 q 278 -269 278 -327 q 318 -171 278 -211 q 417 -131 358 -131 q 516 -171 476 -131 q 556 -269 556 -211 q 516 -367 556 -327 q 417 -407 476 -407 z "},"Ủ":{"ha":833,"x_min":71,"x_max":763,"o":"m 417 -24 q 365 -24 417 -24 q 235 20 313 -24 q 114 142 157 64 q 71 324 71 220 l 71 994 l 285 994 l 285 329 q 320 219 285 260 q 417 178 355 178 q 514 219 479 178 q 549 329 549 260 l 549 994 l 763 994 l 763 324 q 719 142 763 220 q 599 20 676 64 q 417 -24 522 -24 m 395 1073 l 375 1210 q 464 1231 435 1215 q 492 1279 492 1247 q 410 1338 492 1338 q 281 1315 348 1338 l 242 1450 q 326 1478 282 1468 q 414 1488 371 1488 q 577 1434 516 1488 q 638 1292 638 1381 q 575 1141 638 1197 q 395 1073 513 1084 z "},"Ư":{"ha":833,"x_min":44,"x_max":846,"o":"m 368 -24 q 198 17 271 -24 q 84 130 125 57 q 44 300 44 203 l 44 994 l 248 994 l 248 309 q 280 211 248 247 q 369 176 313 176 q 458 211 426 176 q 491 309 491 247 l 491 994 l 551 994 q 629 1017 601 994 q 657 1079 657 1039 q 647 1130 657 1106 q 613 1188 638 1155 l 773 1290 q 828 1195 811 1240 q 846 1101 846 1151 q 776 956 846 1009 q 597 903 707 903 l 554 903 l 692 981 l 692 300 q 652 130 692 203 q 539 17 612 57 q 368 -24 466 -24 z "},"Ứ":{"ha":833,"x_min":44,"x_max":847,"o":"m 368 -24 q 319 -24 368 -24 q 198 17 271 -24 q 84 131 124 58 q 44 300 44 203 l 44 994 l 248 994 l 248 309 q 280 211 248 247 q 369 176 313 176 q 459 211 426 176 q 491 309 491 247 l 491 994 l 563 994 q 625 1013 606 994 q 644 1069 644 1031 q 639 1124 644 1095 q 624 1182 633 1153 l 824 1240 q 847 1113 847 1174 q 776 956 847 1008 q 588 903 706 903 l 552 903 l 692 985 l 692 300 q 652 131 692 203 q 538 17 611 58 q 368 -24 465 -24 m 269 1151 l 269 1160 l 413 1413 l 655 1413 l 655 1404 l 453 1151 l 269 1151 z "},"Ừ":{"ha":833,"x_min":44,"x_max":847,"o":"m 368 -24 q 319 -24 368 -24 q 198 17 271 -24 q 84 131 124 58 q 44 300 44 203 l 44 994 l 248 994 l 248 309 q 280 211 248 247 q 369 176 313 176 q 459 211 426 176 q 491 309 491 247 l 491 994 l 563 994 q 625 1013 606 994 q 644 1069 644 1031 q 639 1124 644 1095 q 624 1182 633 1153 l 824 1240 q 847 1113 847 1174 q 776 956 847 1008 q 588 903 706 903 l 552 903 l 692 985 l 692 300 q 652 131 692 203 q 538 17 611 58 q 368 -24 465 -24 m 287 1151 l 86 1404 l 86 1413 l 328 1413 l 472 1160 l 472 1151 l 287 1151 z "},"Ử":{"ha":833,"x_min":44,"x_max":847,"o":"m 368 -24 q 319 -24 368 -24 q 198 17 271 -24 q 84 131 124 58 q 44 300 44 203 l 44 994 l 248 994 l 248 309 q 280 211 248 247 q 369 176 313 176 q 459 211 426 176 q 491 309 491 247 l 491 994 l 563 994 q 625 1013 606 994 q 644 1069 644 1031 q 639 1124 644 1095 q 624 1182 633 1153 l 824 1240 q 847 1113 847 1174 q 776 956 847 1008 q 588 903 706 903 l 552 903 l 692 985 l 692 300 q 652 131 692 203 q 538 17 611 58 q 368 -24 465 -24 m 315 1086 l 294 1224 q 383 1244 354 1228 q 412 1292 412 1260 q 330 1351 412 1351 q 201 1328 267 1351 l 161 1463 q 246 1491 201 1481 q 333 1501 290 1501 q 497 1447 435 1501 q 558 1305 558 1394 q 495 1154 558 1210 q 315 1086 432 1097 z "},"Ữ":{"ha":833,"x_min":44,"x_max":847,"o":"m 368 -24 q 319 -24 368 -24 q 198 17 271 -24 q 84 131 124 58 q 44 300 44 203 l 44 994 l 248 994 l 248 309 q 280 211 248 247 q 369 176 313 176 q 459 211 426 176 q 491 309 491 247 l 491 994 l 563 994 q 625 1013 606 994 q 644 1069 644 1031 q 639 1124 644 1095 q 624 1182 633 1153 l 824 1240 q 847 1113 847 1174 q 776 956 847 1008 q 588 903 706 903 l 552 903 l 692 985 l 692 300 q 652 131 692 203 q 538 17 611 58 q 368 -24 465 -24 m 475 1163 q 408 1177 441 1163 q 339 1226 375 1192 q 297 1263 313 1251 q 265 1274 281 1274 q 226 1222 226 1274 l 226 1165 l 76 1165 l 76 1228 q 117 1375 76 1324 q 235 1426 158 1426 q 299 1412 269 1426 q 363 1363 328 1398 q 406 1326 390 1338 q 438 1315 422 1315 q 475 1366 475 1315 l 475 1424 l 626 1424 l 626 1362 q 589 1214 626 1265 q 475 1163 551 1163 z "},"Ự":{"ha":833,"x_min":44,"x_max":846,"o":"m 368 -24 q 198 17 271 -24 q 84 130 125 57 q 44 300 44 203 l 44 994 l 248 994 l 248 309 q 280 211 248 247 q 369 176 313 176 q 458 211 426 176 q 491 309 491 247 l 491 994 l 551 994 q 629 1017 601 994 q 657 1079 657 1039 q 647 1130 657 1106 q 613 1188 638 1155 l 773 1290 q 828 1195 811 1240 q 846 1101 846 1151 q 776 956 846 1009 q 597 903 707 903 l 554 903 l 692 981 l 692 300 q 652 130 692 203 q 539 17 612 57 q 368 -24 466 -24 m 369 -407 q 271 -367 311 -407 q 231 -269 231 -327 q 270 -171 231 -211 q 369 -131 310 -131 q 469 -171 429 -131 q 508 -269 508 -211 q 469 -367 508 -327 q 369 -407 429 -407 z "},"Ẁ":{"ha":833,"x_min":15,"x_max":818,"o":"m 142 0 l 15 994 l 212 994 l 263 316 l 267 316 l 299 510 l 357 799 l 476 799 l 535 510 l 566 316 l 570 316 l 615 994 l 818 994 l 691 0 l 519 0 l 446 361 l 419 533 l 415 533 l 388 361 l 315 0 l 142 0 m 322 1138 l 121 1391 l 121 1400 l 363 1400 l 506 1147 l 506 1138 l 322 1138 z "},"Ẃ":{"ha":833,"x_min":15,"x_max":818,"o":"m 142 0 l 15 994 l 212 994 l 263 316 l 267 316 l 299 510 l 357 799 l 476 799 l 535 510 l 566 316 l 570 316 l 615 994 l 818 994 l 691 0 l 519 0 l 446 361 l 419 533 l 415 533 l 388 361 l 315 0 l 142 0 m 322 1138 l 322 1147 l 466 1400 l 708 1400 l 708 1391 l 506 1138 l 322 1138 z "},"Ŵ":{"ha":833,"x_min":15,"x_max":818,"o":"m 142 0 l 15 994 l 212 994 l 263 316 l 267 316 l 299 510 l 357 799 l 476 799 l 535 510 l 566 316 l 570 316 l 615 994 l 818 994 l 691 0 l 519 0 l 446 361 l 419 533 l 415 533 l 388 361 l 315 0 l 142 0 m 110 1138 l 110 1147 l 312 1400 l 516 1400 l 717 1147 l 717 1138 l 512 1138 l 392 1342 l 437 1342 l 316 1138 l 110 1138 z "},"Ẅ":{"ha":833,"x_min":15,"x_max":818,"o":"m 142 0 l 15 994 l 212 994 l 263 316 l 267 316 l 299 510 l 357 799 l 476 799 l 535 510 l 566 316 l 570 316 l 615 994 l 818 994 l 691 0 l 519 0 l 446 361 l 419 533 l 415 533 l 388 361 l 315 0 l 142 0 m 225 1129 q 131 1167 169 1129 q 92 1260 92 1206 q 131 1353 92 1315 q 225 1392 169 1392 q 320 1354 281 1392 q 358 1260 358 1316 q 320 1167 358 1205 q 225 1129 282 1129 m 603 1129 q 508 1167 547 1129 q 469 1260 469 1206 q 508 1353 469 1315 q 603 1392 547 1392 q 698 1354 659 1392 q 736 1260 736 1316 q 698 1167 736 1205 q 603 1129 660 1129 z "},"Ỳ":{"ha":833,"x_min":17,"x_max":816,"o":"m 331 304 l 17 994 l 249 994 l 351 747 l 417 558 l 423 558 l 487 747 l 590 994 l 816 994 l 503 304 l 331 304 m 310 0 l 310 469 l 524 469 l 524 0 l 310 0 m 327 1138 l 126 1391 l 126 1400 l 368 1400 l 512 1147 l 512 1138 l 327 1138 z "},"Ý":{"ha":833,"x_min":17,"x_max":816,"o":"m 331 304 l 17 994 l 249 994 l 351 747 l 417 558 l 423 558 l 487 747 l 590 994 l 816 994 l 503 304 l 331 304 m 310 0 l 310 469 l 524 469 l 524 0 l 310 0 m 327 1138 l 327 1147 l 472 1400 l 713 1400 l 713 1391 l 512 1138 l 327 1138 z "},"Ŷ":{"ha":833,"x_min":17,"x_max":816,"o":"m 331 304 l 17 994 l 249 994 l 351 747 l 417 558 l 423 558 l 487 747 l 590 994 l 816 994 l 503 304 l 331 304 m 310 0 l 310 469 l 524 469 l 524 0 l 310 0 m 116 1138 l 116 1147 l 317 1400 l 522 1400 l 723 1147 l 723 1138 l 517 1138 l 397 1342 l 442 1342 l 322 1138 l 116 1138 z "},"Ÿ":{"ha":833,"x_min":17,"x_max":816,"o":"m 331 304 l 17 994 l 249 994 l 351 747 l 417 558 l 423 558 l 487 747 l 590 994 l 816 994 l 503 304 l 331 304 m 310 0 l 310 469 l 524 469 l 524 0 l 310 0 m 231 1129 q 136 1167 175 1129 q 97 1260 97 1206 q 136 1353 97 1315 q 231 1392 175 1392 q 325 1354 287 1392 q 364 1260 364 1316 q 326 1167 364 1205 q 231 1129 288 1129 m 608 1129 q 514 1167 553 1129 q 475 1260 475 1206 q 514 1353 475 1315 q 608 1392 553 1392 q 703 1354 665 1392 q 742 1260 742 1316 q 703 1167 742 1205 q 608 1129 665 1129 z "},"Ỵ":{"ha":833,"x_min":17,"x_max":816,"o":"m 331 304 l 17 994 l 249 994 l 351 747 l 417 558 l 423 558 l 487 747 l 590 994 l 816 994 l 503 304 l 331 304 m 310 0 l 310 469 l 524 469 l 524 0 l 310 0 m 417 -383 q 318 -343 358 -383 q 278 -245 278 -303 q 318 -147 278 -187 q 417 -107 358 -107 q 516 -147 476 -107 q 556 -245 556 -187 q 516 -343 556 -303 q 417 -383 476 -383 z "},"Ỷ":{"ha":833,"x_min":17,"x_max":816,"o":"m 331 304 l 17 994 l 249 994 l 351 747 l 417 558 l 423 558 l 487 747 l 590 994 l 816 994 l 503 304 l 331 304 m 310 0 l 310 469 l 524 469 l 524 0 l 310 0 m 398 1073 l 378 1210 q 466 1231 438 1215 q 495 1279 495 1247 q 413 1338 495 1338 q 284 1315 351 1338 l 244 1450 q 329 1478 285 1468 q 417 1488 374 1488 q 580 1434 519 1488 q 641 1292 641 1381 q 578 1141 641 1197 q 398 1073 515 1084 z "},"Ỹ":{"ha":833,"x_min":17,"x_max":816,"o":"m 331 304 l 17 994 l 249 994 l 351 747 l 417 558 l 423 558 l 487 747 l 590 994 l 816 994 l 503 304 l 331 304 m 310 0 l 310 469 l 524 469 l 524 0 l 310 0 m 544 1138 q 477 1153 510 1138 q 408 1202 444 1168 q 365 1238 381 1227 q 334 1249 349 1249 q 295 1198 295 1249 l 295 1140 l 145 1140 l 145 1203 q 186 1351 145 1299 q 304 1402 227 1402 q 367 1388 338 1402 q 432 1339 397 1374 q 475 1302 458 1313 q 507 1291 491 1291 q 544 1342 544 1291 l 544 1400 l 694 1400 l 694 1338 q 657 1190 694 1241 q 544 1138 620 1138 z "},"Ƴ":{"ha":833,"x_min":7,"x_max":855,"o":"m 290 291 l 7 994 l 238 994 l 322 746 l 376 556 l 382 556 l 421 707 l 438 765 q 501 907 464 851 q 590 990 538 963 q 710 1018 642 1018 q 788 1010 755 1018 q 855 983 820 1001 l 792 806 q 767 815 779 813 q 740 817 755 817 q 689 804 710 817 q 648 758 667 790 q 607 669 629 726 l 461 291 l 290 291 m 269 0 l 269 446 l 483 446 l 483 0 l 269 0 z "},"Ź":{"ha":833,"x_min":72,"x_max":761,"o":"m 72 0 l 72 179 l 499 795 l 89 795 l 89 994 l 751 994 l 751 815 l 326 199 l 761 199 l 761 0 l 72 0 m 328 1138 l 328 1147 l 472 1400 l 714 1400 l 714 1391 l 513 1138 l 328 1138 z "},"Ż":{"ha":833,"x_min":72,"x_max":761,"o":"m 72 0 l 72 179 l 499 795 l 89 795 l 89 994 l 751 994 l 751 815 l 326 199 l 761 199 l 761 0 l 72 0 m 420 1129 q 322 1169 362 1129 q 281 1267 281 1209 q 321 1365 281 1325 q 420 1406 361 1406 q 519 1365 480 1406 q 559 1267 559 1325 q 519 1169 559 1209 q 420 1129 480 1129 z "},"Ž":{"ha":833,"x_min":72,"x_max":761,"o":"m 72 0 l 72 179 l 499 795 l 89 795 l 89 994 l 751 994 l 751 815 l 326 199 l 761 199 l 761 0 l 72 0 m 318 1138 l 117 1390 l 117 1400 l 322 1400 l 440 1195 l 401 1195 l 518 1400 l 724 1400 l 724 1390 l 522 1138 l 318 1138 z "},"à":{"ha":833,"x_min":80,"x_max":738,"o":"m 322 -24 q 195 6 250 -24 q 110 87 141 35 q 80 207 80 139 l 80 216 q 158 395 80 328 q 367 462 236 462 q 466 452 420 462 q 550 425 511 443 l 550 303 q 422 337 494 337 q 325 308 359 337 q 292 226 292 280 l 292 217 q 320 144 292 169 q 401 118 349 118 q 470 139 441 118 q 517 199 500 160 q 533 288 533 238 l 533 458 q 499 561 533 526 q 397 595 464 595 q 226 520 306 595 l 118 636 q 424 754 236 754 q 657 681 577 754 q 738 467 738 607 l 738 0 l 538 0 l 538 94 l 531 94 q 445 7 500 38 q 322 -24 391 -24 m 359 874 l 158 1127 l 158 1136 l 400 1136 l 544 883 l 544 874 l 359 874 z "},"á":{"ha":833,"x_min":80,"x_max":738,"o":"m 322 -24 q 195 6 250 -24 q 110 87 141 35 q 80 207 80 139 l 80 216 q 158 395 80 328 q 367 462 236 462 q 466 452 420 462 q 550 425 511 443 l 550 303 q 422 337 494 337 q 325 308 359 337 q 292 226 292 280 l 292 217 q 320 144 292 169 q 401 118 349 118 q 470 139 441 118 q 517 199 500 160 q 533 288 533 238 l 533 458 q 499 561 533 526 q 397 595 464 595 q 226 520 306 595 l 118 636 q 424 754 236 754 q 657 681 577 754 q 738 467 738 607 l 738 0 l 538 0 l 538 94 l 531 94 q 445 7 500 38 q 322 -24 391 -24 m 306 874 l 306 883 l 451 1136 l 692 1136 l 692 1127 l 491 874 l 306 874 z "},"â":{"ha":833,"x_min":80,"x_max":738,"o":"m 322 -24 q 195 6 250 -24 q 110 87 141 35 q 80 207 80 139 l 80 216 q 158 395 80 328 q 367 462 236 462 q 466 452 420 462 q 550 425 511 443 l 550 303 q 422 337 494 337 q 325 308 359 337 q 292 226 292 280 l 292 217 q 320 144 292 169 q 401 118 349 118 q 470 139 441 118 q 517 199 500 160 q 533 288 533 238 l 533 458 q 499 561 533 526 q 397 595 464 595 q 226 520 306 595 l 118 636 q 424 754 236 754 q 657 681 577 754 q 738 467 738 607 l 738 0 l 538 0 l 538 94 l 531 94 q 445 7 500 38 q 322 -24 391 -24 m 120 874 l 120 883 l 322 1136 l 526 1136 l 727 883 l 727 874 l 522 874 l 401 1078 l 447 1078 l 326 874 l 120 874 z "},"ã":{"ha":833,"x_min":80,"x_max":738,"o":"m 322 -24 q 195 6 250 -24 q 110 87 141 35 q 80 207 80 139 l 80 216 q 158 395 80 328 q 367 462 236 462 q 466 452 420 462 q 550 425 511 443 l 550 303 q 422 337 494 337 q 325 308 359 337 q 292 226 292 280 l 292 217 q 320 144 292 169 q 401 118 349 118 q 470 139 441 118 q 517 199 500 160 q 533 288 533 238 l 533 458 q 499 561 533 526 q 397 595 464 595 q 226 520 306 595 l 118 636 q 424 754 236 754 q 657 681 577 754 q 738 467 738 607 l 738 0 l 538 0 l 538 94 l 531 94 q 445 7 500 38 q 322 -24 391 -24 m 548 874 q 481 889 514 874 q 412 938 448 904 q 369 974 385 963 q 338 985 353 985 q 299 934 299 985 l 299 876 l 149 876 l 149 940 q 190 1087 149 1035 q 308 1138 231 1138 q 372 1124 342 1138 q 436 1075 401 1110 q 479 1038 463 1049 q 511 1027 495 1027 q 548 1078 548 1027 l 548 1136 l 699 1136 l 699 1074 q 661 926 699 977 q 548 874 624 874 z "},"ā":{"ha":833,"x_min":80,"x_max":738,"o":"m 322 -24 q 195 6 250 -24 q 110 87 141 35 q 80 207 80 139 l 80 216 q 158 395 80 328 q 367 462 236 462 q 466 452 420 462 q 550 425 511 443 l 550 303 q 422 337 494 337 q 325 308 359 337 q 292 226 292 280 l 292 217 q 320 144 292 169 q 401 118 349 118 q 470 139 441 118 q 517 199 500 160 q 533 288 533 238 l 533 458 q 499 561 533 526 q 397 595 464 595 q 226 520 306 595 l 118 636 q 424 754 236 754 q 657 681 577 754 q 738 467 738 607 l 738 0 l 538 0 l 538 94 l 531 94 q 445 7 500 38 q 322 -24 391 -24 m 199 913 l 199 1084 l 648 1084 l 648 913 l 199 913 z "},"ä":{"ha":833,"x_min":80,"x_max":746,"o":"m 322 -24 q 195 6 250 -24 q 110 87 141 35 q 80 207 80 139 l 80 216 q 158 395 80 328 q 367 462 236 462 q 466 452 420 462 q 550 425 511 443 l 550 303 q 422 337 494 337 q 325 308 359 337 q 292 226 292 280 l 292 217 q 320 144 292 169 q 401 118 349 118 q 470 139 441 118 q 517 199 500 160 q 533 288 533 238 l 533 458 q 499 561 533 526 q 397 595 464 595 q 226 520 306 595 l 118 636 q 424 754 236 754 q 657 681 577 754 q 738 467 738 607 l 738 0 l 538 0 l 538 94 l 531 94 q 445 7 500 38 q 322 -24 391 -24 m 235 865 q 140 903 179 865 q 101 997 101 942 q 140 1090 101 1051 q 235 1128 179 1128 q 330 1090 291 1128 q 368 997 368 1052 q 330 903 368 941 q 235 865 292 865 m 613 865 q 518 903 557 865 q 479 997 479 942 q 518 1090 479 1051 q 613 1128 557 1128 q 707 1090 669 1128 q 746 997 746 1052 q 708 903 746 941 q 613 865 669 865 z "},"å":{"ha":833,"x_min":80,"x_max":738,"o":"m 322 -24 q 195 6 250 -24 q 110 87 141 35 q 80 207 80 139 l 80 216 q 158 395 80 328 q 367 462 236 462 q 466 452 420 462 q 550 425 511 443 l 550 303 q 422 337 494 337 q 325 308 359 337 q 292 226 292 280 l 292 217 q 320 144 292 169 q 401 118 349 118 q 470 139 441 118 q 517 199 500 160 q 533 288 533 238 l 533 458 q 499 561 533 526 q 397 595 464 595 q 226 520 306 595 l 118 636 q 424 754 236 754 q 657 681 577 754 q 738 467 738 607 l 738 0 l 538 0 l 538 94 l 531 94 q 445 7 500 38 q 322 -24 391 -24 m 424 799 q 393 799 424 799 q 314 827 363 799 q 236 903 265 856 q 207 1008 207 950 q 236 1115 207 1067 q 314 1190 265 1162 q 424 1218 363 1218 q 533 1190 484 1218 q 611 1115 582 1162 q 640 1008 640 1067 q 611 903 640 950 q 533 827 582 856 q 424 799 484 799 m 424 924 q 442 924 424 924 q 484 948 460 924 q 508 1009 508 972 q 484 1069 508 1045 q 424 1093 460 1093 q 363 1069 388 1093 q 339 1009 339 1045 q 363 948 339 972 q 424 924 388 924 z "},"æ":{"ha":833,"x_min":6,"x_max":826,"o":"m 222 -24 q 108 5 156 -24 q 32 86 59 33 q 6 208 6 138 l 6 216 q 68 394 6 326 q 233 462 131 462 q 336 435 294 462 l 336 313 q 271 335 307 335 q 216 309 235 335 q 197 232 197 282 l 197 222 q 213 153 197 177 q 258 129 228 129 q 305 159 290 129 q 319 252 319 190 l 319 478 q 302 567 319 540 q 247 594 285 594 q 147 535 196 594 l 33 639 q 256 754 125 754 q 389 704 338 754 q 461 555 441 654 l 380 555 q 466 702 406 649 q 606 754 526 754 q 769 667 712 754 q 826 417 826 579 q 826 368 826 391 q 823 316 825 344 l 420 316 l 420 438 l 669 438 l 656 433 q 583 596 656 596 q 514 538 538 596 q 490 370 490 481 l 490 350 q 514 188 490 246 q 585 131 538 131 q 633 153 615 131 q 673 234 651 176 l 822 177 q 729 25 784 73 q 594 -24 674 -24 q 440 42 503 -24 q 363 215 378 107 l 456 215 q 369 34 426 92 q 222 -24 313 -24 z "},"ǽ":{"ha":833,"x_min":6,"x_max":826,"o":"m 222 -24 q 108 5 156 -24 q 32 86 59 33 q 6 208 6 138 l 6 216 q 68 394 6 326 q 233 462 131 462 q 336 435 294 462 l 336 313 q 271 335 307 335 q 216 309 235 335 q 197 232 197 282 l 197 222 q 213 153 197 177 q 258 129 228 129 q 305 159 290 129 q 319 252 319 190 l 319 478 q 302 567 319 540 q 247 594 285 594 q 147 535 196 594 l 33 639 q 256 754 125 754 q 389 704 338 754 q 461 555 441 654 l 380 555 q 466 702 406 649 q 606 754 526 754 q 769 667 712 754 q 826 417 826 579 q 826 368 826 391 q 823 316 825 344 l 420 316 l 420 438 l 669 438 l 656 433 q 583 596 656 596 q 514 538 538 596 q 490 370 490 481 l 490 350 q 514 188 490 246 q 585 131 538 131 q 633 153 615 131 q 673 234 651 176 l 822 177 q 729 25 784 73 q 594 -24 674 -24 q 440 42 503 -24 q 363 215 378 107 l 456 215 q 369 34 426 92 q 222 -24 313 -24 m 338 874 l 338 883 l 482 1136 l 724 1136 l 724 1127 l 522 874 l 338 874 z "},"ă":{"ha":833,"x_min":80,"x_max":738,"o":"m 322 -24 q 195 6 250 -24 q 110 87 141 35 q 80 207 80 139 l 80 216 q 158 395 80 328 q 367 462 236 462 q 466 452 420 462 q 550 425 511 443 l 550 303 q 422 337 494 337 q 325 308 359 337 q 292 226 292 280 l 292 217 q 320 144 292 169 q 401 118 349 118 q 470 139 441 118 q 517 199 500 160 q 533 288 533 238 l 533 458 q 499 561 533 526 q 397 595 464 595 q 226 520 306 595 l 118 636 q 424 754 236 754 q 657 681 577 754 q 738 467 738 607 l 738 0 l 538 0 l 538 94 l 531 94 q 445 7 500 38 q 322 -24 391 -24 m 424 866 q 384 866 424 866 q 284 899 344 866 q 190 991 224 932 q 156 1128 156 1050 l 156 1136 l 312 1136 l 312 1124 q 342 1039 312 1069 q 424 1008 372 1008 q 506 1039 476 1008 q 535 1124 535 1069 l 535 1136 l 691 1136 l 691 1128 q 657 991 691 1050 q 564 899 624 932 q 424 866 503 866 z "},"ą":{"ha":833,"x_min":80,"x_max":775,"o":"m 634 -381 q 531 -355 576 -381 q 459 -286 485 -330 q 433 -188 433 -243 q 496 -37 433 -103 q 694 78 559 28 l 738 0 q 628 -75 662 -39 q 594 -156 594 -111 q 617 -208 594 -187 q 674 -228 639 -228 q 733 -214 704 -228 l 775 -344 q 634 -381 710 -381 m 322 -24 q 195 6 250 -24 q 110 87 141 35 q 80 207 80 139 l 80 216 q 158 395 80 328 q 367 462 236 462 q 466 452 420 462 q 550 425 511 443 l 550 303 q 422 337 494 337 q 325 308 359 337 q 292 226 292 280 l 292 217 q 320 144 292 169 q 401 118 349 118 q 470 139 441 118 q 517 199 500 160 q 533 288 533 238 l 533 458 q 499 561 533 526 q 397 595 464 595 q 226 520 306 595 l 118 636 q 424 754 236 754 q 657 681 577 754 q 738 467 738 607 l 738 0 l 538 0 l 538 94 l 531 94 q 445 7 500 38 q 322 -24 391 -24 z "},"ạ":{"ha":833,"x_min":80,"x_max":738,"o":"m 322 -24 q 195 6 250 -24 q 110 87 141 35 q 80 207 80 139 l 80 216 q 158 395 80 328 q 367 462 236 462 q 466 452 420 462 q 550 425 511 443 l 550 303 q 422 337 494 337 q 325 308 359 337 q 292 226 292 280 l 292 217 q 320 144 292 169 q 401 118 349 118 q 470 139 441 118 q 517 199 500 160 q 533 288 533 238 l 533 458 q 499 561 533 526 q 397 595 464 595 q 226 520 306 595 l 118 636 q 424 754 236 754 q 657 681 577 754 q 738 467 738 607 l 738 0 l 538 0 l 538 94 l 531 94 q 445 7 500 38 q 322 -24 391 -24 m 418 -407 q 319 -367 360 -407 q 279 -269 279 -327 q 319 -171 279 -211 q 418 -131 359 -131 q 517 -171 478 -131 q 557 -269 557 -211 q 517 -367 557 -327 q 418 -407 478 -407 z "},"ả":{"ha":833,"x_min":80,"x_max":738,"o":"m 322 -24 q 195 6 250 -24 q 110 87 141 35 q 80 207 80 139 l 80 216 q 158 395 80 328 q 367 462 236 462 q 466 452 420 462 q 550 425 511 443 l 550 303 q 422 337 494 337 q 325 308 359 337 q 292 226 292 280 l 292 217 q 320 144 292 169 q 401 118 349 118 q 470 139 441 118 q 517 199 500 160 q 533 288 533 238 l 533 458 q 499 561 533 526 q 397 595 464 595 q 226 520 306 595 l 118 636 q 424 754 236 754 q 657 681 577 754 q 738 467 738 607 l 738 0 l 538 0 l 538 94 l 531 94 q 445 7 500 38 q 322 -24 391 -24 m 402 809 l 382 947 q 470 967 442 951 q 499 1015 499 983 q 417 1074 499 1074 q 288 1051 355 1074 l 249 1186 q 333 1214 289 1204 q 421 1224 378 1224 q 584 1170 523 1224 q 645 1028 645 1117 q 582 877 645 933 q 402 809 519 820 z "},"ấ":{"ha":833,"x_min":80,"x_max":867,"o":"m 322 -24 q 195 6 250 -24 q 110 87 141 35 q 80 207 80 139 l 80 216 q 158 395 80 328 q 367 462 236 462 q 466 452 420 462 q 550 425 511 443 l 550 303 q 422 337 494 337 q 325 308 359 337 q 292 226 292 280 l 292 217 q 320 144 292 169 q 401 118 349 118 q 470 139 441 118 q 517 199 500 160 q 533 288 533 238 l 533 458 q 499 561 533 526 q 397 595 464 595 q 226 520 306 595 l 118 636 q 424 754 236 754 q 657 681 577 754 q 738 467 738 607 l 738 0 l 538 0 l 538 94 l 531 94 q 445 7 500 38 q 322 -24 391 -24 m 103 848 l 103 857 l 340 1103 l 507 1103 l 744 857 l 744 848 l 535 848 l 410 1003 l 438 1003 l 313 848 l 103 848 m 584 1061 l 584 1070 l 690 1351 l 867 1351 l 867 1342 l 713 1061 l 584 1061 z "},"ầ":{"ha":833,"x_min":80,"x_max":817,"o":"m 322 -24 q 195 6 250 -24 q 110 87 141 35 q 80 207 80 139 l 80 216 q 158 395 80 328 q 367 462 236 462 q 466 452 420 462 q 550 425 511 443 l 550 303 q 422 337 494 337 q 325 308 359 337 q 292 226 292 280 l 292 217 q 320 144 292 169 q 401 118 349 118 q 470 139 441 118 q 517 199 500 160 q 533 288 533 238 l 533 458 q 499 561 533 526 q 397 595 464 595 q 226 520 306 595 l 118 636 q 424 754 236 754 q 657 681 577 754 q 738 467 738 607 l 738 0 l 538 0 l 538 94 l 531 94 q 445 7 500 38 q 322 -24 391 -24 m 103 848 l 103 857 l 340 1103 l 507 1103 l 744 857 l 744 848 l 535 848 l 410 1003 l 438 1003 l 313 848 l 103 848 m 674 1060 l 488 1341 l 488 1350 l 671 1350 l 817 1069 l 817 1060 l 674 1060 z "},"ẩ":{"ha":833,"x_min":80,"x_max":834,"o":"m 322 -24 q 195 6 250 -24 q 110 87 141 35 q 80 207 80 139 l 80 216 q 158 395 80 328 q 367 462 236 462 q 466 452 420 462 q 550 425 511 443 l 550 303 q 422 337 494 337 q 325 308 359 337 q 292 226 292 280 l 292 217 q 320 144 292 169 q 401 118 349 118 q 470 139 441 118 q 517 199 500 160 q 533 288 533 238 l 533 458 q 499 561 533 526 q 397 595 464 595 q 226 520 306 595 l 118 636 q 424 754 236 754 q 657 681 577 754 q 738 467 738 607 l 738 0 l 538 0 l 538 94 l 531 94 q 445 7 500 38 q 322 -24 391 -24 m 103 848 l 103 857 l 340 1103 l 507 1103 l 744 857 l 744 848 l 535 848 l 410 1003 l 438 1003 l 313 848 l 103 848 m 644 1023 l 628 1142 q 712 1198 712 1148 q 633 1250 712 1250 q 531 1235 581 1250 l 501 1356 q 638 1378 563 1378 q 781 1332 727 1378 q 834 1208 834 1285 q 784 1081 834 1130 q 644 1023 734 1033 z "},"ẫ":{"ha":833,"x_min":80,"x_max":744,"o":"m 322 -24 q 195 6 250 -24 q 110 87 141 35 q 80 207 80 139 l 80 216 q 158 395 80 328 q 367 462 236 462 q 466 452 420 462 q 550 425 511 443 l 550 303 q 422 337 494 337 q 325 308 359 337 q 292 226 292 280 l 292 217 q 320 144 292 169 q 401 118 349 118 q 470 139 441 118 q 517 199 500 160 q 533 288 533 238 l 533 458 q 499 561 533 526 q 397 595 464 595 q 226 520 306 595 l 118 636 q 424 754 236 754 q 657 681 577 754 q 738 467 738 607 l 738 0 l 538 0 l 538 94 l 531 94 q 445 7 500 38 q 322 -24 391 -24 m 103 848 l 103 857 l 340 1103 l 507 1103 l 744 857 l 744 848 l 535 848 l 410 1003 l 438 1003 l 313 848 l 103 848 m 567 1165 q 500 1177 531 1165 q 434 1213 469 1189 q 374 1249 396 1239 q 331 1260 353 1260 q 286 1206 286 1260 l 286 1167 l 140 1167 l 140 1222 q 180 1353 140 1307 q 289 1399 219 1399 q 356 1386 325 1399 q 420 1350 386 1374 q 480 1314 458 1324 q 519 1303 501 1303 q 562 1357 562 1303 l 562 1397 l 708 1397 l 708 1341 q 672 1209 708 1254 q 567 1165 635 1165 z "},"ậ":{"ha":833,"x_min":80,"x_max":738,"o":"m 322 -24 q 195 6 250 -24 q 110 87 141 35 q 80 207 80 139 l 80 216 q 158 395 80 328 q 367 462 236 462 q 466 452 420 462 q 550 425 511 443 l 550 303 q 422 337 494 337 q 325 308 359 337 q 292 226 292 280 l 292 217 q 320 144 292 169 q 401 118 349 118 q 470 139 441 118 q 517 199 500 160 q 533 288 533 238 l 533 458 q 499 561 533 526 q 397 595 464 595 q 226 520 306 595 l 118 636 q 424 754 236 754 q 657 681 577 754 q 738 467 738 607 l 738 0 l 538 0 l 538 94 l 531 94 q 445 7 500 38 q 322 -24 391 -24 m 418 -407 q 319 -367 360 -407 q 279 -269 279 -327 q 319 -171 279 -211 q 418 -131 359 -131 q 517 -171 478 -131 q 557 -269 557 -211 q 517 -367 557 -327 q 418 -407 478 -407 m 120 874 l 120 883 l 322 1136 l 526 1136 l 727 883 l 727 874 l 522 874 l 401 1078 l 447 1078 l 326 874 l 120 874 z "},"ắ":{"ha":833,"x_min":80,"x_max":738,"o":"m 322 -24 q 195 6 250 -24 q 110 87 141 35 q 80 207 80 139 l 80 216 q 158 395 80 328 q 367 462 236 462 q 466 452 420 462 q 550 425 511 443 l 550 303 q 422 337 494 337 q 325 308 359 337 q 292 226 292 280 l 292 217 q 320 144 292 169 q 401 118 349 118 q 470 139 441 118 q 517 199 500 160 q 533 288 533 238 l 533 458 q 499 561 533 526 q 397 595 464 595 q 226 520 306 595 l 118 636 q 424 754 236 754 q 657 681 577 754 q 738 467 738 607 l 738 0 l 538 0 l 538 94 l 531 94 q 445 7 500 38 q 322 -24 391 -24 m 424 839 q 382 839 424 839 q 278 872 341 839 q 181 965 216 906 q 146 1101 146 1024 l 146 1106 l 289 1106 l 289 1099 q 325 1003 289 1039 q 424 967 360 967 q 523 1003 488 967 q 559 1099 559 1039 l 559 1106 l 702 1106 l 702 1101 q 667 965 702 1024 q 569 872 632 906 q 424 839 506 839 m 343 1090 l 343 1099 l 423 1367 l 622 1367 l 622 1357 l 454 1090 l 343 1090 z "},"ằ":{"ha":833,"x_min":80,"x_max":738,"o":"m 322 -24 q 195 6 250 -24 q 110 87 141 35 q 80 207 80 139 l 80 216 q 158 395 80 328 q 367 462 236 462 q 466 452 420 462 q 550 425 511 443 l 550 303 q 422 337 494 337 q 325 308 359 337 q 292 226 292 280 l 292 217 q 320 144 292 169 q 401 118 349 118 q 470 139 441 118 q 517 199 500 160 q 533 288 533 238 l 533 458 q 499 561 533 526 q 397 595 464 595 q 226 520 306 595 l 118 636 q 424 754 236 754 q 657 681 577 754 q 738 467 738 607 l 738 0 l 538 0 l 538 94 l 531 94 q 445 7 500 38 q 322 -24 391 -24 m 424 839 q 382 839 424 839 q 278 872 341 839 q 181 965 216 906 q 146 1101 146 1024 l 146 1106 l 289 1106 l 289 1099 q 325 1003 289 1039 q 424 967 360 967 q 523 1003 488 967 q 559 1099 559 1039 l 559 1106 l 702 1106 l 702 1101 q 667 965 702 1024 q 569 872 632 906 q 424 839 506 839 m 394 1090 l 213 1357 l 213 1367 l 409 1367 l 511 1099 l 511 1090 l 394 1090 z "},"ẳ":{"ha":833,"x_min":80,"x_max":738,"o":"m 322 -24 q 195 6 250 -24 q 110 87 141 35 q 80 207 80 139 l 80 216 q 158 395 80 328 q 367 462 236 462 q 466 452 420 462 q 550 425 511 443 l 550 303 q 422 337 494 337 q 325 308 359 337 q 292 226 292 280 l 292 217 q 320 144 292 169 q 401 118 349 118 q 470 139 441 118 q 517 199 500 160 q 533 288 533 238 l 533 458 q 499 561 533 526 q 397 595 464 595 q 226 520 306 595 l 118 636 q 424 754 236 754 q 657 681 577 754 q 738 467 738 607 l 738 0 l 538 0 l 538 94 l 531 94 q 445 7 500 38 q 322 -24 391 -24 m 425 839 q 278 873 342 839 q 176 966 213 906 q 140 1103 140 1026 l 140 1109 l 280 1109 l 280 1101 q 317 1001 280 1038 q 425 965 354 965 q 534 1001 497 965 q 571 1101 571 1038 l 571 1109 l 710 1109 l 710 1103 q 674 966 710 1026 q 573 873 638 906 q 425 839 508 839 m 376 1057 l 364 1168 q 453 1224 453 1174 q 371 1274 453 1274 q 265 1258 318 1274 l 233 1378 q 375 1401 302 1401 q 520 1357 467 1401 q 574 1235 574 1312 q 522 1114 574 1162 q 376 1057 469 1067 z "},"ẵ":{"ha":833,"x_min":80,"x_max":738,"o":"m 322 -24 q 195 6 250 -24 q 110 87 141 35 q 80 207 80 139 l 80 216 q 158 395 80 328 q 367 462 236 462 q 466 452 420 462 q 550 425 511 443 l 550 303 q 422 337 494 337 q 325 308 359 337 q 292 226 292 280 l 292 217 q 320 144 292 169 q 401 118 349 118 q 470 139 441 118 q 517 199 500 160 q 533 288 533 238 l 533 458 q 499 561 533 526 q 397 595 464 595 q 226 520 306 595 l 118 636 q 424 754 236 754 q 657 681 577 754 q 738 467 738 607 l 738 0 l 538 0 l 538 94 l 531 94 q 445 7 500 38 q 322 -24 391 -24 m 425 839 q 286 871 346 839 q 193 961 226 903 q 160 1093 160 1018 l 160 1099 l 306 1099 l 306 1091 q 338 1000 306 1033 q 425 966 370 966 q 513 1000 481 966 q 544 1091 544 1033 l 544 1099 l 691 1099 l 691 1093 q 658 961 691 1018 q 565 871 624 903 q 425 839 505 839 m 572 1169 q 503 1182 535 1169 q 435 1219 471 1194 q 374 1257 396 1247 q 331 1267 353 1267 q 297 1255 309 1267 q 285 1217 285 1242 l 285 1172 l 139 1172 l 139 1235 q 178 1363 139 1318 q 288 1407 218 1407 q 356 1394 324 1407 q 422 1356 388 1381 q 483 1318 461 1328 q 524 1308 504 1308 q 566 1358 566 1308 l 566 1404 l 712 1404 l 712 1341 q 676 1213 712 1257 q 572 1169 640 1169 z "},"ặ":{"ha":833,"x_min":80,"x_max":738,"o":"m 322 -24 q 195 6 250 -24 q 110 87 141 35 q 80 207 80 139 l 80 216 q 158 395 80 328 q 367 462 236 462 q 466 452 420 462 q 550 425 511 443 l 550 303 q 422 337 494 337 q 325 308 359 337 q 292 226 292 280 l 292 217 q 320 144 292 169 q 401 118 349 118 q 470 139 441 118 q 517 199 500 160 q 533 288 533 238 l 533 458 q 499 561 533 526 q 397 595 464 595 q 226 520 306 595 l 118 636 q 424 754 236 754 q 657 681 577 754 q 738 467 738 607 l 738 0 l 538 0 l 538 94 l 531 94 q 445 7 500 38 q 322 -24 391 -24 m 418 -407 q 319 -367 360 -407 q 279 -269 279 -327 q 319 -171 279 -211 q 418 -131 359 -131 q 517 -171 478 -131 q 557 -269 557 -211 q 517 -367 557 -327 q 418 -407 478 -407 m 424 866 q 384 866 424 866 q 284 899 344 866 q 190 991 224 932 q 156 1128 156 1050 l 156 1136 l 312 1136 l 312 1124 q 342 1039 312 1069 q 424 1008 372 1008 q 506 1039 476 1008 q 535 1124 535 1069 l 535 1136 l 691 1136 l 691 1128 q 657 991 691 1050 q 564 899 624 932 q 424 866 503 866 z "},"ɓ":{"ha":833,"x_min":83,"x_max":770,"o":"m 501 -24 q 379 11 434 -24 q 292 108 324 46 l 285 108 l 285 0 l 83 0 l 83 721 q 173 978 83 885 q 419 1072 263 1072 q 516 1062 473 1072 q 602 1032 560 1053 l 535 857 q 486 875 510 869 q 433 880 463 880 q 328 838 364 880 q 292 711 292 797 l 292 610 l 298 610 q 389 703 334 671 q 510 735 443 735 q 648 688 590 735 q 738 558 706 642 q 770 362 770 474 l 770 350 q 736 154 770 238 q 642 23 703 69 q 501 -24 582 -24 m 426 150 q 525 201 490 150 q 560 347 560 253 l 560 365 q 525 510 560 459 q 426 561 490 561 q 324 507 363 561 q 286 361 286 452 l 286 351 q 324 205 286 259 q 426 150 363 150 z "},"ç":{"ha":833,"x_min":87,"x_max":788,"o":"m 454 -24 q 260 24 343 -24 q 132 159 178 72 q 87 360 87 245 l 87 371 q 133 572 87 486 q 261 706 178 658 q 456 754 344 754 q 664 692 581 754 q 776 517 747 630 l 588 461 q 540 546 574 517 q 453 574 506 574 q 336 522 378 574 q 294 376 294 469 l 294 355 q 338 211 294 265 q 457 157 382 157 q 549 186 513 157 q 601 273 585 216 l 788 211 q 719 86 767 139 q 604 5 672 33 q 454 -24 536 -24 m 458 -457 q 329 -421 390 -457 q 234 -324 269 -385 l 351 -253 q 458 -326 393 -326 q 515 -308 493 -326 q 536 -258 536 -289 q 517 -207 536 -226 q 465 -189 497 -189 q 398 -210 427 -189 l 317 -140 l 413 13 l 521 13 l 406 -167 l 351 -137 q 415 -93 378 -109 q 490 -78 451 -78 q 623 -128 573 -78 q 674 -263 674 -179 q 614 -403 674 -349 q 458 -457 554 -457 z "},"ć":{"ha":833,"x_min":87,"x_max":788,"o":"m 454 -24 q 260 24 343 -24 q 132 159 178 72 q 87 360 87 245 l 87 371 q 133 572 87 486 q 261 706 178 658 q 456 754 344 754 q 664 692 581 754 q 776 517 747 630 l 588 461 q 540 546 574 517 q 453 574 506 574 q 336 522 378 574 q 294 376 294 469 l 294 355 q 338 211 294 265 q 457 157 382 157 q 549 186 513 157 q 601 273 585 216 l 788 211 q 719 86 767 139 q 604 5 672 33 q 454 -24 536 -24 m 362 874 l 362 883 l 506 1136 l 748 1136 l 748 1127 l 547 874 l 362 874 z "},"ċ":{"ha":833,"x_min":87,"x_max":788,"o":"m 454 -24 q 260 24 343 -24 q 132 159 178 72 q 87 360 87 245 l 87 371 q 133 572 87 486 q 261 706 178 658 q 456 754 344 754 q 664 692 581 754 q 776 517 747 630 l 588 461 q 540 546 574 517 q 453 574 506 574 q 336 522 378 574 q 294 376 294 469 l 294 355 q 338 211 294 265 q 457 157 382 157 q 549 186 513 157 q 601 273 585 216 l 788 211 q 719 86 767 139 q 604 5 672 33 q 454 -24 536 -24 m 454 865 q 356 905 396 865 q 315 1003 315 945 q 355 1101 315 1061 q 454 1142 395 1142 q 553 1101 514 1142 q 593 1003 593 1061 q 553 905 593 945 q 454 865 514 865 z "},"č":{"ha":833,"x_min":87,"x_max":788,"o":"m 454 -24 q 260 24 343 -24 q 132 159 178 72 q 87 360 87 245 l 87 371 q 133 572 87 486 q 261 706 178 658 q 456 754 344 754 q 664 692 581 754 q 776 517 747 630 l 588 461 q 540 546 574 517 q 453 574 506 574 q 336 522 378 574 q 294 376 294 469 l 294 355 q 338 211 294 265 q 457 157 382 157 q 549 186 513 157 q 601 273 585 216 l 788 211 q 719 86 767 139 q 604 5 672 33 q 454 -24 536 -24 m 352 874 l 151 1126 l 151 1136 l 356 1136 l 474 931 l 435 931 l 552 1136 l 758 1136 l 758 1126 l 556 874 l 352 874 z "},"ď":{"ha":833,"x_min":31,"x_max":859,"o":"m 271 -24 q 149 21 203 -24 q 63 151 94 66 q 31 353 31 235 l 31 378 q 61 581 31 497 q 145 710 92 665 q 265 754 198 754 q 361 723 321 754 q 427 631 401 692 l 433 631 l 433 1014 l 626 1014 l 626 0 l 440 0 l 440 108 l 434 108 q 368 11 409 47 q 271 -24 326 -24 m 335 145 q 411 199 383 145 q 440 350 440 253 l 440 381 q 411 532 440 478 q 335 586 383 586 q 257 533 285 586 q 229 381 229 480 l 229 350 q 258 198 229 251 q 335 145 286 145 m 678 647 l 692 1014 l 859 1014 l 822 647 l 678 647 z "},"đ":{"ha":833,"x_min":49,"x_max":847,"o":"m 326 -24 q 184 22 247 -24 q 85 148 122 68 q 49 331 49 228 l 49 342 q 83 525 49 445 q 180 651 118 605 q 321 697 241 697 q 443 663 393 697 q 526 563 493 628 l 533 563 l 533 1049 l 726 1049 l 726 0 l 534 0 l 534 108 l 528 108 q 445 11 497 46 q 326 -24 392 -24 m 394 151 q 495 202 457 151 q 533 337 533 254 l 533 347 q 495 481 533 429 q 394 533 458 533 q 290 484 328 533 q 253 350 253 435 l 253 334 q 290 200 253 250 q 394 151 328 151 m 298 794 l 298 935 l 847 935 l 847 794 l 298 794 z "},"ɗ":{"ha":833,"x_min":47,"x_max":846,"o":"m 294 -24 q 165 24 221 -24 q 78 157 109 72 q 47 353 47 242 l 47 378 q 77 576 47 492 q 161 708 107 661 q 289 754 216 754 q 460 631 404 754 l 466 631 l 466 783 q 500 940 466 876 q 592 1038 533 1004 q 724 1072 651 1072 q 789 1066 760 1072 q 846 1051 819 1061 l 804 874 q 778 882 791 879 q 749 885 765 885 q 682 856 704 885 q 659 765 659 826 l 659 0 l 473 0 l 473 108 l 467 108 q 294 -24 412 -24 m 360 145 q 442 200 412 145 q 472 350 472 255 l 472 381 q 442 531 472 476 q 360 586 412 586 q 275 532 305 586 q 245 381 245 478 l 245 350 q 275 199 245 253 q 360 145 305 145 z "},"ǆ":{"ha":833,"x_min":1,"x_max":910,"o":"m 167 -24 q 78 20 115 -24 q 20 145 40 65 q 1 335 1 226 l 1 397 q 19 586 1 506 q 72 710 38 666 q 157 754 107 754 q 225 726 197 754 q 276 640 254 697 l 282 640 l 282 1014 l 444 1014 l 444 0 l 293 0 l 293 96 l 287 96 q 238 8 267 39 q 167 -24 208 -24 m 233 139 q 278 184 263 139 q 293 313 293 228 l 293 418 q 278 547 293 502 q 232 592 263 592 q 185 549 201 592 q 170 422 170 506 l 170 309 q 186 182 170 224 q 233 139 201 139 m 485 0 l 485 131 l 667 575 l 492 575 l 492 731 l 835 731 l 835 600 l 653 156 l 842 156 l 842 0 l 485 0 m 588 874 l 442 1127 l 442 1136 l 601 1136 l 692 942 l 660 942 l 750 1136 l 910 1136 l 910 1127 l 763 874 l 588 874 z "},"è":{"ha":833,"x_min":61,"x_max":765,"o":"m 438 -24 q 239 24 324 -24 q 108 157 154 71 q 61 358 61 242 l 61 373 q 108 573 61 488 q 239 707 155 659 q 434 754 323 754 q 608 713 534 754 q 724 595 683 671 q 765 417 765 519 q 763 361 765 387 q 756 316 761 336 l 170 316 l 170 438 l 574 438 l 574 434 q 537 547 574 506 q 435 588 500 588 q 308 530 355 588 q 261 370 261 472 l 261 360 q 309 203 261 261 q 438 146 356 146 q 582 244 539 146 l 760 170 q 635 27 719 77 q 438 -24 552 -24 m 342 874 l 142 1127 l 142 1136 l 383 1136 l 527 883 l 527 874 l 342 874 z "},"é":{"ha":833,"x_min":61,"x_max":765,"o":"m 438 -24 q 239 24 324 -24 q 108 157 154 71 q 61 358 61 242 l 61 373 q 108 573 61 488 q 239 707 155 659 q 434 754 323 754 q 608 713 534 754 q 724 595 683 671 q 765 417 765 519 q 763 361 765 387 q 756 316 761 336 l 170 316 l 170 438 l 574 438 l 574 434 q 537 547 574 506 q 435 588 500 588 q 308 530 355 588 q 261 370 261 472 l 261 360 q 309 203 261 261 q 438 146 356 146 q 582 244 539 146 l 760 170 q 635 27 719 77 q 438 -24 552 -24 m 342 874 l 342 883 l 487 1136 l 728 1136 l 728 1127 l 527 874 l 342 874 z "},"ê":{"ha":833,"x_min":61,"x_max":765,"o":"m 438 -24 q 239 24 324 -24 q 108 157 154 71 q 61 358 61 242 l 61 373 q 108 573 61 488 q 239 707 155 659 q 434 754 323 754 q 608 713 534 754 q 724 595 683 671 q 765 417 765 519 q 763 361 765 387 q 756 316 761 336 l 170 316 l 170 438 l 574 438 l 574 434 q 537 547 574 506 q 435 588 500 588 q 308 530 355 588 q 261 370 261 472 l 261 360 q 309 203 261 261 q 438 146 356 146 q 582 244 539 146 l 760 170 q 635 27 719 77 q 438 -24 552 -24 m 131 874 l 131 883 l 333 1136 l 537 1136 l 738 883 l 738 874 l 533 874 l 413 1078 l 458 1078 l 337 874 l 131 874 z "},"ë":{"ha":833,"x_min":61,"x_max":765,"o":"m 438 -24 q 239 24 324 -24 q 108 157 154 71 q 61 358 61 242 l 61 373 q 108 573 61 488 q 239 707 155 659 q 434 754 323 754 q 608 713 534 754 q 724 595 683 671 q 765 417 765 519 q 763 361 765 387 q 756 316 761 336 l 170 316 l 170 438 l 574 438 l 574 434 q 537 547 574 506 q 435 588 500 588 q 308 530 355 588 q 261 370 261 472 l 261 360 q 309 203 261 261 q 438 146 356 146 q 582 244 539 146 l 760 170 q 635 27 719 77 q 438 -24 552 -24 m 246 865 q 151 903 190 865 q 113 997 113 942 q 151 1090 113 1051 q 246 1128 190 1128 q 341 1090 302 1128 q 379 997 379 1052 q 341 903 379 941 q 246 865 303 865 m 624 865 q 529 903 568 865 q 490 997 490 942 q 529 1090 490 1051 q 624 1128 568 1128 q 718 1090 680 1128 q 757 997 757 1052 q 719 903 757 941 q 624 865 681 865 z "},"ē":{"ha":833,"x_min":61,"x_max":765,"o":"m 438 -24 q 239 24 324 -24 q 108 157 154 71 q 61 358 61 242 l 61 373 q 108 573 61 488 q 239 707 155 659 q 434 754 323 754 q 608 713 534 754 q 724 595 683 671 q 765 417 765 519 q 763 361 765 387 q 756 316 761 336 l 170 316 l 170 438 l 574 438 l 574 434 q 537 547 574 506 q 435 588 500 588 q 308 530 355 588 q 261 370 261 472 l 261 360 q 309 203 261 261 q 438 146 356 146 q 582 244 539 146 l 760 170 q 635 27 719 77 q 438 -24 552 -24 m 210 913 l 210 1084 l 659 1084 l 659 913 l 210 913 z "},"ė":{"ha":833,"x_min":61,"x_max":765,"o":"m 438 -24 q 239 24 324 -24 q 108 157 154 71 q 61 358 61 242 l 61 373 q 108 573 61 488 q 239 707 155 659 q 434 754 323 754 q 608 713 534 754 q 724 595 683 671 q 765 417 765 519 q 763 361 765 387 q 756 316 761 336 l 170 316 l 170 438 l 574 438 l 574 434 q 537 547 574 506 q 435 588 500 588 q 308 530 355 588 q 261 370 261 472 l 261 360 q 309 203 261 261 q 438 146 356 146 q 582 244 539 146 l 760 170 q 635 27 719 77 q 438 -24 552 -24 m 435 865 q 336 905 376 865 q 296 1003 296 945 q 336 1101 296 1061 q 435 1142 376 1142 q 534 1101 494 1142 q 574 1003 574 1061 q 534 905 574 945 q 435 865 494 865 z "},"ę":{"ha":833,"x_min":61,"x_max":765,"o":"m 528 -380 q 422 -356 469 -380 q 348 -289 375 -331 q 321 -194 321 -247 q 383 -42 321 -107 q 582 78 444 24 l 553 -3 q 433 -19 500 -19 q 236 28 320 -19 q 107 159 153 74 q 61 358 61 244 l 61 373 q 108 573 61 488 q 238 707 154 659 q 433 754 322 754 q 608 713 533 754 q 724 595 683 671 q 765 417 765 519 q 763 361 765 387 q 756 316 761 336 l 170 316 l 170 438 l 581 438 l 574 434 q 537 547 574 506 q 435 588 501 588 q 308 530 355 588 q 261 370 261 472 l 261 360 q 309 203 261 261 q 438 146 356 146 q 582 244 538 146 l 760 170 q 700 80 739 122 q 593 -8 661 37 q 507 -82 531 -50 q 483 -152 483 -113 q 505 -206 483 -185 q 562 -227 528 -227 q 630 -210 597 -227 l 676 -341 q 606 -370 642 -360 q 528 -380 570 -380 z "},"ě":{"ha":833,"x_min":61,"x_max":765,"o":"m 438 -24 q 239 24 324 -24 q 108 157 154 71 q 61 358 61 242 l 61 373 q 108 573 61 488 q 239 707 155 659 q 434 754 323 754 q 608 713 534 754 q 724 595 683 671 q 765 417 765 519 q 763 361 765 387 q 756 316 761 336 l 170 316 l 170 438 l 574 438 l 574 434 q 537 547 574 506 q 435 588 500 588 q 308 530 355 588 q 261 370 261 472 l 261 360 q 309 203 261 261 q 438 146 356 146 q 582 244 539 146 l 760 170 q 635 27 719 77 q 438 -24 552 -24 m 333 874 l 131 1126 l 131 1136 l 337 1136 l 455 931 l 415 931 l 533 1136 l 738 1136 l 738 1126 l 537 874 l 333 874 z "},"ẹ":{"ha":833,"x_min":61,"x_max":765,"o":"m 438 -24 q 239 24 324 -24 q 108 157 154 71 q 61 358 61 242 l 61 373 q 108 573 61 488 q 239 707 155 659 q 434 754 323 754 q 608 713 534 754 q 724 595 683 671 q 765 417 765 519 q 763 361 765 387 q 756 316 761 336 l 170 316 l 170 438 l 574 438 l 574 434 q 537 547 574 506 q 435 588 500 588 q 308 530 355 588 q 261 370 261 472 l 261 360 q 309 203 261 261 q 438 146 356 146 q 582 244 539 146 l 760 170 q 635 27 719 77 q 438 -24 552 -24 m 438 -407 q 340 -367 380 -407 q 299 -269 299 -327 q 339 -171 299 -211 q 438 -131 379 -131 q 538 -171 498 -131 q 577 -269 577 -211 q 538 -367 577 -327 q 438 -407 498 -407 z "},"ẻ":{"ha":833,"x_min":61,"x_max":765,"o":"m 438 -24 q 239 24 324 -24 q 108 157 154 71 q 61 358 61 242 l 61 373 q 108 573 61 488 q 239 707 155 659 q 434 754 323 754 q 608 713 534 754 q 724 595 683 671 q 765 417 765 519 q 763 361 765 387 q 756 316 761 336 l 170 316 l 170 438 l 574 438 l 574 434 q 537 547 574 506 q 435 588 500 588 q 308 530 355 588 q 261 370 261 472 l 261 360 q 309 203 261 261 q 438 146 356 146 q 582 244 539 146 l 760 170 q 635 27 719 77 q 438 -24 552 -24 m 413 809 l 393 947 q 482 967 453 951 q 510 1015 510 983 q 428 1074 510 1074 q 299 1051 366 1074 l 260 1186 q 344 1214 300 1204 q 432 1224 389 1224 q 595 1170 534 1224 q 656 1028 656 1117 q 593 877 656 933 q 413 809 531 820 z "},"ẽ":{"ha":833,"x_min":61,"x_max":765,"o":"m 438 -24 q 239 24 324 -24 q 108 157 154 71 q 61 358 61 242 l 61 373 q 108 573 61 488 q 239 707 155 659 q 434 754 323 754 q 608 713 534 754 q 724 595 683 671 q 765 417 765 519 q 763 361 765 387 q 756 316 761 336 l 170 316 l 170 438 l 574 438 l 574 434 q 537 547 574 506 q 435 588 500 588 q 308 530 355 588 q 261 370 261 472 l 261 360 q 309 203 261 261 q 438 146 356 146 q 582 244 539 146 l 760 170 q 635 27 719 77 q 438 -24 552 -24 m 559 874 q 492 889 525 874 q 423 938 459 904 q 381 974 397 963 q 349 985 365 985 q 310 934 310 985 l 310 876 l 160 876 l 160 940 q 201 1087 160 1035 q 319 1138 242 1138 q 383 1124 353 1138 q 447 1075 413 1110 q 490 1038 474 1049 q 522 1027 506 1027 q 559 1078 559 1027 l 559 1136 l 710 1136 l 710 1074 q 673 926 710 977 q 559 874 635 874 z "},"ế":{"ha":833,"x_min":61,"x_max":878,"o":"m 438 -24 q 239 24 324 -24 q 108 157 154 71 q 61 358 61 242 l 61 373 q 108 573 61 488 q 239 707 155 659 q 434 754 323 754 q 608 713 534 754 q 724 595 683 671 q 765 417 765 519 q 763 361 765 387 q 756 316 761 336 l 170 316 l 170 438 l 574 438 l 574 434 q 537 547 574 506 q 435 588 500 588 q 308 530 355 588 q 261 370 261 472 l 261 360 q 309 203 261 261 q 438 146 356 146 q 582 244 539 146 l 760 170 q 635 27 719 77 q 438 -24 552 -24 m 115 848 l 115 857 l 351 1103 l 518 1103 l 756 857 l 756 848 l 546 848 l 422 1003 l 449 1003 l 324 848 l 115 848 m 595 1061 l 595 1070 l 701 1351 l 878 1351 l 878 1342 l 724 1061 l 595 1061 z "},"ề":{"ha":833,"x_min":61,"x_max":828,"o":"m 438 -24 q 239 24 324 -24 q 108 157 154 71 q 61 358 61 242 l 61 373 q 108 573 61 488 q 239 707 155 659 q 434 754 323 754 q 608 713 534 754 q 724 595 683 671 q 765 417 765 519 q 763 361 765 387 q 756 316 761 336 l 170 316 l 170 438 l 574 438 l 574 434 q 537 547 574 506 q 435 588 500 588 q 308 530 355 588 q 261 370 261 472 l 261 360 q 309 203 261 261 q 438 146 356 146 q 582 244 539 146 l 760 170 q 635 27 719 77 q 438 -24 552 -24 m 115 848 l 115 857 l 351 1103 l 518 1103 l 756 857 l 756 848 l 546 848 l 422 1003 l 449 1003 l 324 848 l 115 848 m 685 1060 l 499 1341 l 499 1350 l 682 1350 l 828 1069 l 828 1060 l 685 1060 z "},"ể":{"ha":833,"x_min":61,"x_max":846,"o":"m 438 -24 q 239 24 324 -24 q 108 157 154 71 q 61 358 61 242 l 61 373 q 108 573 61 488 q 239 707 155 659 q 434 754 323 754 q 608 713 534 754 q 724 595 683 671 q 765 417 765 519 q 763 361 765 387 q 756 316 761 336 l 170 316 l 170 438 l 574 438 l 574 434 q 537 547 574 506 q 435 588 500 588 q 308 530 355 588 q 261 370 261 472 l 261 360 q 309 203 261 261 q 438 146 356 146 q 582 244 539 146 l 760 170 q 635 27 719 77 q 438 -24 552 -24 m 115 848 l 115 857 l 352 1103 l 519 1103 l 756 857 l 756 848 l 547 848 l 422 1003 l 449 1003 l 325 848 l 115 848 m 656 1023 l 640 1142 q 724 1198 724 1148 q 645 1250 724 1250 q 542 1235 593 1250 l 513 1356 q 649 1378 575 1378 q 792 1332 739 1378 q 846 1208 846 1285 q 796 1081 846 1130 q 656 1023 746 1033 z "},"ễ":{"ha":833,"x_min":61,"x_max":765,"o":"m 438 -24 q 239 24 324 -24 q 108 157 154 71 q 61 358 61 242 l 61 373 q 108 573 61 488 q 239 707 155 659 q 434 754 323 754 q 608 713 534 754 q 724 595 683 671 q 765 417 765 519 q 763 361 765 387 q 756 316 761 336 l 170 316 l 170 438 l 574 438 l 574 434 q 537 547 574 506 q 435 588 500 588 q 308 530 355 588 q 261 370 261 472 l 261 360 q 309 203 261 261 q 438 146 356 146 q 582 244 539 146 l 760 170 q 635 27 719 77 q 438 -24 552 -24 m 115 848 l 115 857 l 352 1103 l 519 1103 l 756 857 l 756 848 l 547 848 l 422 1003 l 449 1003 l 325 848 l 115 848 m 579 1165 q 512 1177 543 1165 q 446 1213 481 1189 q 386 1249 408 1239 q 343 1260 365 1260 q 298 1206 298 1260 l 298 1167 l 152 1167 l 152 1222 q 192 1353 152 1307 q 301 1399 231 1399 q 367 1386 337 1399 q 432 1350 398 1374 q 491 1314 470 1324 q 531 1303 513 1303 q 574 1357 574 1303 l 574 1397 l 719 1397 l 719 1341 q 683 1209 719 1254 q 579 1165 647 1165 z "},"ệ":{"ha":833,"x_min":61,"x_max":765,"o":"m 438 -24 q 239 24 324 -24 q 108 157 154 71 q 61 358 61 242 l 61 373 q 108 573 61 488 q 239 707 155 659 q 434 754 323 754 q 608 713 534 754 q 724 595 683 671 q 765 417 765 519 q 763 361 765 387 q 756 316 761 336 l 170 316 l 170 438 l 574 438 l 574 434 q 537 547 574 506 q 435 588 500 588 q 308 530 355 588 q 261 370 261 472 l 261 360 q 309 203 261 261 q 438 146 356 146 q 582 244 539 146 l 760 170 q 635 27 719 77 q 438 -24 552 -24 m 438 -407 q 340 -367 380 -407 q 299 -269 299 -327 q 339 -171 299 -211 q 438 -131 379 -131 q 538 -171 498 -131 q 577 -269 577 -211 q 538 -367 577 -327 q 438 -407 498 -407 m 131 874 l 131 883 l 333 1136 l 537 1136 l 738 883 l 738 874 l 533 874 l 413 1078 l 458 1078 l 337 874 l 131 874 z "},"ð":{"ha":833,"x_min":64,"x_max":783,"o":"m 419 -24 q 235 24 315 -24 q 109 155 155 72 q 64 346 64 238 l 64 354 q 104 536 64 457 q 215 661 144 616 q 381 707 286 707 q 511 670 461 707 q 586 573 561 634 l 551 596 l 578 603 q 532 767 566 697 q 433 895 497 837 q 265 1011 368 953 l 340 1136 q 590 943 492 1049 q 735 707 688 837 q 783 415 783 576 l 783 407 q 736 166 783 262 q 608 23 690 70 q 419 -24 526 -24 m 423 161 q 535 213 494 161 q 575 351 575 265 l 575 355 q 535 494 575 442 q 423 546 494 546 q 312 494 352 546 q 272 355 272 442 l 272 351 q 312 213 272 265 q 423 161 352 161 m 198 771 l 169 892 l 460 956 l 531 852 l 198 771 m 558 869 l 487 972 l 749 1037 l 778 915 l 558 869 z "},"ŋ":{"ha":833,"x_min":96,"x_max":754,"o":"m 494 -312 q 283 -247 369 -312 l 382 -91 q 429 -119 408 -110 q 473 -127 450 -127 q 544 -43 544 -127 l 544 455 q 439 579 544 579 q 342 538 379 579 q 306 428 306 496 l 306 0 l 96 0 l 96 731 l 295 731 l 295 619 l 301 619 q 536 754 388 754 q 696 686 638 754 q 754 501 754 618 l 754 -40 q 685 -240 754 -167 q 494 -312 617 -312 z "},"ğ":{"ha":833,"x_min":28,"x_max":813,"o":"m 416 -397 q 213 -365 300 -397 q 76 -275 125 -333 q 28 -141 28 -217 q 78 -6 28 -62 q 219 70 128 50 l 251 -15 q 222 -58 231 -35 q 213 -110 213 -82 q 266 -206 213 -172 q 417 -239 319 -239 q 570 -208 514 -239 q 626 -124 626 -177 q 532 -51 626 -51 l 165 -51 l 165 17 l 313 249 l 423 235 l 379 106 l 571 106 q 749 50 685 106 q 813 -106 813 -6 q 764 -261 813 -196 q 627 -362 716 -326 q 416 -397 538 -397 m 423 190 q 255 227 330 190 q 137 327 181 264 q 94 470 94 391 l 94 474 q 134 620 94 557 q 246 719 174 683 q 411 754 317 754 q 580 717 505 754 q 698 617 654 681 q 741 474 741 554 l 741 470 q 701 324 741 388 q 589 226 660 261 q 423 190 517 190 m 417 351 q 518 383 481 351 q 554 468 554 414 l 554 474 q 518 559 554 528 q 417 590 481 590 q 317 559 353 590 q 280 474 280 528 l 280 468 q 317 383 280 414 q 417 351 353 351 m 583 647 l 515 688 q 608 842 538 790 q 792 894 678 894 l 792 720 q 583 647 649 720 m 415 866 q 375 866 415 866 q 275 899 335 866 q 181 991 215 932 q 147 1128 147 1050 l 147 1136 l 303 1136 l 303 1124 q 333 1039 303 1069 q 415 1008 363 1008 q 497 1039 467 1008 q 526 1124 526 1069 l 526 1136 l 682 1136 l 682 1128 q 648 991 682 1050 q 555 899 615 932 q 415 866 494 866 z "},"ġ":{"ha":833,"x_min":28,"x_max":813,"o":"m 416 -397 q 213 -365 300 -397 q 76 -275 125 -333 q 28 -141 28 -217 q 78 -6 28 -62 q 219 70 128 50 l 251 -15 q 222 -58 231 -35 q 213 -110 213 -82 q 266 -206 213 -172 q 417 -239 319 -239 q 570 -208 514 -239 q 626 -124 626 -177 q 532 -51 626 -51 l 165 -51 l 165 17 l 313 249 l 423 235 l 379 106 l 571 106 q 749 50 685 106 q 813 -106 813 -6 q 764 -261 813 -196 q 627 -362 716 -326 q 416 -397 538 -397 m 423 190 q 255 227 330 190 q 137 327 181 264 q 94 470 94 391 l 94 474 q 134 620 94 557 q 246 719 174 683 q 411 754 317 754 q 580 717 505 754 q 698 617 654 681 q 741 474 741 554 l 741 470 q 701 324 741 388 q 589 226 660 261 q 423 190 517 190 m 417 351 q 518 383 481 351 q 554 468 554 414 l 554 474 q 518 559 554 528 q 417 590 481 590 q 317 559 353 590 q 280 474 280 528 l 280 468 q 317 383 280 414 q 417 351 353 351 m 583 647 l 515 688 q 608 842 538 790 q 792 894 678 894 l 792 720 q 583 647 649 720 m 415 865 q 316 905 356 865 q 276 1003 276 945 q 316 1101 276 1061 q 415 1142 356 1142 q 514 1101 474 1142 q 553 1003 553 1061 q 514 905 553 945 q 415 865 474 865 z "},"ģ":{"ha":833,"x_min":28,"x_max":813,"o":"m 416 -397 q 213 -365 300 -397 q 76 -275 125 -333 q 28 -141 28 -217 q 78 -6 28 -62 q 219 70 128 50 l 251 -15 q 222 -58 231 -35 q 213 -110 213 -82 q 266 -206 213 -172 q 417 -239 319 -239 q 570 -208 514 -239 q 626 -124 626 -177 q 532 -51 626 -51 l 165 -51 l 165 17 l 313 249 l 423 235 l 379 106 l 571 106 q 749 50 685 106 q 813 -106 813 -6 q 764 -261 813 -196 q 627 -362 716 -326 q 416 -397 538 -397 m 423 190 q 255 227 330 190 q 137 327 181 264 q 94 470 94 391 l 94 474 q 134 620 94 557 q 246 719 174 683 q 411 754 317 754 q 580 717 505 754 q 698 617 654 681 q 741 474 741 554 l 741 470 q 701 324 741 388 q 589 226 660 261 q 423 190 517 190 m 417 351 q 518 383 481 351 q 554 468 554 414 l 554 474 q 518 559 554 528 q 417 590 481 590 q 317 559 353 590 q 280 474 280 528 l 280 468 q 317 383 280 414 q 417 351 353 351 m 583 647 l 515 688 q 608 842 538 790 q 792 894 678 894 l 792 720 q 583 647 649 720 m 433 1366 l 549 1285 l 390 1070 l 394 1128 q 488 1090 451 1126 q 524 1001 524 1053 q 485 910 524 946 q 389 874 447 874 q 288 913 326 874 q 249 1017 249 953 q 265 1100 249 1058 q 320 1199 282 1142 l 433 1366 z "},"ħ":{"ha":833,"x_min":-11,"x_max":753,"o":"m 110 0 l 110 1049 l 301 1049 l 301 567 l 309 567 q 540 697 397 697 q 696 630 640 697 q 753 447 753 564 l 753 0 l 543 0 l 543 402 q 443 522 543 522 q 353 481 388 522 q 319 375 319 441 l 319 0 l 110 0 m -11 794 l -11 935 l 538 935 l 538 794 l -11 794 z "},"ì":{"ha":833,"x_min":116,"x_max":774,"o":"m 351 0 l 351 731 l 556 731 l 556 0 l 351 0 m 116 0 l 116 156 l 774 156 l 774 0 l 116 0 m 130 574 l 130 731 l 528 731 l 528 574 l 130 574 m 361 874 l 160 1127 l 160 1136 l 402 1136 l 546 883 l 546 874 l 361 874 z "},"í":{"ha":833,"x_min":116,"x_max":774,"o":"m 351 0 l 351 731 l 556 731 l 556 0 l 351 0 m 116 0 l 116 156 l 774 156 l 774 0 l 116 0 m 130 574 l 130 731 l 528 731 l 528 574 l 130 574 m 361 874 l 361 883 l 506 1136 l 747 1136 l 747 1127 l 546 874 l 361 874 z "},"î":{"ha":833,"x_min":116,"x_max":774,"o":"m 351 0 l 351 731 l 556 731 l 556 0 l 351 0 m 116 0 l 116 156 l 774 156 l 774 0 l 116 0 m 130 574 l 130 731 l 528 731 l 528 574 l 130 574 m 150 874 l 150 883 l 351 1136 l 556 1136 l 757 883 l 757 874 l 551 874 l 431 1078 l 476 1078 l 356 874 l 150 874 z "},"ī":{"ha":833,"x_min":116,"x_max":774,"o":"m 351 0 l 351 731 l 556 731 l 556 0 l 351 0 m 116 0 l 116 156 l 774 156 l 774 0 l 116 0 m 130 574 l 130 731 l 528 731 l 528 574 l 130 574 m 229 913 l 229 1084 l 678 1084 l 678 913 l 229 913 z "},"ï":{"ha":833,"x_min":116,"x_max":776,"o":"m 351 0 l 351 731 l 556 731 l 556 0 l 351 0 m 116 0 l 116 156 l 774 156 l 774 0 l 116 0 m 130 574 l 130 731 l 528 731 l 528 574 l 130 574 m 265 865 q 170 903 209 865 q 131 997 131 942 q 170 1090 131 1051 q 265 1128 209 1128 q 359 1090 321 1128 q 398 997 398 1052 q 360 903 398 941 q 265 865 322 865 m 642 865 q 548 903 587 865 q 509 997 509 942 q 548 1090 509 1051 q 642 1128 587 1128 q 737 1090 699 1128 q 776 997 776 1052 q 738 903 776 941 q 642 865 699 865 z "},"į":{"ha":833,"x_min":116,"x_max":774,"o":"m 351 56 l 351 731 l 556 731 l 556 56 l 351 56 m 116 0 l 116 156 l 774 156 l 774 0 l 116 0 m 130 574 l 130 731 l 528 731 l 528 574 l 130 574 m 432 865 q 335 905 375 865 q 294 1000 294 944 q 335 1096 294 1058 q 432 1134 375 1134 q 530 1096 491 1134 q 568 1000 568 1058 q 530 905 568 944 q 432 865 491 865 m 451 -381 q 348 -355 394 -381 q 276 -286 303 -330 q 250 -188 250 -243 q 313 -37 250 -103 q 511 78 376 28 l 555 0 q 445 -75 479 -39 q 412 -156 412 -111 q 434 -208 412 -187 q 491 -228 456 -228 q 550 -214 522 -228 l 590 -344 q 451 -381 527 -381 z "},"ı":{"ha":833,"x_min":116,"x_max":774,"o":"m 351 0 l 351 731 l 556 731 l 556 0 l 351 0 m 116 0 l 116 156 l 774 156 l 774 0 l 116 0 m 130 574 l 130 731 l 528 731 l 528 574 l 130 574 z "},"ĳ":{"ha":833,"x_min":16,"x_max":802,"o":"m 474 -312 q 219 -228 335 -312 l 319 -72 q 392 -113 358 -99 q 465 -127 427 -127 q 552 -94 522 -127 q 582 1 582 -60 l 582 731 l 790 731 l 790 8 q 706 -226 790 -141 q 474 -312 622 -312 m 16 0 l 16 156 l 488 156 l 488 0 l 16 0 m 151 56 l 151 731 l 357 731 l 357 56 l 151 56 m 23 575 l 23 731 l 342 731 l 342 575 l 23 575 m 249 865 q 151 905 192 865 q 111 1000 111 944 q 151 1096 111 1058 q 249 1134 192 1134 q 347 1096 308 1134 q 385 1000 385 1058 q 347 905 385 944 q 249 865 308 865 m 435 575 l 435 731 l 737 731 l 737 575 l 435 575 m 666 865 q 569 905 609 865 q 528 1000 528 944 q 568 1096 528 1058 q 666 1134 608 1134 q 764 1096 725 1134 q 802 1000 802 1058 q 763 904 802 943 q 666 865 724 865 z "},"ĩ":{"ha":833,"x_min":116,"x_max":774,"o":"m 351 0 l 351 731 l 556 731 l 556 0 l 351 0 m 116 0 l 116 156 l 774 156 l 774 0 l 116 0 m 130 574 l 130 731 l 528 731 l 528 574 l 130 574 m 578 874 q 511 889 544 874 q 442 938 478 904 q 399 974 415 963 q 368 985 383 985 q 329 934 329 985 l 329 876 l 179 876 l 179 940 q 220 1087 179 1035 q 338 1138 261 1138 q 401 1124 372 1138 q 466 1075 431 1110 q 509 1038 492 1049 q 541 1027 525 1027 q 578 1078 578 1027 l 578 1136 l 728 1136 l 728 1074 q 691 926 728 977 q 578 874 654 874 z "},"ỉ":{"ha":833,"x_min":116,"x_max":774,"o":"m 351 0 l 351 731 l 556 731 l 556 0 l 351 0 m 116 0 l 116 156 l 774 156 l 774 0 l 116 0 m 130 574 l 130 731 l 528 731 l 528 574 l 130 574 m 388 809 l 367 947 q 456 967 427 951 q 485 1015 485 983 q 403 1074 485 1074 q 274 1051 340 1074 l 234 1186 q 319 1214 274 1204 q 406 1224 363 1224 q 569 1170 508 1224 q 631 1028 631 1117 q 568 877 631 933 q 388 809 505 820 z "},"ị":{"ha":833,"x_min":116,"x_max":774,"o":"m 351 56 l 351 731 l 556 731 l 556 56 l 351 56 m 116 0 l 116 156 l 774 156 l 774 0 l 116 0 m 130 574 l 130 731 l 528 731 l 528 574 l 130 574 m 432 865 q 335 905 375 865 q 294 1000 294 944 q 335 1096 294 1058 q 432 1134 375 1134 q 530 1096 491 1134 q 568 1000 568 1058 q 530 905 568 944 q 432 865 491 865 m 453 -383 q 355 -343 395 -383 q 315 -245 315 -303 q 355 -147 315 -187 q 453 -107 394 -107 q 553 -147 513 -107 q 592 -245 592 -187 q 553 -343 592 -303 q 453 -383 513 -383 z "},"ȷ":{"ha":833,"x_min":50,"x_max":621,"o":"m 306 -312 q 50 -228 166 -312 l 151 -72 q 224 -113 189 -99 q 296 -127 258 -127 q 381 -94 351 -127 q 411 1 411 -60 l 411 731 l 621 731 l 621 8 q 537 -226 621 -141 q 306 -312 453 -312 m 141 575 l 141 731 l 568 731 l 568 575 l 141 575 z "},"ķ":{"ha":833,"x_min":78,"x_max":793,"o":"m 554 0 l 278 391 l 278 397 l 543 731 l 783 731 l 478 356 l 478 435 l 793 0 l 554 0 m 78 0 l 78 1014 l 288 1014 l 288 0 l 78 0 m 373 -590 l 257 -508 l 416 -294 l 412 -352 q 319 -313 355 -349 q 283 -224 283 -277 q 321 -133 283 -169 q 417 -97 359 -97 q 519 -137 480 -97 q 558 -240 558 -176 q 541 -323 558 -281 q 486 -422 525 -365 l 373 -590 z "},"ƙ":{"ha":833,"x_min":78,"x_max":793,"o":"m 78 0 l 78 717 q 167 978 78 884 q 405 1072 256 1072 q 578 1035 495 1072 l 511 860 q 419 880 468 880 q 288 707 288 880 l 288 0 l 78 0 m 554 0 l 278 391 l 278 397 l 543 731 l 783 731 l 476 353 l 476 438 l 793 0 l 554 0 z "},"ĸ":{"ha":833,"x_min":78,"x_max":793,"o":"m 554 0 l 278 391 l 278 397 l 543 731 l 783 731 l 478 356 l 478 435 l 793 0 l 554 0 m 78 0 l 78 731 l 288 731 l 288 0 l 78 0 z "},"ĺ":{"ha":833,"x_min":50,"x_max":786,"o":"m 550 -24 q 331 55 410 -24 q 252 271 252 133 l 252 1014 l 463 1014 l 463 286 q 570 164 463 164 q 624 175 599 164 q 676 212 649 186 l 786 64 q 680 -2 736 19 q 550 -24 623 -24 m 50 851 l 50 1014 l 410 1014 l 410 851 l 50 851 m 265 1157 l 265 1167 l 410 1419 l 651 1419 l 651 1410 l 450 1157 l 265 1157 z "},"ľ":{"ha":833,"x_min":56,"x_max":776,"o":"m 538 -24 q 320 55 399 -24 q 241 271 241 133 l 241 1014 l 452 1014 l 452 286 q 558 164 452 164 q 613 175 588 164 q 665 213 638 186 l 775 64 q 668 -2 726 19 q 538 -24 611 -24 m 56 851 l 56 1014 l 399 1014 l 399 851 l 56 851 m 548 636 l 577 1014 l 776 1014 l 705 636 l 548 636 z "},"ļ":{"ha":833,"x_min":50,"x_max":786,"o":"m 550 -24 q 331 55 410 -24 q 252 271 252 133 l 252 1014 l 463 1014 l 463 286 q 570 164 463 164 q 624 175 599 164 q 676 212 649 186 l 786 64 q 680 -2 736 19 q 550 -24 623 -24 m 50 851 l 50 1014 l 410 1014 l 410 851 l 50 851 m 465 -623 l 349 -542 l 508 -327 l 504 -385 q 411 -346 447 -382 q 375 -258 375 -310 q 413 -166 375 -202 q 510 -131 451 -131 q 611 -170 572 -131 q 650 -274 650 -210 q 634 -356 650 -314 q 578 -456 617 -399 l 465 -623 z "},"ł":{"ha":833,"x_min":50,"x_max":786,"o":"m 67 285 l 67 481 l 348 631 l 390 630 l 703 798 l 703 602 l 388 435 l 347 437 l 67 285 m 550 -24 q 331 55 410 -24 q 252 271 252 133 l 252 1014 l 463 1014 l 463 286 q 570 164 463 164 q 624 175 599 164 q 676 212 649 186 l 786 64 q 680 -2 736 19 q 550 -24 623 -24 m 50 851 l 50 1014 l 410 1014 l 410 851 l 50 851 z "},"ŀ":{"ha":833,"x_min":50,"x_max":910,"o":"m 550 -24 q 331 55 410 -24 q 252 271 252 133 l 252 1014 l 463 1014 l 463 286 q 570 164 463 164 q 624 175 599 164 q 676 212 649 186 l 786 64 q 680 -2 736 19 q 550 -24 623 -24 m 50 851 l 50 1014 l 410 1014 l 410 851 l 50 851 m 767 392 q 666 433 708 392 q 624 535 624 474 q 666 636 624 594 q 767 677 708 677 q 869 636 828 677 q 910 535 910 594 q 869 433 910 474 q 767 392 828 392 z "},"ǉ":{"ha":833,"x_min":8,"x_max":838,"o":"m 556 -312 q 328 -228 430 -312 l 424 -99 q 484 -136 456 -124 q 546 -149 512 -149 q 645 -40 645 -149 l 645 731 l 826 731 l 826 -41 q 753 -239 826 -167 q 556 -312 680 -312 m 411 0 q 224 73 292 0 q 156 276 156 147 l 156 1014 l 337 1014 l 337 278 q 424 174 337 174 q 468 183 449 174 q 510 213 488 192 l 604 77 q 411 0 525 0 m 8 858 l 8 1014 l 259 1014 l 259 858 l 8 858 m 460 575 l 460 731 l 772 731 l 772 575 l 460 575 m 701 865 q 604 905 644 865 q 564 1000 564 944 q 603 1096 564 1058 q 701 1134 643 1134 q 799 1096 760 1134 q 838 1000 838 1058 q 798 904 838 943 q 701 865 759 865 z "},"ǹ":{"ha":833,"x_min":96,"x_max":754,"o":"m 96 0 l 96 731 l 295 731 l 295 619 l 301 619 q 402 719 342 684 q 536 754 462 754 q 696 685 638 754 q 754 500 754 617 l 754 0 l 544 0 l 544 454 q 518 547 544 514 q 439 579 492 579 q 342 537 379 579 q 306 427 306 495 l 306 0 l 96 0 m 335 874 l 135 1127 l 135 1136 l 376 1136 l 520 883 l 520 874 l 335 874 z "},"ñ":{"ha":833,"x_min":96,"x_max":754,"o":"m 96 0 l 96 731 l 295 731 l 295 619 l 301 619 q 402 719 342 684 q 536 754 462 754 q 696 685 638 754 q 754 500 754 617 l 754 0 l 544 0 l 544 454 q 518 547 544 514 q 439 579 492 579 q 342 537 379 579 q 306 427 306 495 l 306 0 l 96 0 m 552 874 q 485 889 518 874 q 416 938 452 904 q 374 974 390 963 q 342 985 358 985 q 303 934 303 985 l 303 876 l 153 876 l 153 940 q 194 1087 153 1035 q 313 1138 235 1138 q 376 1124 346 1138 q 440 1075 406 1110 q 483 1038 467 1049 q 515 1027 499 1027 q 552 1078 552 1027 l 552 1136 l 703 1136 l 703 1074 q 666 926 703 977 q 552 874 628 874 z "},"ń":{"ha":833,"x_min":96,"x_max":754,"o":"m 96 0 l 96 731 l 295 731 l 295 619 l 301 619 q 402 719 342 684 q 536 754 462 754 q 696 685 638 754 q 754 500 754 617 l 754 0 l 544 0 l 544 454 q 518 547 544 514 q 439 579 492 579 q 342 537 379 579 q 306 427 306 495 l 306 0 l 96 0 m 335 874 l 335 883 l 480 1136 l 722 1136 l 722 1127 l 520 874 l 335 874 z "},"ṅ":{"ha":833,"x_min":96,"x_max":754,"o":"m 96 0 l 96 731 l 295 731 l 295 619 l 301 619 q 402 719 342 684 q 536 754 462 754 q 696 685 638 754 q 754 500 754 617 l 754 0 l 544 0 l 544 454 q 518 547 544 514 q 439 579 492 579 q 342 537 379 579 q 306 427 306 495 l 306 0 l 96 0 m 428 865 q 329 905 369 865 q 289 1003 289 945 q 329 1101 289 1061 q 428 1142 369 1142 q 527 1101 488 1142 q 567 1003 567 1061 q 527 905 567 945 q 428 865 488 865 z "}}}
